<?xml version="1.0" encoding="utf-8" ?>
<svg xmlns="http://www.w3.org/2000/svg" xmlns:ev="http://www.w3.org/2001/xml-events" xmlns:xlink="http://www.w3.org/1999/xlink" baseProfile="full" height="1140px" version="1.1" width="700px">
  <defs/>
  <text fill="rgb(244,244,244)" font-size="66px" x="14.6328125" y="90.0">dog</text>
  <text fill="rgb(244,244,244)" font-size="66px" x="14.6328125" y="187.0">dog</text>
  <text fill="rgb(244,244,244)" font-size="66px" x="14.6328125" y="284.0">dog</text>
  <text fill="rgb(244,244,244)" font-size="66px" x="14.6328125" y="381.0">dog</text>
  <text fill="rgb(244,244,244)" font-size="66px" x="14.6328125" y="478.0">dog</text>
  <text fill="rgb(244,244,244)" font-size="66px" x="14.6328125" y="575.0">dog</text>
  <text fill="rgb(244,244,244)" font-size="66px" x="14.6328125" y="672.0">dog</text>
  <text fill="rgb(244,244,244)" font-size="66px" x="14.6328125" y="769.0">dog</text>
  <text fill="rgb(244,244,244)" font-size="66px" x="14.6328125" y="866.0">dog</text>
  <text fill="rgb(244,244,244)" font-size="66px" x="14.6328125" y="963.0">dog</text>
  <text fill="rgb(244,244,244)" font-size="66px" x="14.6328125" y="1060.0">dog</text>
  <text fill="rgb(244,244,244)" font-size="66px" x="173.082421875" y="90.0">dog</text>
  <text fill="rgb(244,244,244)" font-size="66px" x="173.082421875" y="187.0">dog</text>
  <text fill="rgb(244,244,244)" font-size="66px" x="173.082421875" y="284.0">dog</text>
  <text fill="rgb(244,244,244)" font-size="66px" x="173.082421875" y="381.0">dog</text>
  <text fill="rgb(244,244,244)" font-size="66px" x="173.082421875" y="478.0">dog</text>
  <text fill="rgb(244,244,244)" font-size="66px" x="173.082421875" y="575.0">dog</text>
  <text fill="rgb(244,244,244)" font-size="66px" x="173.082421875" y="672.0">dog</text>
  <text fill="rgb(244,244,244)" font-size="66px" x="173.082421875" y="769.0">dog</text>
  <text fill="rgb(244,244,244)" font-size="66px" x="173.082421875" y="866.0">dog</text>
  <text fill="rgb(244,244,244)" font-size="66px" x="173.082421875" y="963.0">dog</text>
  <text fill="rgb(244,244,244)" font-size="66px" x="173.082421875" y="1060.0">dog</text>
  <text fill="rgb(244,244,244)" font-size="66px" x="331.53203125" y="90.0">dog</text>
  <text fill="rgb(244,244,244)" font-size="66px" x="331.53203125" y="187.0">dog</text>
  <text fill="rgb(244,244,244)" font-size="66px" x="331.53203125" y="284.0">dog</text>
  <text fill="rgb(244,244,244)" font-size="66px" x="331.53203125" y="381.0">dog</text>
  <text fill="rgb(244,244,244)" font-size="66px" x="331.53203125" y="478.0">dog</text>
  <text fill="rgb(244,244,244)" font-size="66px" x="331.53203125" y="575.0">dog</text>
  <text fill="rgb(244,244,244)" font-size="66px" x="331.53203125" y="672.0">dog</text>
  <text fill="rgb(244,244,244)" font-size="66px" x="331.53203125" y="769.0">dog</text>
  <text fill="rgb(244,244,244)" font-size="66px" x="331.53203125" y="866.0">dog</text>
  <text fill="rgb(244,244,244)" font-size="66px" x="331.53203125" y="963.0">dog</text>
  <text fill="rgb(244,244,244)" font-size="66px" x="331.53203125" y="1060.0">dog</text>
  <text fill="rgb(244,244,244)" font-size="66px" x="489.98164062499995" y="90.0">dog</text>
  <text fill="rgb(244,244,244)" font-size="66px" x="489.98164062499995" y="187.0">dog</text>
  <text fill="rgb(244,244,244)" font-size="66px" x="489.98164062499995" y="284.0">dog</text>
  <text fill="rgb(244,244,244)" font-size="66px" x="489.98164062499995" y="381.0">dog</text>
  <text fill="rgb(244,244,244)" font-size="66px" x="489.98164062499995" y="478.0">dog</text>
  <text fill="rgb(244,244,244)" font-size="66px" x="489.98164062499995" y="575.0">dog</text>
  <text fill="rgb(244,244,244)" font-size="66px" x="489.98164062499995" y="672.0">dog</text>
  <text fill="rgb(244,244,244)" font-size="66px" x="489.98164062499995" y="769.0">dog</text>
  <text fill="rgb(244,244,244)" font-size="66px" x="489.98164062499995" y="866.0">dog</text>
  <text fill="rgb(244,244,244)" font-size="66px" x="489.98164062499995" y="963.0">dog</text>
  <text fill="rgb(244,244,244)" font-size="66px" x="489.98164062499995" y="1060.0">dog</text>
  <text fill="rgb(244,244,244)" font-size="66px" x="648.43125" y="90.0">dog</text>
  <text fill="rgb(244,244,244)" font-size="66px" x="648.43125" y="187.0">dog</text>
  <text fill="rgb(244,244,244)" font-size="66px" x="648.43125" y="284.0">dog</text>
  <text fill="rgb(244,244,244)" font-size="66px" x="648.43125" y="381.0">dog</text>
  <text fill="rgb(244,244,244)" font-size="66px" x="648.43125" y="478.0">dog</text>
  <text fill="rgb(244,244,244)" font-size="66px" x="648.43125" y="575.0">dog</text>
  <text fill="rgb(244,244,244)" font-size="66px" x="648.43125" y="672.0">dog</text>
  <text fill="rgb(244,244,244)" font-size="66px" x="648.43125" y="769.0">dog</text>
  <text fill="rgb(244,244,244)" font-size="66px" x="648.43125" y="866.0">dog</text>
  <text fill="rgb(244,244,244)" font-size="66px" x="648.43125" y="963.0">dog</text>
  <text fill="rgb(244,244,244)" font-size="66px" x="648.43125" y="1060.0">dog</text>
  <g transform="scale(0.016,0.016) translate(0, 1250.0)">
    <path d="M94 766Q233 774 477 844V1339H377Q297 1339 193 1327V1454Q305 1442 377 1442H688Q772 1442 864 1454V1327Q772 1339 688 1339H592V866Q731 899 877 948Q850 881 840 807Q522 743 158 625ZM119 -104Q281 66 358 365L506 287Q524 276 520 266Q518 256 494 248Q463 238 444 197Q367 29 252 -182Q195 -139 119 -104ZM1430 137Q1487 90 1565 70Q1509 -236 1286 -229Q1206 -238 1055 -240Q893 -240 821 -233Q645 -227 653 -18V170Q653 258 641 371L807 346Q827 342 829 330Q827 317 807 305Q768 281 768 170V-8Q766 -76 782 -88Q795 -106 866 -113Q952 -123 1077 -121Q1200 -121 1268 -111Q1362 -98 1393.5 -49.0Q1425 0 1430 137ZM946 1499Q1044 1487 1120 1487H1446Q1538 1487 1618 1499Q1606 1423 1604 1348L1585 745Q1584 736 1584 723Q1584 653 1645 653Q1666 650 1686 650Q1722 650 1757 659Q1837 666 1831 891Q1892 852 1974 827Q1933 518 1776 526Q1742 522 1700 522Q1657 522 1606 526Q1452 537 1464 692L1487 1384H1073V1169Q1081 729 797 436Q737 487 662 520Q967 709 958 1167V1337Q958 1413 946 1499ZM907 422 1012 504Q1147 379 1257 252L1151 166Q1055 287 907 422ZM1204 1190Q1331 1038 1423 899L1313 819Q1225 969 1098 1114ZM1497 334 1602 414Q1778 203 1917 8L1796 -78Q1675 129 1497 334Z" fill="black" stroke="black" stroke-width="2" transform="translate(914.55078125,0) scale(0.5,-0.5)"/>
    <path d="M131 -207Q772 176 811 979H301Q246 981 164 967V1098Q240 1083 301 1085H821Q825 1207 825 1278Q825 1323 823 1378Q821 1485 809 1561L977 1538Q999 1536 999 1530Q999 1522 981 1501Q956 1473 954 1417Q954 1210 946 1085H1761Q1815 1083 1890 1098V967Q1810 979 1763 979H1247V311Q1520 668 1552 885L1708 819Q1731 809 1729 799Q1724 788 1698 780Q1659 768 1626 702Q1462 360 1247 137V-80Q1243 -137 1286 -147Q1325 -162 1505 -162Q1647 -164 1700 -109Q1757 -61 1761 80Q1810 33 1898 -25Q1829 -184 1755 -227Q1686 -276 1507 -274Q1255 -276 1192 -246Q1122 -221 1128 -113V39Q1012 -61 842 -166Q776 -94 713 -49Q907 10 1128 195V979H938Q918 240 276 -311Q215 -248 131 -207ZM1223 1409 1311 1509Q1491 1376 1683 1208L1581 1106Q1419 1280 1223 1409Z" fill="black" stroke="black" stroke-width="2" transform="translate(1914.55078125,0) scale(0.5,-0.5)"/>
    <path d="M350 -137H215Q225 -29 227 47V1200Q225 1278 215 1393Q334 1380 410 1380H639Q711 1380 840 1393Q829 1292 827 1200V96Q829 23 840 -92H709Q717 2 717 45H338Q340 -14 350 -137ZM338 1278V793H717V1278ZM338 690V147H717V690ZM1638 1407V1061H1778Q1841 1063 1937 1073V946Q1829 958 1778 958H1638V-45Q1640 -170 1569 -213Q1503 -260 1286 -276Q1266 -192 1206 -98Q1334 -117 1402 -117Q1446 -117 1466 -109Q1528 -92 1524 6V958H1065Q1001 956 897 946V1073Q995 1063 1065 1061H1524V1407Q1524 1464 1511 1581L1669 1556Q1690 1554 1690 1546Q1692 1540 1675 1528Q1640 1501 1638 1407ZM1108 782Q1212 606 1331 395L1212 324Q1114 535 997 723Z" fill="black" stroke="black" stroke-width="2" transform="translate(2914.55078125,0) scale(0.5,-0.5)"/>
    <path d="M59 684Q444 1018 635 1591L780 1516Q803 1505 801 1499Q801 1491 776 1481Q741 1466 700 1389Q672 1333 616 1229Q580 1157 563 1126V-109Q563 -166 575 -301H440Q451 -178 453 -109V950Q334 764 201 604Q131 653 59 684ZM655 657 629 791Q770 795 815 805L1118 856Q1083 1196 1081 1391Q1081 1436 1073 1540Q1071 1556 1071 1565L1225 1542Q1255 1538 1255 1532Q1260 1526 1239 1503Q1196 1462 1200 1384Q1206 1069 1235 875Q1671 938 1907 1016L1933 881Q1731 856 1245 772Q1309 135 1665 -84Q1712 -116 1746 -116Q1796 -116 1817 -45Q1829 -10 1843 100Q1882 35 1987 25Q1950 -92 1921 -154Q1880 -271 1788 -271Q1720 -271 1622 -205Q1214 29 1128 754L815 696Q811 696 655 657ZM1348 1415 1454 1501Q1569 1376 1735 1165L1632 1073Q1475 1292 1348 1415Z" fill="black" stroke="black" stroke-width="2" transform="translate(3914.55078125,0) scale(0.5,-0.5)"/>
    <path d="M799 143Q780 82 784 8Q367 -115 164 -213Q139 -129 106 -55Q381 -16 799 143ZM434 1581 584 1511Q618 1497 616 1485Q616 1473 580 1464Q535 1454 500 1384Q397 1167 262 952Q305 952 399 956Q498 961 543 961Q633 1120 682 1264L817 1182Q848 1163 848 1157Q850 1149 819 1137Q774 1114 737 1047Q592 776 383 457Q610 475 807 528Q788 471 788 397Q455 354 229 303Q215 387 184 442Q258 459 311 539Q444 733 506 862Q289 854 160 829Q154 848 111 954Q170 991 195 1038Q342 1290 434 1581ZM1047 1212H1319V1395Q1319 1481 1307 1583L1473 1563Q1513 1561 1513 1548Q1518 1538 1483 1513Q1434 1479 1434 1393V1212H1774Q1860 1212 1942 1225V1098Q1860 1110 1774 1110H1434V782H1673Q1761 782 1841 795V668Q1753 680 1673 680H1085Q999 680 918 668V795Q997 782 1085 782H1319V1110H1047Q961 1110 881 1098V1225Q954 1212 1047 1212ZM956 461Q1012 449 1126 449H1636Q1739 449 1806 461Q1794 385 1794 305V-119Q1794 -205 1808 -276H1667Q1683 -211 1679 -143H1083Q1083 -236 1092 -285H958Q969 -205 969 -131V297Q969 399 956 461ZM1083 -45H1679V346H1083Z" fill="black" stroke="black" stroke-width="2" transform="translate(4914.55078125,0) scale(0.5,-0.5)"/>
    <path d="M123 -88Q541 76 856 500H612Q547 500 420 487Q430 602 432 664V844Q430 911 420 1018Q537 1006 598 1006H981V1204H317Q260 1204 154 1192V1319Q168 1317 203 1315Q291 1307 317 1307H981V1395Q979 1456 969 1577L1122 1556Q1143 1554 1145 1546Q1145 1540 1128 1528Q1094 1507 1096 1393V1307H1745Q1815 1309 1913 1319V1192Q1817 1202 1749 1204H1096V1006H1481Q1532 1006 1679 1018Q1669 918 1667 842V649Q1669 596 1679 487Q1546 500 1491 500H1227Q1516 109 1958 -27Q1864 -80 1829 -147Q1380 78 1096 500V-147Q1098 -213 1108 -317H969Q979 -215 981 -147V459Q680 57 240 -195Q193 -117 123 -88ZM543 903V602H981V903ZM1096 602H1552V903H1096Z" fill="black" stroke="black" stroke-width="2" transform="translate(5914.55078125,0) scale(0.5,-0.5)"/>
    <path d="M1497 1325H438Q373 1327 264 1313V1444Q360 1430 434 1432H1595Q1681 1430 1780 1444Q1421 1030 1102 850V-4Q1108 -168 1034 -211Q971 -260 700 -276Q698 -213 635 -96Q770 -125 849 -125Q891 -125 915 -117Q987 -96 983 14V913Q1298 1083 1497 1325Z" fill="black" stroke="black" stroke-width="2" transform="translate(6914.55078125,0) scale(0.5,-0.5)"/>
    <path d="M424 -37Q424 -126 410.0 -188.0Q396 -250 362 -312H272Q346 -192 346 -80H280V93H424Z" fill="black" stroke="black" stroke-width="2" transform="translate(7914.55078125,0) scale(0.5,-0.5)"/>
    <path d="M1307 434 1477 379Q1497 373 1495 358Q1491 344 1464 332Q1423 307 1399 262Q1292 53 1206 -88H1718Q1792 -88 1921 -80V-203Q1804 -190 1724 -190H334Q238 -188 129 -203V-80Q240 -88 338 -88H1075Q1245 160 1307 434ZM193 1321V1448Q279 1434 371 1436H1634Q1698 1436 1812 1448V1321Q1698 1333 1634 1333H365Q289 1335 193 1321ZM422 1083Q489 1075 528 1073Q569 1071 633 1071H1405Q1470 1069 1599 1083Q1591 1020 1589 989Q1587 954 1587 903V694Q1587 614 1599 469Q1415 481 1337 481H651Q557 483 424 465Q434 594 434 678V875Q434 963 422 1083ZM549 584H1473V969H549ZM672 424Q807 223 913 39L793 -43Q690 201 563 352Z" fill="black" stroke="black" stroke-width="2" transform="translate(8914.55078125,0) scale(0.5,-0.5)"/>
    <path d="M231 -127Q285 -100 293 -78Q307 -55 305 25V1233Q305 1348 293 1411L444 1395Q471 1391 473.0 1382.5Q475 1374 455 1356Q420 1325 420 1229V852H770Q870 852 930 864V737Q854 750 770 750H420V-49Q440 -39 481 -20Q741 94 895 211Q881 117 881 39Q483 -160 434.0 -186.5Q385 -213 303 -274Q254 -170 231 -127ZM1223 1341V803Q1577 973 1698 1114L1821 987Q1847 961 1843.0 948.5Q1839 936 1804 938Q1722 942 1628 883Q1495 793 1223 680V-23Q1214 -123 1327 -123Q1333 -123 1346 -123Q1424 -127 1481 -127Q1577 -127 1638 -117Q1741 -94 1772 29Q1782 88 1782 207Q1841 152 1944 121Q1913 4 1884 -80Q1825 -211 1681 -242Q1575 -255 1473 -255Q1363 -255 1239 -240Q1108 -221 1108 -33V1341Q1108 1446 1096 1518L1247 1501Q1276 1499 1278.0 1489.0Q1280 1479 1257 1460Q1223 1430 1223 1341Z" fill="black" stroke="black" stroke-width="2" transform="translate(9914.55078125,0) scale(0.5,-0.5)"/>
    <path d="M350 -137H215Q225 -29 227 47V1200Q225 1278 215 1393Q334 1380 410 1380H639Q711 1380 840 1393Q829 1292 827 1200V96Q829 23 840 -92H709Q717 2 717 45H338Q340 -14 350 -137ZM338 1278V793H717V1278ZM338 690V147H717V690ZM1638 1407V1061H1778Q1841 1063 1937 1073V946Q1829 958 1778 958H1638V-45Q1640 -170 1569 -213Q1503 -260 1286 -276Q1266 -192 1206 -98Q1334 -117 1402 -117Q1446 -117 1466 -109Q1528 -92 1524 6V958H1065Q1001 956 897 946V1073Q995 1063 1065 1061H1524V1407Q1524 1464 1511 1581L1669 1556Q1690 1554 1690 1546Q1692 1540 1675 1528Q1640 1501 1638 1407ZM1108 782Q1212 606 1331 395L1212 324Q1114 535 997 723Z" fill="black" stroke="black" stroke-width="2" transform="translate(10914.55078125,0) scale(0.5,-0.5)"/>
    <path d="M59 684Q444 1018 635 1591L780 1516Q803 1505 801 1499Q801 1491 776 1481Q741 1466 700 1389Q672 1333 616 1229Q580 1157 563 1126V-109Q563 -166 575 -301H440Q451 -178 453 -109V950Q334 764 201 604Q131 653 59 684ZM655 657 629 791Q770 795 815 805L1118 856Q1083 1196 1081 1391Q1081 1436 1073 1540Q1071 1556 1071 1565L1225 1542Q1255 1538 1255 1532Q1260 1526 1239 1503Q1196 1462 1200 1384Q1206 1069 1235 875Q1671 938 1907 1016L1933 881Q1731 856 1245 772Q1309 135 1665 -84Q1712 -116 1746 -116Q1796 -116 1817 -45Q1829 -10 1843 100Q1882 35 1987 25Q1950 -92 1921 -154Q1880 -271 1788 -271Q1720 -271 1622 -205Q1214 29 1128 754L815 696Q811 696 655 657ZM1348 1415 1454 1501Q1569 1376 1735 1165L1632 1073Q1475 1292 1348 1415Z" fill="black" stroke="black" stroke-width="2" transform="translate(11914.55078125,0) scale(0.5,-0.5)"/>
    <path d="M283 1323V1454Q375 1442 446 1442H1638Q1726 1442 1798 1454V1323Q1716 1335 1638 1335H1436V752H1747Q1835 752 1939 764V633Q1841 645 1747 645H1436V-63Q1436 -143 1448 -254H1305Q1317 -152 1317 -63V645H766Q774 129 317 -272Q233 -213 160 -182Q637 102 645 645H307Q221 645 133 633V764Q225 752 307 752H655Q664 801 664 875V1335H446Q371 1335 283 1323ZM778 1335V752H1317V1335Z" fill="black" stroke="black" stroke-width="2" transform="translate(12914.55078125,0) scale(0.5,-0.5)"/>
    <path d="M135 940 129 1069Q233 1055 276 1057L367 1061Q408 1335 420 1563L608 1505Q623 1501 621 1493Q616 1485 598 1477Q539 1464 528 1360L485 1061L678 1067Q752 1069 844 1081Q827 993 815 887Q766 453 647 207Q803 76 877 8Q834 -35 778 -96Q692 10 588 102Q426 -131 242 -287Q186 -221 102 -190Q377 -37 492 182Q381 301 199 406Q268 567 350 961L285 956Q217 952 135 940ZM350 449Q469 356 549 287Q670 524 707 965L467 961Q399 625 350 449ZM893 932Q969 950 1059 1090Q1247 1411 1305 1597L1470 1528Q1491 1520 1489 1511Q1485 1501 1458 1497Q1405 1491 1354 1393Q1149 1016 1067 922Q1210 926 1489 938Q1632 944 1712 948Q1626 1071 1526 1202L1628 1272Q1782 1079 1948 821L1833 743L1769 858Q1534 850 1243 823Q1016 805 946 782Q924 875 893 932ZM1790 -287H1651Q1659 -215 1663 -131H1118Q1122 -225 1130 -297H995Q1006 -205 1008 -129V401Q1006 481 995 588Q1124 576 1194 576H1585Q1653 576 1790 588Q1778 459 1778 403V-123Q1780 -184 1790 -287ZM1118 473V-33H1663V473Z" fill="black" stroke="black" stroke-width="2" transform="translate(13914.55078125,0) scale(0.5,-0.5)"/>
    <path d="M1497 1325H438Q373 1327 264 1313V1444Q360 1430 434 1432H1595Q1681 1430 1780 1444Q1421 1030 1102 850V-4Q1108 -168 1034 -211Q971 -260 700 -276Q698 -213 635 -96Q770 -125 849 -125Q891 -125 915 -117Q987 -96 983 14V913Q1298 1083 1497 1325Z" fill="black" stroke="black" stroke-width="2" transform="translate(14914.55078125,0) scale(0.5,-0.5)"/>
  </g>
  <g transform="scale(0.016,0.016) translate(0, 3500.0)">
    <path d="M713 1047V1241H461Q395 1239 293 1229V1356Q397 1346 461 1344H713V1405Q711 1473 700 1591L854 1571Q879 1569 881.0 1559.5Q883 1550 860 1534Q823 1509 823 1403V1344H1249V1405Q1249 1477 1237 1591L1393 1571Q1417 1569 1419.0 1560.5Q1421 1552 1401 1536Q1360 1505 1360 1403V1344H1583Q1651 1346 1751 1356V1229Q1642 1241 1587 1241H1360V1047H1759Q1821 1047 1927 1059V932Q1817 944 1763 944H1083V776H1479Q1540 776 1673 788Q1663 692 1661 616V262Q1663 203 1673 96Q1546 109 1489 109H1331Q1534 8 1849 -178L1782 -293Q1536 -119 1233 16L1296 109H782L866 33Q895 8 891 -2Q889 -10 852 -12Q809 -12 741 -57Q489 -207 305 -307Q262 -244 195 -201Q545 -94 743 109H610Q555 109 426 96Q436 209 438 272V610Q438 676 426 788Q535 778 608 776H969V944H293Q238 944 129 932V1059Q233 1049 293 1047ZM549 397V211H969V397ZM549 674V500H969V674ZM1249 1241H823V1047H1249ZM1083 211H1546V397H1083ZM1083 674V500H1546V674Z" fill="black" stroke="black" stroke-width="2" transform="translate(914.55078125,0) scale(0.5,-0.5)"/>
    <path d="M748 881 827 977Q870 911 983 844Q1087 924 1190 1051H807Q690 909 590 807Q532 862 459 897Q717 1030 827 1325L958 1282Q979 1276 979.0 1268.0Q979 1260 958 1249Q930 1237 868 1153H1231Q1309 1155 1421 1165Q1278 961 1083 784Q1339 633 1628 592Q1554 518 1526 455Q1268 551 999 705Q821 571 498 438Q444 514 387 555Q684 625 895 776Q817 827 748 881ZM739 231 793 338Q1073 223 1341 86L1278 -16Q1024 135 739 231ZM856 489 907 582Q1102 496 1272 403L1219 301Q1069 397 856 489ZM371 -303H231Q242 -197 244 -119V1278Q242 1362 231 1460Q340 1450 422 1448H1640Q1720 1450 1829 1460Q1819 1358 1817 1282V-80Q1819 -145 1829 -262H1690Q1700 -201 1702 -145H358Q360 -215 371 -303ZM358 -47H1702V1346H358Z" fill="black" stroke="black" stroke-width="2" transform="translate(1914.55078125,0) scale(0.5,-0.5)"/>
    <path d="M342 1509 492 1489Q505 1484 505 1474Q505 1463 489 1446Q463 1427 465 1311V1010Q467 934 477 840H342Q352 932 354 1010V1323Q352 1399 342 1509ZM866 1018Q1075 1174 1198 1587L1346 1536Q1364 1530 1362.0 1518.5Q1360 1507 1339 1499Q1298 1485 1272 1419Q1251 1368 1231 1327H1741Q1817 1329 1896 1339V1217Q1808 1227 1741 1229H1192Q1104 1075 1014 948Q956 991 866 1018ZM1292 1049 1370 1151Q1597 1016 1765 899L1694 784Q1532 922 1292 1049ZM98 -160Q606 -119 750 51Q885 193 905 565L1061 535Q1085 530 1087 520Q1090 508 1067 492Q1034 469 1020 395Q969 -197 211 -301Q174 -217 98 -160ZM1061 371 1204 350Q1221 345 1221 335Q1221 325 1204 309Q1182 301 1184 180V-33Q1182 -88 1225 -104Q1268 -123 1417 -127Q1449 -128 1491 -128Q1678 -128 1724 -92Q1790 -59 1790 117Q1847 45 1935 31Q1874 -166 1796 -201Q1731 -246 1444 -246Q1200 -248 1137 -213Q1069 -184 1073 -63V188Q1071 266 1061 371ZM565 84H430Q440 174 442 250V563Q438 649 430 737Q532 727 610 725H1427Q1511 727 1602 737Q1591 645 1589 567V264Q1591 186 1602 94H1466Q1477 188 1479 264V627H553V250Q555 186 565 84ZM723 1575 877 1554Q889 1548 889 1539Q889 1527 872 1509Q844 1487 846 1378V985Q848 903 858 813H723Q733 909 735 985V1391Q733 1464 723 1575Z" fill="black" stroke="black" stroke-width="2" transform="translate(2914.55078125,0) scale(0.5,-0.5)"/>
    <path d="M123 1280V1423Q215 1409 301 1407H1747Q1829 1409 1921 1423V1280Q1829 1292 1747 1296H918Q905 1079 891 895H1468Q1565 899 1657 911Q1642 813 1634 725L1599 209Q1585 -72 1497 -131Q1421 -207 1108 -203Q1100 -123 1044 -25Q1212 -60 1301 -60Q1363 -60 1389 -43Q1464 -16 1473 193L1516 784H881Q805 111 317 -244Q250 -182 158 -139Q809 145 784 1296H301Q219 1294 123 1280Z" fill="black" stroke="black" stroke-width="2" transform="translate(3914.55078125,0) scale(0.5,-0.5)"/>
    <path d="M61 270Q440 395 690 709H262Q195 709 102 696V823Q193 811 262 811H750Q801 895 831 995H418Q350 995 254 983V1110Q350 1098 418 1098H858Q918 1323 915 1575L1079 1544Q1106 1540 1106 1532Q1108 1524 1083 1503Q1044 1470 1034 1395Q1010 1217 983 1098H1606Q1683 1098 1780 1110V983Q1677 997 1606 995H958Q928 897 885 811H1731Q1808 811 1905 823V696Q1804 711 1737 709H1378Q1552 430 1978 346Q1915 287 1880 211Q1612 317 1458 449Q1456 422 1450 352Q1442 254 1438 211Q1434 25 1065 20Q1059 90 1010 160Q1069 154 1125 154Q1317 154 1319 246Q1327 297 1333 387H702V-80Q700 -91 700 -97Q700 -187 909 -180H1333Q1468 -182 1516 -125Q1569 -72 1585 98Q1649 41 1731 25Q1659 -176 1589 -227Q1524 -287 1346 -283H852Q696 -283 643 -246Q586 -211 588 -106V289Q588 342 575 418Q416 289 180 152Q137 215 61 270ZM659 502Q733 489 795 489H1255Q1329 489 1397 502Q1313 592 1241 709H834Q760 604 659 502ZM397 1405 494 1489Q639 1352 752 1214L649 1124Q537 1276 397 1405ZM1204 1169Q1350 1339 1425 1509L1546 1440Q1573 1425 1573 1413Q1571 1403 1542 1395Q1503 1384 1473 1337Q1399 1227 1309 1108Z" fill="black" stroke="black" stroke-width="2" transform="translate(4914.55078125,0) scale(0.5,-0.5)"/>
    <path d="M424 -37Q424 -126 410.0 -188.0Q396 -250 362 -312H272Q346 -192 346 -80H280V93H424Z" fill="black" stroke="black" stroke-width="2" transform="translate(5914.55078125,0) scale(0.5,-0.5)"/>
    <path d="M78 129Q164 137 272 162V1233Q274 1348 260 1450Q485 1464 799 1602L901 1479Q919 1458 919 1450Q919 1449 917.5 1446.5Q916 1444 911 1444Q904 1444 881 1448Q866 1451 851 1451Q819 1451 768 1440Q614 1409 387 1368V1057H647Q705 1055 799 1069V942Q698 954 643 954H387V655H633Q690 653 799 668V541Q688 555 635 553H387V184Q713 256 881 324L866 184Q623 131 387 66V-100Q387 -182 399 -293H260Q272 -174 272 -92V25Q197 0 133 -27ZM1286 141Q1137 328 1034 578Q981 578 897 565V694Q997 680 1063 682H1602Q1675 680 1782 694Q1640 387 1448 141Q1688 -57 1968 -147Q1878 -217 1853 -276Q1542 -109 1372 61Q1135 -154 813 -287Q782 -215 707 -158Q1034 -100 1286 141ZM1583 580H1155Q1227 391 1364 223Q1499 379 1583 580ZM823 875Q1081 943 1081 1336Q1081 1422 1069 1522Q1165 1509 1225 1509H1501Q1554 1509 1647 1522Q1632 1446 1634 1378V1051Q1625 951 1749 951Q1818 951 1931 983Q1898 895 1890 834Q1819 828 1755 828Q1640 828 1593 852Q1518 885 1520 1012V1407H1200Q1196 1143 1145 1026Q1096 897 944 768Q903 829 823 875Z" fill="black" stroke="black" stroke-width="2" transform="translate(6914.55078125,0) scale(0.5,-0.5)"/>
    <path d="M135 647V778Q207 766 287 766H967V858Q967 907 954 975Q1300 1200 1462 1387H506Q432 1387 340 1374V1505Q412 1493 500 1493H1534Q1618 1493 1747 1505Q1530 1255 1090 913V766H1761Q1845 766 1915 778V647Q1839 659 1763 659H1090V-49Q1094 -195 1026 -236Q965 -283 733 -295Q719 -211 664 -129Q772 -143 836 -143Q896 -143 918 -131Q971 -117 967 -6V659H285Q203 659 135 647Z" fill="black" stroke="black" stroke-width="2" transform="translate(7914.55078125,0) scale(0.5,-0.5)"/>
    <path d="M449 1016V1139Q541 1126 606 1126H1436Q1503 1124 1597 1139V1016Q1495 1028 1436 1028H606Q545 1028 449 1016ZM893 1612Q1083 1505 1206 1411L1161 1356H1679Q1747 1354 1849 1368Q1837 1268 1837 1208V1178Q1837 1120 1849 1016H1710Q1722 1120 1722 1178V1253H336V1163Q336 1102 348 1001H209Q221 1104 221 1163V1202Q221 1253 209 1368Q309 1356 377 1356H1077Q987 1423 819 1511ZM326 467Q430 455 496 455H1550Q1610 455 1710 467Q1698 371 1698 301V-141Q1698 -201 1710 -305H1571Q1579 -244 1583 -182H449Q451 -246 461 -322H326Q340 -233 338 -160V295Q338 354 326 467ZM453 82V-84H967V82ZM453 356V180H967V356ZM1583 -84V82H1081V-84ZM1081 356V180H1583V356ZM498 559Q510 655 510 727V770Q510 836 498 932Q596 920 662 920H1382Q1448 918 1544 932Q1532 834 1532 770V727Q1530 664 1544 559Q1450 571 1382 571H662Q592 571 498 559ZM625 821V670H1417V821Z" fill="black" stroke="black" stroke-width="2" transform="translate(8914.55078125,0) scale(0.5,-0.5)"/>
    <path d="M289 1384Q399 1377 507 1377Q1086 1377 1573 1581L1665 1456Q1681 1434 1677.0 1427.5Q1673 1421 1645 1423Q1597 1427 1522 1407Q1382 1370 1083 1315V731H1700Q1782 731 1901 748V612Q1784 629 1700 629H1083V-100Q1083 -168 1100 -291H948Q965 -178 965 -100V629H328Q246 629 147 612V748Q246 731 328 731H965V1294Q680 1251 369 1227Q346 1313 289 1384Z" fill="black" stroke="black" stroke-width="2" transform="translate(9914.55078125,0) scale(0.5,-0.5)"/>
    <path d="M1028 227V584H641Q530 584 440 567L395 694Q402 691 409 691Q503 691 717 1157H338Q268 1157 178 1145V1272Q268 1260 338 1260H768Q844 1419 899 1606L1055 1548Q1083 1538 1083.0 1532.0Q1083 1526 1055 1513Q1022 1499 999 1454Q983 1421 948 1354Q913 1290 899 1260H1665Q1751 1260 1827 1272V1145Q1743 1157 1665 1157H848Q698 866 592 686H1028V815Q1028 903 1016 1026L1171 1001Q1198 997 1198.0 985.0Q1198 973 1174 954Q1155 942 1151 918Q1147 897 1147 815V686H1509Q1593 686 1679 698V571Q1593 584 1509 584H1147V227H1761Q1845 227 1921 240V113Q1847 125 1761 125H1147V-131Q1147 -219 1159 -319H1016Q1028 -229 1028 -131V125H295Q211 125 123 113V240Q213 227 295 227Z" fill="black" stroke="black" stroke-width="2" transform="translate(10914.55078125,0) scale(0.5,-0.5)"/>
    <path d="M512 217Q346 195 323 29Q346 -132 512 -155Q680 -132 703 29Q680 195 512 217ZM512 281Q744 258 766 29Q742 -194 512 -219Q284 -194 260 29Q284 258 512 281Z" fill="black" stroke="black" stroke-width="2" transform="translate(11914.55078125,0) scale(0.5,-0.5)"/>
    <path d="M1784 1204Q1772 1116 1772 1028V2Q1778 -178 1700 -225Q1634 -281 1352 -301Q1329 -209 1288 -121Q1402 -129 1469 -129Q1564 -129 1593 -115Q1655 -100 1649 10V1081H1085Q1075 954 1061 838Q1309 559 1526 279L1389 170Q1249 401 1022 682Q905 324 610 109Q551 164 469 223Q922 408 961 1081H401V-92Q401 -174 414 -279H270Q283 -192 283 -92V1030Q283 1116 270 1204Q369 1192 459 1192H963Q963 1354 961 1423Q956 1499 948 1569L1114 1554Q1153 1552 1153 1540Q1155 1530 1124 1501Q1085 1470 1087 1384Q1087 1284 1087 1192H1591Q1681 1192 1784 1204Z" fill="black" stroke="black" stroke-width="2" transform="translate(12914.55078125,0) scale(0.5,-0.5)"/>
    <path d="M123 924 195 1022Q373 907 498 803L422 692Q289 817 123 924ZM158 -192Q330 156 444 557Q487 489 547 442Q375 4 301 -254ZM387 1540Q528 1434 688 1292L594 1190Q451 1348 297 1448ZM797 770V-51L1749 -8V797Q1747 881 1737 987L1896 967Q1905 962 1905 955Q1905 944 1890 930Q1862 913 1864 786V-102Q1866 -182 1876 -283H1737Q1747 -190 1749 -104L868 -147Q782 -154 670 -170Q680 -66 682 8V784Q680 870 670 973L825 952Q835 948 835 940Q835 929 817 911Q795 905 797 770ZM1321 1106V793Q1483 963 1595 1159L1718 1081Q1735 1071 1731 1059Q1726 1049 1706 1049Q1669 1042 1634 1001Q1532 877 1419 754Q1554 584 1720 358L1599 285Q1485 508 1321 705V260Q1323 133 1280 100Q1241 59 1077 45Q1063 111 1018 186Q1086 180 1127 180Q1168 180 1182 186Q1214 195 1210 256V588Q1038 430 918 287L825 418Q1024 553 1210 709V999Q1208 1075 1198 1167Q1341 1243 1507 1395H903Q829 1393 735 1382V1509Q829 1499 903 1497H1602Q1696 1499 1806 1509Q1585 1298 1321 1106ZM844 1053 928 1122Q1040 999 1171 846L1077 762Q971 922 844 1053Z" fill="black" stroke="black" stroke-width="2" transform="translate(13914.55078125,0) scale(0.5,-0.5)"/>
    <path d="M295 850H874Q903 1036 913 1317H469Q418 1319 342 1305V1436Q406 1421 467 1423H1622Q1679 1421 1749 1436V1305Q1686 1319 1626 1317H1034Q1028 1049 999 850H1780Q1835 848 1907 862V731Q1833 745 1778 743H1202V18Q1198 -61 1243 -74Q1278 -92 1466 -90Q1663 -94 1706 -51Q1757 -18 1788 178Q1847 100 1921 92Q1858 -117 1778 -160Q1735 -188 1663 -199Q1597 -209 1454 -209Q1210 -211 1147 -178Q1077 -154 1083 -45V743H981Q874 127 258 -262Q217 -176 139 -133Q668 55 856 743H305Q248 745 172 731V862Q238 848 295 850Z" fill="black" stroke="black" stroke-width="2" transform="translate(14914.55078125,0) scale(0.5,-0.5)"/>
    <path d="M195 -192Q799 -68 903 371H477Q414 371 317 358V485Q414 473 477 473H920Q926 551 926 632Q926 712 920 795L1092 780Q1112 778 1112 770Q1112 760 1094 745Q1063 725 1059 657Q1053 547 1044 473H1595Q1661 473 1763 485Q1751 397 1745 324Q1733 154 1716 -4Q1702 -172 1622 -227Q1546 -291 1331 -299Q1337 -207 1274 -127Q1371 -138 1427 -138Q1492 -138 1520 -125Q1579 -106 1589 0Q1608 154 1622 371H1032Q967 -72 309 -328Q285 -256 195 -192ZM168 655Q541 772 788 1090L920 995Q940 981 938.0 971.0Q936 961 909 958Q850 956 815 924Q592 715 281 541Q242 604 168 655ZM1165 956 1239 1063Q1597 889 1870 690L1788 582Q1524 797 1165 956ZM360 915H221Q233 1008 233 1063V1131Q233 1200 221 1292Q319 1280 391 1280H1098Q983 1399 840 1501L928 1589Q1073 1479 1202 1356L1124 1280H1700Q1772 1278 1878 1292Q1866 1206 1866 1143V1079Q1866 1022 1878 930H1739Q1751 1020 1751 1079V1178H348V1063Q348 999 360 915Z" fill="black" stroke="black" stroke-width="2" transform="translate(15914.55078125,0) scale(0.5,-0.5)"/>
    <path d="M647 49 719 160Q1038 -18 1333 -201L1260 -319Q973 -109 647 49ZM788 426 854 532Q1116 399 1323 262L1253 152Q1047 297 788 426ZM51 170Q498 434 485 1053V1284Q485 1350 473 1470Q594 1458 662 1458H1483Q1550 1456 1665 1470Q1653 1366 1653 1286V1038Q1653 977 1665 875Q1559 887 1485 887H1229Q1448 393 1980 254Q1903 201 1866 117Q1268 403 1098 887H596Q567 416 195 82Q139 143 51 170ZM600 1356V989H1538V1356Z" fill="black" stroke="black" stroke-width="2" transform="translate(16914.55078125,0) scale(0.5,-0.5)"/>
    <path d="M424 -37Q424 -126 410.0 -188.0Q396 -250 362 -312H272Q346 -192 346 -80H280V93H424Z" fill="black" stroke="black" stroke-width="2" transform="translate(17914.55078125,0) scale(0.5,-0.5)"/>
    <path d="M104 905V1024Q190 1012 274 1012H715Q637 1135 549 1202L600 1245H471Q354 1245 254 1233V1352Q354 1339 467 1339H1059Q924 1432 784 1501L850 1597Q1004 1520 1157 1423L1096 1339H1544Q1659 1339 1739 1352V1233Q1667 1245 1546 1245H1391L1446 1212Q1458 1204 1456 1200Q1454 1194 1438 1192Q1384 1178 1346 1118Q1327 1088 1292 1038Q1280 1020 1274 1012H1729Q1802 1012 1903 1024V905Q1817 918 1724 918H270Q197 918 104 905ZM782 1012H1161Q1255 1149 1294 1245H662Q756 1157 834 1057ZM104 -201Q309 -68 385 219L498 158Q522 145 520 135Q518 127 492 123Q473 121 436 49Q428 35 424 27Q340 -129 229 -270Q178 -225 104 -201ZM1636 827Q1624 733 1624 645V451Q1624 367 1636 279Q1528 291 1432 291H993Q1096 203 1229 72L1153 -10Q1028 129 901 236L954 291H592Q512 291 410 279Q422 375 422 444V645Q422 725 410 827Q524 815 594 815H1436Q1513 815 1636 827ZM1509 596V725H537V596ZM1509 381V506H537V381ZM621 240 764 219Q793 215 797 205Q801 197 780 184Q752 158 748 92V-90Q745 -152 784 -166Q823 -184 958 -182Q1300 -184 1343 -149Q1413 -127 1440 55Q1495 -10 1561 -23Q1495 -217 1417 -244Q1354 -285 1024 -285Q786 -291 709 -250Q629 -215 633 -96V84Q633 166 621 240ZM1511 176 1591 252Q1792 66 1925 -92L1833 -174Q1677 27 1511 176Z" fill="black" stroke="black" stroke-width="2" transform="translate(18914.55078125,0) scale(0.5,-0.5)"/>
    <path d="M150 911 223 1010Q395 899 532 778L455 682Q301 811 150 911ZM176 -123Q375 147 549 573Q580 500 639 459Q502 205 317 -213Q268 -170 176 -123ZM379 1470Q539 1360 686 1239L602 1137Q438 1280 299 1378ZM858 397H1249V682Q1174 678 1040 672Q891 664 817 659Q797 743 764 799Q873 789 998 789Q1155 789 1329 805Q1630 836 1743 895L1815 758Q1821 745 1821 739Q1821 734 1817 731Q1813 729 1807 729Q1796 729 1782 735Q1763 740 1735 740Q1707 740 1669 735Q1536 715 1364 694V397H1778Q1851 397 1929 410V279Q1860 293 1778 291H1364V-72H1708Q1780 -72 1860 -59V-186Q1800 -174 1708 -174H901Q840 -174 748 -186V-59Q831 -72 897 -72H1249V291H862Q770 291 709 279V410Q784 397 858 397ZM737 1153 836 1221Q981 1051 1057 930L948 864Q862 1018 737 1153ZM1702 1548 1798 1423Q1807 1411 1807 1404Q1807 1400 1804 1397Q1799 1394 1792 1394Q1784 1394 1767 1399Q1759 1404 1733 1404Q1674 1404 1522 1380Q1186 1329 795 1315Q766 1407 737 1458Q850 1448 977 1450Q1106 1450 1239 1462Q1530 1491 1702 1548ZM1108 1208 1212 1266Q1298 1153 1401 987L1286 922Q1229 1051 1108 1208ZM1427 899Q1593 1114 1659 1309L1806 1227Q1831 1212 1829 1202Q1825 1192 1798 1190Q1747 1180 1716 1131Q1657 1020 1552 852Q1491 883 1427 899Z" fill="black" stroke="black" stroke-width="2" transform="translate(19914.55078125,0) scale(0.5,-0.5)"/>
    <path d="M104 555Q580 768 780 1221H307Q248 1221 145 1208V1335Q240 1323 307 1323H815Q864 1458 874 1616L1042 1583Q1067 1579 1069 1569Q1069 1559 1047 1544Q1006 1520 993 1468Q973 1389 952 1323H1724Q1800 1323 1903 1335V1208Q1804 1223 1724 1221H918Q864 1094 786 973H1389Q1491 971 1604 985Q1591 860 1591 772V-90Q1595 -211 1540 -242Q1497 -279 1278 -301Q1270 -211 1225 -131Q1317 -143 1373 -143Q1412 -143 1430 -137Q1475 -125 1473 -57V201H745V-96Q745 -170 758 -287H614Q627 -172 627 -96V760Q473 594 238 434Q188 496 104 555ZM745 870V639H1473V870ZM745 537V303H1473V537Z" fill="black" stroke="black" stroke-width="2" transform="translate(20914.55078125,0) scale(0.5,-0.5)"/>
    <path d="M266 875Q418 877 537 883Q649 1092 678 1200L817 1124Q848 1108 846 1100Q844 1090 809 1075Q776 1061 743 1008Q514 612 350 381Q692 430 754 465L731 324Q215 248 193 221L145 365Q221 397 264 449Q367 578 475 776Q219 758 135 731L92 860Q162 885 201 967Q348 1276 418 1522L559 1446Q594 1427 594 1417Q594 1409 559 1393Q518 1368 487 1311Q365 1065 266 875ZM96 -80Q367 -59 829 86L817 -59Q440 -131 166 -240ZM754 887Q1012 1090 1165 1577L1325 1516Q1343 1509 1341.0 1503.0Q1339 1497 1315 1483Q1284 1466 1257 1411Q1227 1346 1204 1305H1559Q1645 1303 1735 1317Q1614 1006 1425 776Q1636 616 1968 576Q1888 500 1866 420Q1556 528 1335 688Q1141 496 883 377Q831 453 764 500Q1018 555 1247 774Q1184 840 1090 965L1188 1051Q1225 973 1329 856Q1483 1030 1546 1202H1159Q1055 1016 905 821Q838 858 754 887ZM1012 -20 1071 92Q1489 -63 1710 -168L1655 -299Q1341 -129 1012 -20ZM1122 322 1186 430Q1370 358 1616 254L1565 135Q1311 260 1122 322Z" fill="black" stroke="black" stroke-width="2" transform="translate(21914.55078125,0) scale(0.5,-0.5)"/>
    <path d="M350 -137H215Q225 -29 227 47V1200Q225 1278 215 1393Q334 1380 410 1380H639Q711 1380 840 1393Q829 1292 827 1200V96Q829 23 840 -92H709Q717 2 717 45H338Q340 -14 350 -137ZM338 1278V793H717V1278ZM338 690V147H717V690ZM1638 1407V1061H1778Q1841 1063 1937 1073V946Q1829 958 1778 958H1638V-45Q1640 -170 1569 -213Q1503 -260 1286 -276Q1266 -192 1206 -98Q1334 -117 1402 -117Q1446 -117 1466 -109Q1528 -92 1524 6V958H1065Q1001 956 897 946V1073Q995 1063 1065 1061H1524V1407Q1524 1464 1511 1581L1669 1556Q1690 1554 1690 1546Q1692 1540 1675 1528Q1640 1501 1638 1407ZM1108 782Q1212 606 1331 395L1212 324Q1114 535 997 723Z" fill="black" stroke="black" stroke-width="2" transform="translate(22914.55078125,0) scale(0.5,-0.5)"/>
    <path d="M512 217Q346 195 323 29Q346 -132 512 -155Q680 -132 703 29Q680 195 512 217ZM512 281Q744 258 766 29Q742 -194 512 -219Q284 -194 260 29Q284 258 512 281Z" fill="black" stroke="black" stroke-width="2" transform="translate(23914.55078125,0) scale(0.5,-0.5)"/>
  </g>
</svg>
