<?xml version="1.0" encoding="utf-8" ?>
<svg baseProfile="full" height="1140px" version="1.1" width="700px" xmlns="http://www.w3.org/2000/svg" xmlns:ev="http://www.w3.org/2001/xml-events" xmlns:xlink="http://www.w3.org/1999/xlink"><defs /><text fill="rgb(244,244,244)" font-size="66px" x="14.6328125" y="90.0">dog</text><text fill="rgb(244,244,244)" font-size="66px" x="14.6328125" y="187.0">dog</text><text fill="rgb(244,244,244)" font-size="66px" x="14.6328125" y="284.0">dog</text><text fill="rgb(244,244,244)" font-size="66px" x="14.6328125" y="381.0">dog</text><text fill="rgb(244,244,244)" font-size="66px" x="14.6328125" y="478.0">dog</text><text fill="rgb(244,244,244)" font-size="66px" x="14.6328125" y="575.0">dog</text><text fill="rgb(244,244,244)" font-size="66px" x="14.6328125" y="672.0">dog</text><text fill="rgb(244,244,244)" font-size="66px" x="14.6328125" y="769.0">dog</text><text fill="rgb(244,244,244)" font-size="66px" x="14.6328125" y="866.0">dog</text><text fill="rgb(244,244,244)" font-size="66px" x="14.6328125" y="963.0">dog</text><text fill="rgb(244,244,244)" font-size="66px" x="14.6328125" y="1060.0">dog</text><text fill="rgb(244,244,244)" font-size="66px" x="173.082421875" y="90.0">dog</text><text fill="rgb(244,244,244)" font-size="66px" x="173.082421875" y="187.0">dog</text><text fill="rgb(244,244,244)" font-size="66px" x="173.082421875" y="284.0">dog</text><text fill="rgb(244,244,244)" font-size="66px" x="173.082421875" y="381.0">dog</text><text fill="rgb(244,244,244)" font-size="66px" x="173.082421875" y="478.0">dog</text><text fill="rgb(244,244,244)" font-size="66px" x="173.082421875" y="575.0">dog</text><text fill="rgb(244,244,244)" font-size="66px" x="173.082421875" y="672.0">dog</text><text fill="rgb(244,244,244)" font-size="66px" x="173.082421875" y="769.0">dog</text><text fill="rgb(244,244,244)" font-size="66px" x="173.082421875" y="866.0">dog</text><text fill="rgb(244,244,244)" font-size="66px" x="173.082421875" y="963.0">dog</text><text fill="rgb(244,244,244)" font-size="66px" x="173.082421875" y="1060.0">dog</text><text fill="rgb(244,244,244)" font-size="66px" x="331.53203125" y="90.0">dog</text><text fill="rgb(244,244,244)" font-size="66px" x="331.53203125" y="187.0">dog</text><text fill="rgb(244,244,244)" font-size="66px" x="331.53203125" y="284.0">dog</text><text fill="rgb(244,244,244)" font-size="66px" x="331.53203125" y="381.0">dog</text><text fill="rgb(244,244,244)" font-size="66px" x="331.53203125" y="478.0">dog</text><text fill="rgb(244,244,244)" font-size="66px" x="331.53203125" y="575.0">dog</text><text fill="rgb(244,244,244)" font-size="66px" x="331.53203125" y="672.0">dog</text><text fill="rgb(244,244,244)" font-size="66px" x="331.53203125" y="769.0">dog</text><text fill="rgb(244,244,244)" font-size="66px" x="331.53203125" y="866.0">dog</text><text fill="rgb(244,244,244)" font-size="66px" x="331.53203125" y="963.0">dog</text><text fill="rgb(244,244,244)" font-size="66px" x="331.53203125" y="1060.0">dog</text><text fill="rgb(244,244,244)" font-size="66px" x="489.98164062499995" y="90.0">dog</text><text fill="rgb(244,244,244)" font-size="66px" x="489.98164062499995" y="187.0">dog</text><text fill="rgb(244,244,244)" font-size="66px" x="489.98164062499995" y="284.0">dog</text><text fill="rgb(244,244,244)" font-size="66px" x="489.98164062499995" y="381.0">dog</text><text fill="rgb(244,244,244)" font-size="66px" x="489.98164062499995" y="478.0">dog</text><text fill="rgb(244,244,244)" font-size="66px" x="489.98164062499995" y="575.0">dog</text><text fill="rgb(244,244,244)" font-size="66px" x="489.98164062499995" y="672.0">dog</text><text fill="rgb(244,244,244)" font-size="66px" x="489.98164062499995" y="769.0">dog</text><text fill="rgb(244,244,244)" font-size="66px" x="489.98164062499995" y="866.0">dog</text><text fill="rgb(244,244,244)" font-size="66px" x="489.98164062499995" y="963.0">dog</text><text fill="rgb(244,244,244)" font-size="66px" x="489.98164062499995" y="1060.0">dog</text><text fill="rgb(244,244,244)" font-size="66px" x="648.43125" y="90.0">dog</text><text fill="rgb(244,244,244)" font-size="66px" x="648.43125" y="187.0">dog</text><text fill="rgb(244,244,244)" font-size="66px" x="648.43125" y="284.0">dog</text><text fill="rgb(244,244,244)" font-size="66px" x="648.43125" y="381.0">dog</text><text fill="rgb(244,244,244)" font-size="66px" x="648.43125" y="478.0">dog</text><text fill="rgb(244,244,244)" font-size="66px" x="648.43125" y="575.0">dog</text><text fill="rgb(244,244,244)" font-size="66px" x="648.43125" y="672.0">dog</text><text fill="rgb(244,244,244)" font-size="66px" x="648.43125" y="769.0">dog</text><text fill="rgb(244,244,244)" font-size="66px" x="648.43125" y="866.0">dog</text><text fill="rgb(244,244,244)" font-size="66px" x="648.43125" y="963.0">dog</text><text fill="rgb(244,244,244)" font-size="66px" x="648.43125" y="1060.0">dog</text><g transform="scale(0.016,0.016) translate(0, 1250.0)"><path d="M924 1206 1098 1178Q1128 1174 1128 1163Q1130 1153 1100 1131Q1053 1077 1049 985Q1053 442 872 193Q698 -74 195 -268Q156 -197 68 -127Q600 -10 774 276Q870 424 905 647Q929 799 929 1005Q929 1100 924 1206ZM434 1499Q528 1485 590 1487H1468Q1536 1485 1622 1499Q1614 1444 1614 1360Q1614 1341 1614 1331V498Q1612 381 1626 307H1487Q1501 369 1499 498V1384H561V471Q559 367 573 299H434Q449 391 446 471V1331Q449 1411 434 1499ZM1069 625 1229 604Q1253 600 1253.0 588.0Q1253 576 1231 559Q1194 541 1196 426V12Q1188 -94 1315 -102Q1370 -109 1475 -109Q1583 -109 1638 -104Q1812 -111 1802 215Q1874 158 1954 147Q1896 -207 1702 -217Q1636 -227 1501 -227Q1362 -229 1266 -219Q1075 -203 1081 -47V422Q1081 516 1069 625Z" fill="black" stroke="black" stroke-width="2" transform="translate(914.55078125,0) scale(0.5,-0.5)" /><path d="M690 283 762 150Q471 -217 418 -307L309 -186Q342 -143 350 -121Q360 -98 360 -45L379 815H254Q190 817 106 803V934Q180 920 248 922H346Q408 920 502 934Q492 852 492 766L479 -25Q578 98 690 283ZM250 1477 352 1567Q518 1399 666 1227L555 1128Q410 1325 250 1477ZM1018 -98H1296V1329H895Q834 1329 756 1317V1448Q838 1434 891 1436H1769Q1825 1434 1901 1448V1317Q1821 1331 1774 1329H1411V743H1696Q1753 741 1835 756V625Q1757 639 1696 637H1411V-98H1806Q1868 -100 1944 -86V-217Q1868 -203 1804 -205H776Q719 -203 625 -217V-86Q707 -100 766 -98H903V713Q905 811 891 913L1047 893Q1073 891 1075 883Q1077 877 1053 862Q1014 852 1018 719Z" fill="black" stroke="black" stroke-width="2" transform="translate(1914.55078125,0) scale(0.5,-0.5)" /><path d="M71 543 1157 1086V913L415 544L1157 171V0Z" fill="black" stroke="black" stroke-width="2" transform="translate(2914.55078125,0) scale(0.5,-0.5)" /><path d="M227 551V706H1003V551Z" fill="black" stroke="black" stroke-width="2" transform="translate(3514.6484375,0) scale(0.5,-0.5)" /><path d="M1157 543 71 0V173L814 542L71 915V1086Z" fill="black" stroke="black" stroke-width="2" transform="translate(4114.74609375,0) scale(0.5,-0.5)" /><path d="M612 -68H1016V1329H422Q309 1327 238 1321V1456Q348 1446 422 1444H1655Q1735 1446 1833 1456V1321Q1765 1327 1655 1329H1139V784H1522Q1602 786 1696 797V662Q1630 668 1522 670H1139V-68H1763Q1835 -66 1948 -55V-186Q1878 -180 1763 -178H293Q174 -180 104 -186V-55Q221 -66 291 -68H498V778Q496 850 485 956L637 936Q652 931 652 921Q652 912 637 897Q610 883 612 756Z" fill="black" stroke="black" stroke-width="2" transform="translate(4714.84375,0) scale(0.5,-0.5)" /><path d="M924 1206 1098 1178Q1128 1174 1128 1163Q1130 1153 1100 1131Q1053 1077 1049 985Q1053 442 872 193Q698 -74 195 -268Q156 -197 68 -127Q600 -10 774 276Q870 424 905 647Q929 799 929 1005Q929 1100 924 1206ZM434 1499Q528 1485 590 1487H1468Q1536 1485 1622 1499Q1614 1444 1614 1360Q1614 1341 1614 1331V498Q1612 381 1626 307H1487Q1501 369 1499 498V1384H561V471Q559 367 573 299H434Q449 391 446 471V1331Q449 1411 434 1499ZM1069 625 1229 604Q1253 600 1253.0 588.0Q1253 576 1231 559Q1194 541 1196 426V12Q1188 -94 1315 -102Q1370 -109 1475 -109Q1583 -109 1638 -104Q1812 -111 1802 215Q1874 158 1954 147Q1896 -207 1702 -217Q1636 -227 1501 -227Q1362 -229 1266 -219Q1075 -203 1081 -47V422Q1081 516 1069 625Z" fill="black" stroke="black" stroke-width="2" transform="translate(5714.84375,0) scale(0.5,-0.5)" /></g><g transform="scale(0.016,0.016) translate(0, 3500.0)"><path d="M106 -203Q823 156 905 872H342Q274 870 176 860V987Q283 977 342 975H913V1368Q913 1434 901 1561L1055 1540Q1079 1536 1079 1530Q1081 1524 1063 1505Q1032 1462 1028 1352V975H1636Q1698 975 1823 987V860Q1706 870 1636 872H1053Q1284 125 1944 -156Q1870 -190 1796 -283Q1202 125 993 655Q874 137 258 -301Q193 -252 106 -203Z" fill="black" stroke="black" stroke-width="2" transform="translate(914.55078125,0) scale(0.5,-0.5)" /><path d="M63 -92Q939 159 939 1303Q939 1407 932 1516L1110 1485Q1133 1481 1135 1470Q1139 1460 1120 1446Q1087 1413 1079 1360Q1078 1332 1078 1288Q1078 374 1939 -113Q1862 -137 1796 -225Q1217 119 1020 811Q887 104 193 -219Q133 -127 63 -92Z" fill="black" stroke="black" stroke-width="2" transform="translate(1914.55078125,0) scale(0.5,-0.5)" /><path d="M1104 1339H334Q254 1337 150 1323V1458Q240 1444 334 1442H1751Q1847 1444 1939 1458V1323Q1847 1337 1751 1339H1274Q1194 1188 1098 1038V-86Q1098 -158 1114 -283H967Q981 -170 983 -88V875Q705 485 233 227Q166 305 86 354Q705 543 1104 1339ZM1839 252Q1552 563 1237 821L1339 930Q1657 647 1944 363Z" fill="black" stroke="black" stroke-width="2" transform="translate(2914.55078125,0) scale(0.5,-0.5)" /><path d="M426 1030 432 1339Q426 1339 412 1337Q297 1321 172 1307Q160 1358 109 1432Q494 1425 741 1538L829 1399Q836 1389 836 1383Q836 1380 834 1378Q830 1376 826 1376Q820 1376 805 1380Q769 1391 736 1391Q725 1391 709 1389Q602 1370 545 1362L539 1030H635Q692 1028 776 1042V915Q698 928 635 928H537L528 612H592Q666 612 737 625Q729 537 729 469V-31Q729 -90 741 -176H606Q616 -119 618 -70H313V-88Q313 -147 326 -238H190Q203 -154 203 -88V469Q203 532 190 625Q268 612 332 612H418L424 928H250Q186 928 92 915V1042Q190 1030 250 1030ZM313 510V33H618V510ZM1186 1016H993Q936 1016 834 1004V1131Q938 1118 993 1118H1219Q1251 1233 1262 1376H1087Q1024 1376 930 1364V1491Q1020 1479 1087 1479H1659Q1720 1479 1802 1491V1364Q1724 1376 1659 1376H1380Q1360 1223 1335 1118H1774Q1833 1116 1915 1131V1004Q1833 1018 1774 1016H1493Q1638 715 1968 600Q1898 555 1862 475Q1524 678 1378 1016H1307Q1202 754 877 518Q823 578 743 610Q1065 756 1186 1016ZM793 -90Q922 119 938 420L1092 389Q1112 385 1112 377Q1114 369 1096 354Q1061 330 1044 256Q999 64 936 -121Q877 -94 793 -90ZM1069 -303Q1061 -223 1006 -156Q1100 -169 1150 -169Q1176 -169 1186 -166Q1225 -158 1223 -98V532Q1223 606 1210 702L1362 682Q1384 680 1386 670Q1389 662 1368 645Q1335 614 1333 532V-147Q1337 -246 1288 -268Q1249 -297 1069 -303ZM1366 352 1464 397Q1575 182 1665 -78L1556 -129Q1487 113 1366 352ZM1561 432 1665 481Q1794 264 1921 -27L1808 -90Q1718 178 1561 432Z" fill="black" stroke="black" stroke-width="2" transform="translate(3914.55078125,0) scale(0.5,-0.5)" /><path d="M1151 909V1192H1079Q1004 1190 922 1180V1307Q1014 1296 1079 1294H1151V1413Q1149 1493 1139 1602L1296 1581Q1308 1575 1308 1567Q1308 1557 1292 1542Q1264 1538 1266 1403V1294H1526V1425Q1524 1499 1513 1612L1673 1591Q1685 1587 1685 1579Q1685 1569 1669 1552Q1638 1530 1640 1417V1294H1729Q1808 1296 1874 1307V1180Q1802 1190 1729 1192H1640V909H1808Q1878 911 1958 922V795Q1876 805 1810 807H1016Q938 805 856 795V922Q936 911 1016 909ZM1266 1192V909H1526V1192ZM1128 -295H991Q1001 -197 1004 -115V457Q1001 537 991 623Q1096 612 1167 610H1634Q1718 612 1808 623Q1798 526 1796 459V-96Q1798 -174 1808 -279H1669Q1679 -211 1681 -154H1116Q1118 -223 1128 -295ZM1118 -55H1681V168H1118ZM1118 508V270H1681V508ZM338 1186H436V1407Q434 1483 424 1593L580 1573Q594 1568 594 1559Q594 1549 580 1536Q545 1518 547 1399V1186H651Q729 1188 823 1198Q813 1114 811 1040V631Q813 559 823 467Q727 477 651 479H547V125Q666 154 754 176Q721 258 672 363L778 399Q852 248 934 33L819 -23Q809 29 784 84Q360 -33 176 -100L96 39Q199 43 436 100V479H342Q276 477 176 467Q186 553 188 627V1034Q186 1108 176 1198Q272 1188 338 1186ZM299 582H436V1083H299ZM547 1083V582H700V1083Z" fill="black" stroke="black" stroke-width="2" transform="translate(4914.55078125,0) scale(0.5,-0.5)" /><path d="M424 -37Q424 -126 410.0 -188.0Q396 -250 362 -312H272Q346 -192 346 -80H280V93H424Z" fill="black" stroke="black" stroke-width="2" transform="translate(5914.55078125,0) scale(0.5,-0.5)" /><path d="M106 -203Q823 156 905 872H342Q274 870 176 860V987Q283 977 342 975H913V1368Q913 1434 901 1561L1055 1540Q1079 1536 1079 1530Q1081 1524 1063 1505Q1032 1462 1028 1352V975H1636Q1698 975 1823 987V860Q1706 870 1636 872H1053Q1284 125 1944 -156Q1870 -190 1796 -283Q1202 125 993 655Q874 137 258 -301Q193 -252 106 -203Z" fill="black" stroke="black" stroke-width="2" transform="translate(6914.55078125,0) scale(0.5,-0.5)" /><path d="M63 -92Q939 159 939 1303Q939 1407 932 1516L1110 1485Q1133 1481 1135 1470Q1139 1460 1120 1446Q1087 1413 1079 1360Q1078 1332 1078 1288Q1078 374 1939 -113Q1862 -137 1796 -225Q1217 119 1020 811Q887 104 193 -219Q133 -127 63 -92Z" fill="black" stroke="black" stroke-width="2" transform="translate(7914.55078125,0) scale(0.5,-0.5)" /><path d="M426 1030 432 1339Q426 1339 412 1337Q297 1321 172 1307Q160 1358 109 1432Q494 1425 741 1538L829 1399Q836 1389 836 1383Q836 1380 834 1378Q830 1376 826 1376Q820 1376 805 1380Q769 1391 736 1391Q725 1391 709 1389Q602 1370 545 1362L539 1030H635Q692 1028 776 1042V915Q698 928 635 928H537L528 612H592Q666 612 737 625Q729 537 729 469V-31Q729 -90 741 -176H606Q616 -119 618 -70H313V-88Q313 -147 326 -238H190Q203 -154 203 -88V469Q203 532 190 625Q268 612 332 612H418L424 928H250Q186 928 92 915V1042Q190 1030 250 1030ZM313 510V33H618V510ZM1186 1016H993Q936 1016 834 1004V1131Q938 1118 993 1118H1219Q1251 1233 1262 1376H1087Q1024 1376 930 1364V1491Q1020 1479 1087 1479H1659Q1720 1479 1802 1491V1364Q1724 1376 1659 1376H1380Q1360 1223 1335 1118H1774Q1833 1116 1915 1131V1004Q1833 1018 1774 1016H1493Q1638 715 1968 600Q1898 555 1862 475Q1524 678 1378 1016H1307Q1202 754 877 518Q823 578 743 610Q1065 756 1186 1016ZM793 -90Q922 119 938 420L1092 389Q1112 385 1112 377Q1114 369 1096 354Q1061 330 1044 256Q999 64 936 -121Q877 -94 793 -90ZM1069 -303Q1061 -223 1006 -156Q1100 -169 1150 -169Q1176 -169 1186 -166Q1225 -158 1223 -98V532Q1223 606 1210 702L1362 682Q1384 680 1386 670Q1389 662 1368 645Q1335 614 1333 532V-147Q1337 -246 1288 -268Q1249 -297 1069 -303ZM1366 352 1464 397Q1575 182 1665 -78L1556 -129Q1487 113 1366 352ZM1561 432 1665 481Q1794 264 1921 -27L1808 -90Q1718 178 1561 432Z" fill="black" stroke="black" stroke-width="2" transform="translate(8914.55078125,0) scale(0.5,-0.5)" /><path d="M1921 41V-94Q1831 -82 1731 -82H307Q203 -82 113 -94V41Q205 29 299 29H1731Q1812 29 1921 41ZM254 1233V1372Q324 1360 436 1360H1595Q1681 1360 1767 1372V1233Q1679 1245 1597 1245H438Q336 1245 254 1233ZM403 600V739Q487 727 567 727H1423Q1532 727 1622 739V600Q1511 612 1421 612H573Q487 612 403 600Z" fill="black" stroke="black" stroke-width="2" transform="translate(9914.55078125,0) scale(0.5,-0.5)" /><path d="M98 -209Q287 -37 410 217L532 145Q555 131 553 123Q551 113 522 102Q487 88 461 45Q369 -104 238 -276Q190 -229 98 -209ZM399 344Q414 457 412 530V778Q412 848 399 956Q502 944 578 944H897V1411Q897 1470 885 1591L1047 1573Q1071 1569 1073.0 1558.5Q1075 1548 1055 1530Q1014 1487 1012 1391V1311H1622Q1696 1311 1802 1323V1196Q1696 1208 1622 1208H1012V944H1421Q1475 942 1599 956Q1587 852 1587 786V500Q1587 446 1599 344Q1483 356 1415 356H588Q518 358 399 344ZM526 842V459H1473V842ZM666 147 793 186Q870 -25 915 -192L788 -238Q752 -27 666 147ZM1057 160 1174 205Q1274 25 1354 -149L1233 -215Q1169 -20 1057 160ZM1630 248Q1765 47 1898 -188L1776 -266Q1671 -45 1513 176Z" fill="black" stroke="black" stroke-width="2" transform="translate(10914.55078125,0) scale(0.5,-0.5)" /><path d="M1072 -372Q795 -355 605.0 -215.5Q415 -76 301.5 161.0Q188 398 188 636Q188 874 301.5 1111.0Q415 1348 605.0 1487.5Q795 1627 1072 1645V1489Q863 1470 712.5 1348.5Q562 1227 476.0 1039.0Q390 851 390 636Q390 421 476.0 233.0Q562 45 712.5 -76.0Q863 -197 1072 -217Z" fill="black" stroke="black" stroke-width="2" transform="translate(11914.55078125,0) scale(0.5,-0.5)" /><path d="M543 528H391Q315 528 209 516V643Q307 631 391 631H557Q565 758 569 928H408Q342 928 227 915V1042Q332 1030 408 1030H569V1346H389Q313 1346 209 1333V1460Q301 1448 389 1448H903Q1001 1448 1092 1460Q1079 1378 1079 1292V113Q1083 -49 1024 -94Q975 -145 770 -172Q735 -84 684 -8Q771 -18 827 -18Q889 -18 915 -6Q969 12 965 107V528H662Q575 55 264 -203Q195 -149 106 -115Q453 55 543 528ZM672 631H965V928H682Q680 799 672 631ZM684 1346V1030H965V1346ZM1260 1485Q1364 1473 1448 1473H1696Q1782 1473 1868 1485Q1759 1174 1618 834Q1937 596 1933 328Q1939 45 1561 20Q1540 109 1479 195Q1565 162 1634 162Q1678 162 1716 176Q1812 217 1815 326Q1802 596 1481 791Q1614 1077 1696 1370H1386V-109Q1386 -192 1399 -303H1260Q1272 -201 1272 -109V1303Q1272 1384 1260 1485Z" fill="black" stroke="black" stroke-width="2" transform="translate(12514.6484375,0) scale(0.5,-0.5)" /><path d="M59 686Q731 915 967 1591L1116 1522Q1135 1511 1135.0 1505.0Q1135 1499 1112 1485Q1094 1473 1075 1440Q1473 918 1987 745Q1907 690 1843 621Q1309 924 1012 1329Q756 881 213 563Q158 623 59 686ZM1104 723V-149Q1104 -221 1116 -332H969Q981 -221 981 -149V760Q981 827 969 932L1133 911Q1157 909 1159.0 899.0Q1161 889 1141 872Q1104 838 1104 723Z" fill="black" stroke="black" stroke-width="2" transform="translate(13514.6484375,0) scale(0.5,-0.5)" /><path d="M157 1645Q434 1627 624.0 1487.5Q814 1348 927.5 1111.0Q1041 874 1041 636Q1041 398 927.5 161.0Q814 -76 624.0 -215.5Q434 -355 157 -372V-217Q366 -197 516.5 -76.0Q667 45 753.5 233.0Q840 421 840 636Q840 851 753.5 1039.0Q667 1227 516.5 1348.5Q366 1470 157 1489Z" fill="black" stroke="black" stroke-width="2" transform="translate(14514.6484375,0) scale(0.5,-0.5)" /><path d="M74 70Q487 256 702 987H352Q244 987 195 975V1102Q248 1090 356 1090H682Q801 1090 860 1102Q852 1071 834 1014Q813 942 803 909Q657 348 223 -25Q174 23 74 70ZM1096 1423V1208Q1106 1098 1202 915Q1219 926 1253 946Q1602 1151 1724 1300L1874 1161Q1879 1156 1879 1150Q1879 1147 1878 1145Q1872 1137 1860 1139Q1788 1145 1718 1104Q1706 1096 1677 1077Q1444 924 1251 819Q1524 307 1933 102Q1829 51 1778 -10Q1296 358 1096 899V-57Q1100 -170 1036 -201Q975 -238 745 -248Q733 -164 682 -98Q793 -111 853 -111Q905 -111 928 -102Q981 -90 977 -8V1430Q977 1522 965 1581L1122 1556Q1143 1554 1145 1546Q1149 1540 1133 1528Q1094 1501 1096 1423Z" fill="black" stroke="black" stroke-width="2" transform="translate(15114.74609375,0) scale(0.5,-0.5)" /></g><g transform="scale(0.016,0.016) translate(0, 4750.0)"><path d="M82 1001Q297 1225 387 1612L526 1561Q557 1550 555 1544Q559 1540 535 1526Q487 1497 473 1460Q444 1378 395 1272H694Q725 1272 852 1284V1165Q844 1165 768 1171Q700 1178 694 1178H594V819H766Q840 819 924 832V713Q840 725 776 725H594V74L784 90V340Q784 430 772 535L901 514Q932 510 936 502Q940 496 918 477Q893 461 895 406V115Q895 4 907 -76H772Q772 -74 774 -68Q780 -27 782 -2L371 -35Q272 -43 180 -66Q193 4 193 98V377Q193 381 188 422Q180 528 180 557L336 537Q360 535 362 524Q365 516 344 504Q301 483 303 418V51L483 68V725H258Q246 725 100 713V832Q154 819 262 819H483V1178H344Q334 1161 276 1059Q227 971 223 963Q162 985 82 1001ZM688 -221Q1153 -35 1237 549H1053Q977 549 885 537V655Q969 643 1042 643H1243V1106H1114Q1038 1106 952 1094V1212Q1036 1200 1120 1200H1249V1448Q1249 1524 1237 1610L1407 1589Q1425 1587 1430 1575Q1430 1563 1413 1552Q1366 1522 1364 1442V1200H1624Q1700 1200 1800 1212Q1780 1126 1778 1075L1747 647H1833Q1907 645 1968 659V537Q1876 549 1804 549H1358Q1559 16 1995 -172Q1913 -219 1860 -293Q1491 -16 1315 365Q1196 -86 819 -324Q748 -252 688 -221ZM1665 1106H1366L1360 643H1628Z" fill="black" stroke="black" stroke-width="2" transform="translate(914.55078125,0) scale(0.5,-0.5)" /><path d="M545 1368H1649Q1772 1368 1841 1380V1253Q1743 1266 1653 1266H494Q401 1114 207 905Q170 948 90 991Q356 1149 520 1600L664 1542Q682 1536 682.0 1532.0Q682 1528 664 1520Q612 1495 586 1448Q584 1442 575 1427Q557 1387 545 1368ZM328 53H797V223H512Q412 223 358 211V334Q414 322 504 322H797V479H422Q315 479 258 467V590Q307 578 422 578H668Q608 666 500 754L580 827Q659 762 766 643L705 578H975Q1126 741 1167 842H479Q377 842 301 829V956Q354 944 479 944H1460Q1581 944 1655 956Q1632 821 1626 762Q1621 657 1621 561Q1621 151 1716 -29Q1774 -136 1812 -136Q1816 -136 1819 -135Q1855 -119 1851 25Q1907 -12 1976 -35Q1974 -45 1968 -70Q1952 -147 1935 -190Q1898 -293 1843 -309Q1835 -311 1824 -311Q1775 -311 1720 -248Q1585 -98 1540 143Q1516 266 1509 434Q1507 489 1507 568Q1507 696 1513 842H1178L1290 768Q1309 756 1307 750Q1305 741 1280 737Q1233 727 1202 696Q1176 664 1112 594Q1102 584 1098 578H1245Q1341 578 1415 590V467Q1333 479 1245 479H915V322H1128Q1227 322 1303 334V211Q1223 223 1130 223H915V53H1292Q1401 53 1475 66V-57Q1401 -45 1294 -45H915V-162Q915 -266 928 -324H784Q797 -266 797 -164V-45H328Q219 -45 172 -57V66Q223 53 328 53ZM1724 1167V1040Q1651 1053 1548 1053H655Q543 1053 479 1040V1167Q541 1155 657 1155H1548Q1661 1155 1724 1167Z" fill="black" stroke="black" stroke-width="2" transform="translate(1914.55078125,0) scale(0.5,-0.5)" /><path d="M920 858Q1178 1104 1270 1591L1417 1540Q1446 1530 1442 1522Q1442 1511 1409 1487Q1380 1468 1362 1415Q1311 1270 1262 1153H1671Q1745 1153 1843 1165Q1831 1036 1831 954L1821 6Q1823 -160 1737 -219Q1655 -285 1395 -311Q1386 -236 1333 -154Q1406 -161 1464 -161Q1570 -161 1622 -137Q1702 -102 1702 12L1718 1051H1221Q1147 911 1067 788Q991 832 920 858ZM1147 639 1245 721Q1405 555 1567 346L1454 260Q1319 469 1147 639ZM354 -256H223Q236 -131 236 -72V952Q236 1028 223 1155Q303 1143 385 1143Q471 1368 506 1579L651 1540Q682 1532 682 1522Q684 1509 657 1493Q618 1468 600 1411Q551 1274 500 1143H723Q811 1143 909 1155Q897 1032 897 952V-25Q897 -92 909 -195H772Q782 -131 784 -78H342Q342 -147 354 -256ZM346 483V25H786V483ZM346 1040V582H786V1040Z" fill="black" stroke="black" stroke-width="2" transform="translate(2914.55078125,0) scale(0.5,-0.5)" /><path d="M485 788 471 -12Q551 55 735 283Q754 199 786 147Q528 -115 397 -266Q377 -229 293 -137Q350 -84 348 -39L371 829H250Q186 827 86 817V944Q186 932 250 932H317Q375 932 502 944Q487 840 485 788ZM195 1450 281 1546Q451 1413 618 1249L520 1157Q338 1341 195 1450ZM846 1028H1272L1284 1354Q1139 1331 874 1307Q860 1391 813 1446Q896 1439 982 1439Q1357 1439 1726 1581L1812 1458Q1829 1434 1825 1430Q1824 1425 1814 1425Q1806 1425 1798 1427Q1773 1434 1742 1434Q1693 1434 1618 1417Q1540 1401 1419 1378Q1407 1376 1401 1374L1386 1028H1782Q1827 1028 1950 1040V913Q1847 926 1786 926H1384L1372 569H1622Q1669 569 1794 582Q1784 479 1782 414V-109Q1782 -149 1794 -270H1655Q1667 -168 1667 -115H1006V-127Q1006 -180 1018 -291H879Q889 -195 891 -127V410Q891 469 879 582Q995 569 1067 569H1255L1270 926H846Q795 926 682 913V1040Q774 1030 846 1028ZM1006 -16H1667V467H1006Z" fill="black" stroke="black" stroke-width="2" transform="translate(3914.55078125,0) scale(0.5,-0.5)" /><path d="M424 -37Q424 -126 410.0 -188.0Q396 -250 362 -312H272Q346 -192 346 -80H280V93H424Z" fill="black" stroke="black" stroke-width="2" transform="translate(4914.55078125,0) scale(0.5,-0.5)" /><path d="M131 16V135Q219 123 287 123H1022V260H575Q494 260 414 233L373 373Q506 373 678 547H594Q522 547 432 535V653Q520 641 594 641H770Q844 702 911 803H342V735Q342 666 354 576H215Q227 668 227 735V760Q227 823 215 909Q301 897 393 897H1706Q1790 897 1864 909Q1851 832 1851 762V741Q1851 674 1864 582H1724Q1737 668 1737 741V803H975L1042 754Q1065 737 1063.0 729.0Q1061 721 1032 713Q1001 707 967 670Q950 653 932 641H1495Q1573 641 1653 653V535Q1577 547 1495 547H840Q719 442 610 354H1022Q1022 410 1010 489L1149 469Q1169 467 1169 461Q1171 457 1155 440Q1137 424 1137 354H1509Q1610 354 1667 365V248Q1608 260 1509 260H1137V123H1765Q1843 123 1923 135V16Q1841 29 1765 29H1137V-102Q1137 -182 1149 -276H1010Q1022 -184 1022 -102V29H287Q219 29 131 16ZM393 1524Q487 1511 573 1511H1546Q1626 1511 1712 1524Q1700 1438 1700 1368V1147Q1700 1071 1712 991Q1626 1004 1542 1004H573Q489 1004 393 991Q406 1081 406 1155V1358Q406 1436 393 1524ZM520 1210V1098H1585V1210ZM520 1417V1305H1585V1417Z" fill="black" stroke="black" stroke-width="2" transform="translate(5914.55078125,0) scale(0.5,-0.5)" /><path d="M686 -121 623 31Q646 29 678 29Q797 29 973 64V428H854Q784 428 694 416V543Q795 530 854 530H973V616Q973 686 963 791L1118 770Q1131 765 1131 755Q1131 747 1124 737Q1094 692 1087 588V530H1204Q1270 528 1348 543V416Q1264 430 1204 428H1087V80Q1251 104 1419 145Q1397 88 1389 12Q1030 -39 686 -121ZM639 920Q713 940 766 1036Q864 1192 918 1315H827Q762 1315 664 1303V1430Q764 1417 827 1417H1225Q1282 1415 1380 1430V1303Q1292 1315 1225 1315H987L1065 1274Q1079 1266 1077 1257Q1075 1251 1055 1241Q1016 1223 983 1174Q887 1024 809 920L1208 952Q1157 1038 1104 1100L1217 1155Q1327 993 1427 807L1313 731Q1292 786 1260 854Q1204 848 1092 838Q952 825 885 819Q799 811 686 782ZM51 711Q379 1042 514 1587L659 1534Q676 1528 674 1520Q674 1511 655 1501Q633 1489 614 1448Q563 1315 504 1174V-98Q504 -182 516 -291H377Q389 -174 389 -98V948Q317 817 213 653Q145 692 51 711ZM1597 258H1458Q1470 369 1470 428V1088Q1470 1161 1458 1268L1608 1249Q1630 1245 1632 1237Q1632 1227 1612 1208Q1587 1186 1585 1088V428Q1585 360 1597 258ZM1901 1387V-57Q1905 -195 1843 -227Q1790 -266 1546 -274Q1532 -186 1491 -109Q1616 -128 1679 -128Q1718 -128 1737 -121Q1790 -111 1786 -25V1411Q1786 1470 1774 1583L1929 1565Q1950 1561 1950 1552Q1952 1544 1933 1530Q1901 1505 1901 1387Z" fill="black" stroke="black" stroke-width="2" transform="translate(6914.55078125,0) scale(0.5,-0.5)" /><path d="M920 858Q1178 1104 1270 1591L1417 1540Q1446 1530 1442 1522Q1442 1511 1409 1487Q1380 1468 1362 1415Q1311 1270 1262 1153H1671Q1745 1153 1843 1165Q1831 1036 1831 954L1821 6Q1823 -160 1737 -219Q1655 -285 1395 -311Q1386 -236 1333 -154Q1406 -161 1464 -161Q1570 -161 1622 -137Q1702 -102 1702 12L1718 1051H1221Q1147 911 1067 788Q991 832 920 858ZM1147 639 1245 721Q1405 555 1567 346L1454 260Q1319 469 1147 639ZM354 -256H223Q236 -131 236 -72V952Q236 1028 223 1155Q303 1143 385 1143Q471 1368 506 1579L651 1540Q682 1532 682 1522Q684 1509 657 1493Q618 1468 600 1411Q551 1274 500 1143H723Q811 1143 909 1155Q897 1032 897 952V-25Q897 -92 909 -195H772Q782 -131 784 -78H342Q342 -147 354 -256ZM346 483V25H786V483ZM346 1040V582H786V1040Z" fill="black" stroke="black" stroke-width="2" transform="translate(7914.55078125,0) scale(0.5,-0.5)" /><path d="M102 -178Q573 2 934 367Q604 776 442 1268Q401 1268 285 1255V1391Q393 1378 463 1378H1452Q1534 1378 1630 1391Q1425 778 1098 375Q1442 27 1960 -133Q1866 -182 1798 -272Q1325 -29 1018 274Q715 -27 250 -297Q197 -242 102 -178ZM1016 469Q1290 803 1454 1268H578Q729 817 1016 469Z" fill="black" stroke="black" stroke-width="2" transform="translate(8914.55078125,0) scale(0.5,-0.5)" /><path d="M1104 1339H334Q254 1337 150 1323V1458Q240 1444 334 1442H1751Q1847 1444 1939 1458V1323Q1847 1337 1751 1339H1274Q1194 1188 1098 1038V-86Q1098 -158 1114 -283H967Q981 -170 983 -88V875Q705 485 233 227Q166 305 86 354Q705 543 1104 1339ZM1839 252Q1552 563 1237 821L1339 930Q1657 647 1944 363Z" fill="black" stroke="black" stroke-width="2" transform="translate(9914.55078125,0) scale(0.5,-0.5)" /><path d="M106 541V668Q215 655 276 655H1755Q1810 657 1915 668V541Q1812 551 1755 553H1083V305H1511Q1567 307 1669 317V190Q1569 203 1511 203H1083V-100Q1222 -111 1385 -111Q1440 -111 1524 -109Q1788 -100 1956 -78Q1911 -137 1903 -225Q1690 -234 1489 -234Q1361 -234 1268 -231Q791 -248 516 94Q387 -166 238 -313Q176 -250 102 -203Q348 -119 496 422L639 371Q664 363 666.0 354.5Q668 346 645 334Q588 309 565 211Q725 -18 969 -82V553H276Q209 551 106 541ZM1595 1501Q1585 1384 1583 1317V963Q1585 909 1595 788Q1466 801 1397 801H670Q590 801 453 788Q463 909 465 973V1315Q463 1395 453 1501Q571 1491 651 1489H1393Q1460 1489 1595 1501ZM580 1104V899H1468V1104ZM580 1391V1202H1468V1391Z" fill="black" stroke="black" stroke-width="2" transform="translate(10914.55078125,0) scale(0.5,-0.5)" /><path d="M188 512 182 643Q287 635 332 635L580 641Q589 723 589 787Q589 823 586 856L748 829Q780 825 780 815Q782 807 754 782Q715 748 711 688L709 643L979 653Q1071 655 1143 668Q1141 649 1137 608Q1126 526 1126 496Q1126 481 1126 453Q1124 211 1108 -2Q1094 -125 973 -176Q852 -213 754 -215Q743 -125 698 -55Q770 -69 824 -69Q869 -69 907 -59Q975 -31 991 59Q1006 412 1014 551L700 543Q674 -41 268 -315Q221 -250 135 -211Q555 -23 578 541L332 530Q289 528 188 512ZM307 1470Q356 1458 444 1458H952Q1036 1458 1098 1470Q1085 1425 1085 1329V1038Q1085 950 1098 891Q1032 903 952 903H469Q365 903 307 891Q319 961 319 1038V1317Q319 1407 307 1470ZM430 1001H971V1360H430ZM1489 260H1350Q1362 340 1362 430V1116Q1362 1239 1350 1309L1499 1282Q1528 1278 1530 1268Q1534 1260 1513 1245Q1477 1221 1477 1133V432Q1477 332 1489 260ZM1528 -291Q1507 -176 1470 -123Q1587 -131 1602 -131Q1698 -127 1724 -109Q1755 -94 1753 -43V1370Q1753 1483 1741 1565L1892 1538Q1919 1534 1921 1526Q1925 1520 1907 1501Q1870 1460 1868 1389V-78Q1876 -207 1786 -240Q1731 -266 1528 -291Z" fill="black" stroke="black" stroke-width="2" transform="translate(11914.55078125,0) scale(0.5,-0.5)" /><path d="M63 -92Q939 159 939 1303Q939 1407 932 1516L1110 1485Q1133 1481 1135 1470Q1139 1460 1120 1446Q1087 1413 1079 1360Q1078 1332 1078 1288Q1078 374 1939 -113Q1862 -137 1796 -225Q1217 119 1020 811Q887 104 193 -219Q133 -127 63 -92Z" fill="black" stroke="black" stroke-width="2" transform="translate(12914.55078125,0) scale(0.5,-0.5)" /><path d="M920 858Q1178 1104 1270 1591L1417 1540Q1446 1530 1442 1522Q1442 1511 1409 1487Q1380 1468 1362 1415Q1311 1270 1262 1153H1671Q1745 1153 1843 1165Q1831 1036 1831 954L1821 6Q1823 -160 1737 -219Q1655 -285 1395 -311Q1386 -236 1333 -154Q1406 -161 1464 -161Q1570 -161 1622 -137Q1702 -102 1702 12L1718 1051H1221Q1147 911 1067 788Q991 832 920 858ZM1147 639 1245 721Q1405 555 1567 346L1454 260Q1319 469 1147 639ZM354 -256H223Q236 -131 236 -72V952Q236 1028 223 1155Q303 1143 385 1143Q471 1368 506 1579L651 1540Q682 1532 682 1522Q684 1509 657 1493Q618 1468 600 1411Q551 1274 500 1143H723Q811 1143 909 1155Q897 1032 897 952V-25Q897 -92 909 -195H772Q782 -131 784 -78H342Q342 -147 354 -256ZM346 483V25H786V483ZM346 1040V582H786V1040Z" fill="black" stroke="black" stroke-width="2" transform="translate(13914.55078125,0) scale(0.5,-0.5)" /><path d="M252 868H836V1161H483Q420 1159 319 1149V1280Q418 1270 483 1268H836V1387Q834 1468 823 1573L985 1552Q994 1549 994 1541Q994 1532 979 1516Q952 1497 954 1378V1268H1198Q1276 1270 1362 1280V1149Q1276 1159 1198 1161H954V868H1157Q1409 1153 1579 1466L1718 1382Q1739 1370 1739 1360Q1737 1350 1712 1344Q1663 1333 1624 1276Q1448 1030 1311 868H1786Q1862 870 1952 881V750Q1860 760 1788 762H1233Q1049 565 827 379V242Q1350 377 1561 530L1671 391Q1681 379 1681 370Q1681 365 1677.5 359.5Q1674 354 1665 354Q1662 354 1651 356Q1636 359 1623 359Q1575 359 1499 332Q1106 199 827 139V-43Q815 -129 975 -127Q1114 -129 1224 -129Q1334 -129 1415 -127Q1556 -123 1596.5 -80.5Q1637 -38 1637 43Q1637 70 1632 109Q1692 53 1778 37Q1735 -127 1673 -180Q1618 -238 1477 -242Q1341 -248 1169 -250Q1001 -250 905 -246Q698 -242 709 -86V283Q483 117 197 -53Q160 20 72 72Q365 172 707 436Q705 498 694 567L846 551Q967 651 1071 762H252Q184 760 86 750V881Q180 870 252 868Z" fill="black" stroke="black" stroke-width="2" transform="translate(14914.55078125,0) scale(0.5,-0.5)" /><path d="M926 401H1780Q1845 399 1917 414V287Q1833 301 1774 299H1434Q1325 145 1192 23Q1493 -76 1745 -174Q1696 -238 1669 -297Q1436 -172 1077 -59Q819 -225 348 -295Q332 -213 262 -158Q635 -158 932 -18Q760 31 551 78Q639 164 733 299H264Q201 301 129 287V414Q180 399 268 401H795Q827 449 895 565L1004 494Q1024 481 1022 473Q1020 467 995 467Q981 469 965 446Q944 418 926 401ZM756 141Q782 135 838 119Q997 76 1057 59Q1196 168 1286 299H864Q788 186 756 141ZM221 1120 274 1223Q420 1163 586 1081L530 979Q371 1059 221 1120ZM635 991 696 879Q459 600 385 487L279 592Q432 696 635 991ZM367 1436 436 1532Q569 1452 725 1337L655 1237Q487 1372 367 1436ZM621 571Q852 700 840 1073V1251Q842 1315 827 1382Q909 1368 969 1370H1266V1415Q1268 1485 1253 1575L1409 1554Q1430 1552 1432 1544Q1432 1536 1411 1524Q1372 1511 1376 1389V1370H1696Q1757 1368 1841 1382Q1767 1257 1696 1104Q1634 1126 1575 1135Q1616 1192 1657 1268H1376V1055H1587Q1657 1053 1729 1067Q1599 850 1440 709Q1618 619 1858 612Q1796 551 1776 485Q1554 532 1358 637Q1247 555 1061 473Q1020 551 971 594Q1153 627 1266 700Q1130 803 1018 952H950Q944 733 758 514Q702 551 621 571ZM950 1268V1055H1266V1268ZM1528 952H1151Q1233 844 1352 768Q1454 850 1528 952Z" fill="black" stroke="black" stroke-width="2" transform="translate(15914.55078125,0) scale(0.5,-0.5)" /></g><g transform="scale(0.016,0.016) translate(0, 7000.0)"><path d="M94 766Q233 774 477 844V1339H377Q297 1339 193 1327V1454Q305 1442 377 1442H688Q772 1442 864 1454V1327Q772 1339 688 1339H592V866Q731 899 877 948Q850 881 840 807Q522 743 158 625ZM119 -104Q281 66 358 365L506 287Q524 276 520 266Q518 256 494 248Q463 238 444 197Q367 29 252 -182Q195 -139 119 -104ZM1430 137Q1487 90 1565 70Q1509 -236 1286 -229Q1206 -238 1055 -240Q893 -240 821 -233Q645 -227 653 -18V170Q653 258 641 371L807 346Q827 342 829 330Q827 317 807 305Q768 281 768 170V-8Q766 -76 782 -88Q795 -106 866 -113Q952 -123 1077 -121Q1200 -121 1268 -111Q1362 -98 1393.5 -49.0Q1425 0 1430 137ZM946 1499Q1044 1487 1120 1487H1446Q1538 1487 1618 1499Q1606 1423 1604 1348L1585 745Q1584 736 1584 723Q1584 653 1645 653Q1666 650 1686 650Q1722 650 1757 659Q1837 666 1831 891Q1892 852 1974 827Q1933 518 1776 526Q1742 522 1700 522Q1657 522 1606 526Q1452 537 1464 692L1487 1384H1073V1169Q1081 729 797 436Q737 487 662 520Q967 709 958 1167V1337Q958 1413 946 1499ZM907 422 1012 504Q1147 379 1257 252L1151 166Q1055 287 907 422ZM1204 1190Q1331 1038 1423 899L1313 819Q1225 969 1098 1114ZM1497 334 1602 414Q1778 203 1917 8L1796 -78Q1675 129 1497 334Z" fill="black" stroke="black" stroke-width="2" transform="translate(914.55078125,0) scale(0.5,-0.5)" /><path d="M131 -207Q772 176 811 979H301Q246 981 164 967V1098Q240 1083 301 1085H821Q825 1207 825 1278Q825 1323 823 1378Q821 1485 809 1561L977 1538Q999 1536 999 1530Q999 1522 981 1501Q956 1473 954 1417Q954 1210 946 1085H1761Q1815 1083 1890 1098V967Q1810 979 1763 979H1247V311Q1520 668 1552 885L1708 819Q1731 809 1729 799Q1724 788 1698 780Q1659 768 1626 702Q1462 360 1247 137V-80Q1243 -137 1286 -147Q1325 -162 1505 -162Q1647 -164 1700 -109Q1757 -61 1761 80Q1810 33 1898 -25Q1829 -184 1755 -227Q1686 -276 1507 -274Q1255 -276 1192 -246Q1122 -221 1128 -113V39Q1012 -61 842 -166Q776 -94 713 -49Q907 10 1128 195V979H938Q918 240 276 -311Q215 -248 131 -207ZM1223 1409 1311 1509Q1491 1376 1683 1208L1581 1106Q1419 1280 1223 1409Z" fill="black" stroke="black" stroke-width="2" transform="translate(1914.55078125,0) scale(0.5,-0.5)" /><path d="M350 -137H215Q225 -29 227 47V1200Q225 1278 215 1393Q334 1380 410 1380H639Q711 1380 840 1393Q829 1292 827 1200V96Q829 23 840 -92H709Q717 2 717 45H338Q340 -14 350 -137ZM338 1278V793H717V1278ZM338 690V147H717V690ZM1638 1407V1061H1778Q1841 1063 1937 1073V946Q1829 958 1778 958H1638V-45Q1640 -170 1569 -213Q1503 -260 1286 -276Q1266 -192 1206 -98Q1334 -117 1402 -117Q1446 -117 1466 -109Q1528 -92 1524 6V958H1065Q1001 956 897 946V1073Q995 1063 1065 1061H1524V1407Q1524 1464 1511 1581L1669 1556Q1690 1554 1690 1546Q1692 1540 1675 1528Q1640 1501 1638 1407ZM1108 782Q1212 606 1331 395L1212 324Q1114 535 997 723Z" fill="black" stroke="black" stroke-width="2" transform="translate(2914.55078125,0) scale(0.5,-0.5)" /><path d="M59 684Q444 1018 635 1591L780 1516Q803 1505 801 1499Q801 1491 776 1481Q741 1466 700 1389Q672 1333 616 1229Q580 1157 563 1126V-109Q563 -166 575 -301H440Q451 -178 453 -109V950Q334 764 201 604Q131 653 59 684ZM655 657 629 791Q770 795 815 805L1118 856Q1083 1196 1081 1391Q1081 1436 1073 1540Q1071 1556 1071 1565L1225 1542Q1255 1538 1255 1532Q1260 1526 1239 1503Q1196 1462 1200 1384Q1206 1069 1235 875Q1671 938 1907 1016L1933 881Q1731 856 1245 772Q1309 135 1665 -84Q1712 -116 1746 -116Q1796 -116 1817 -45Q1829 -10 1843 100Q1882 35 1987 25Q1950 -92 1921 -154Q1880 -271 1788 -271Q1720 -271 1622 -205Q1214 29 1128 754L815 696Q811 696 655 657ZM1348 1415 1454 1501Q1569 1376 1735 1165L1632 1073Q1475 1292 1348 1415Z" fill="black" stroke="black" stroke-width="2" transform="translate(3914.55078125,0) scale(0.5,-0.5)" /><path d="M799 143Q780 82 784 8Q367 -115 164 -213Q139 -129 106 -55Q381 -16 799 143ZM434 1581 584 1511Q618 1497 616 1485Q616 1473 580 1464Q535 1454 500 1384Q397 1167 262 952Q305 952 399 956Q498 961 543 961Q633 1120 682 1264L817 1182Q848 1163 848 1157Q850 1149 819 1137Q774 1114 737 1047Q592 776 383 457Q610 475 807 528Q788 471 788 397Q455 354 229 303Q215 387 184 442Q258 459 311 539Q444 733 506 862Q289 854 160 829Q154 848 111 954Q170 991 195 1038Q342 1290 434 1581ZM1047 1212H1319V1395Q1319 1481 1307 1583L1473 1563Q1513 1561 1513 1548Q1518 1538 1483 1513Q1434 1479 1434 1393V1212H1774Q1860 1212 1942 1225V1098Q1860 1110 1774 1110H1434V782H1673Q1761 782 1841 795V668Q1753 680 1673 680H1085Q999 680 918 668V795Q997 782 1085 782H1319V1110H1047Q961 1110 881 1098V1225Q954 1212 1047 1212ZM956 461Q1012 449 1126 449H1636Q1739 449 1806 461Q1794 385 1794 305V-119Q1794 -205 1808 -276H1667Q1683 -211 1679 -143H1083Q1083 -236 1092 -285H958Q969 -205 969 -131V297Q969 399 956 461ZM1083 -45H1679V346H1083Z" fill="black" stroke="black" stroke-width="2" transform="translate(4914.55078125,0) scale(0.5,-0.5)" /><path d="M123 -88Q541 76 856 500H612Q547 500 420 487Q430 602 432 664V844Q430 911 420 1018Q537 1006 598 1006H981V1204H317Q260 1204 154 1192V1319Q168 1317 203 1315Q291 1307 317 1307H981V1395Q979 1456 969 1577L1122 1556Q1143 1554 1145 1546Q1145 1540 1128 1528Q1094 1507 1096 1393V1307H1745Q1815 1309 1913 1319V1192Q1817 1202 1749 1204H1096V1006H1481Q1532 1006 1679 1018Q1669 918 1667 842V649Q1669 596 1679 487Q1546 500 1491 500H1227Q1516 109 1958 -27Q1864 -80 1829 -147Q1380 78 1096 500V-147Q1098 -213 1108 -317H969Q979 -215 981 -147V459Q680 57 240 -195Q193 -117 123 -88ZM543 903V602H981V903ZM1096 602H1552V903H1096Z" fill="black" stroke="black" stroke-width="2" transform="translate(5914.55078125,0) scale(0.5,-0.5)" /><path d="M1497 1325H438Q373 1327 264 1313V1444Q360 1430 434 1432H1595Q1681 1430 1780 1444Q1421 1030 1102 850V-4Q1108 -168 1034 -211Q971 -260 700 -276Q698 -213 635 -96Q770 -125 849 -125Q891 -125 915 -117Q987 -96 983 14V913Q1298 1083 1497 1325Z" fill="black" stroke="black" stroke-width="2" transform="translate(6914.55078125,0) scale(0.5,-0.5)" /><path d="M424 -37Q424 -126 410.0 -188.0Q396 -250 362 -312H272Q346 -192 346 -80H280V93H424Z" fill="black" stroke="black" stroke-width="2" transform="translate(7914.55078125,0) scale(0.5,-0.5)" /><path d="M1307 434 1477 379Q1497 373 1495 358Q1491 344 1464 332Q1423 307 1399 262Q1292 53 1206 -88H1718Q1792 -88 1921 -80V-203Q1804 -190 1724 -190H334Q238 -188 129 -203V-80Q240 -88 338 -88H1075Q1245 160 1307 434ZM193 1321V1448Q279 1434 371 1436H1634Q1698 1436 1812 1448V1321Q1698 1333 1634 1333H365Q289 1335 193 1321ZM422 1083Q489 1075 528 1073Q569 1071 633 1071H1405Q1470 1069 1599 1083Q1591 1020 1589 989Q1587 954 1587 903V694Q1587 614 1599 469Q1415 481 1337 481H651Q557 483 424 465Q434 594 434 678V875Q434 963 422 1083ZM549 584H1473V969H549ZM672 424Q807 223 913 39L793 -43Q690 201 563 352Z" fill="black" stroke="black" stroke-width="2" transform="translate(8914.55078125,0) scale(0.5,-0.5)" /><path d="M231 -127Q285 -100 293 -78Q307 -55 305 25V1233Q305 1348 293 1411L444 1395Q471 1391 473.0 1382.5Q475 1374 455 1356Q420 1325 420 1229V852H770Q870 852 930 864V737Q854 750 770 750H420V-49Q440 -39 481 -20Q741 94 895 211Q881 117 881 39Q483 -160 434.0 -186.5Q385 -213 303 -274Q254 -170 231 -127ZM1223 1341V803Q1577 973 1698 1114L1821 987Q1847 961 1843.0 948.5Q1839 936 1804 938Q1722 942 1628 883Q1495 793 1223 680V-23Q1214 -123 1327 -123Q1333 -123 1346 -123Q1424 -127 1481 -127Q1577 -127 1638 -117Q1741 -94 1772 29Q1782 88 1782 207Q1841 152 1944 121Q1913 4 1884 -80Q1825 -211 1681 -242Q1575 -255 1473 -255Q1363 -255 1239 -240Q1108 -221 1108 -33V1341Q1108 1446 1096 1518L1247 1501Q1276 1499 1278.0 1489.0Q1280 1479 1257 1460Q1223 1430 1223 1341Z" fill="black" stroke="black" stroke-width="2" transform="translate(9914.55078125,0) scale(0.5,-0.5)" /><path d="M350 -137H215Q225 -29 227 47V1200Q225 1278 215 1393Q334 1380 410 1380H639Q711 1380 840 1393Q829 1292 827 1200V96Q829 23 840 -92H709Q717 2 717 45H338Q340 -14 350 -137ZM338 1278V793H717V1278ZM338 690V147H717V690ZM1638 1407V1061H1778Q1841 1063 1937 1073V946Q1829 958 1778 958H1638V-45Q1640 -170 1569 -213Q1503 -260 1286 -276Q1266 -192 1206 -98Q1334 -117 1402 -117Q1446 -117 1466 -109Q1528 -92 1524 6V958H1065Q1001 956 897 946V1073Q995 1063 1065 1061H1524V1407Q1524 1464 1511 1581L1669 1556Q1690 1554 1690 1546Q1692 1540 1675 1528Q1640 1501 1638 1407ZM1108 782Q1212 606 1331 395L1212 324Q1114 535 997 723Z" fill="black" stroke="black" stroke-width="2" transform="translate(10914.55078125,0) scale(0.5,-0.5)" /><path d="M59 684Q444 1018 635 1591L780 1516Q803 1505 801 1499Q801 1491 776 1481Q741 1466 700 1389Q672 1333 616 1229Q580 1157 563 1126V-109Q563 -166 575 -301H440Q451 -178 453 -109V950Q334 764 201 604Q131 653 59 684ZM655 657 629 791Q770 795 815 805L1118 856Q1083 1196 1081 1391Q1081 1436 1073 1540Q1071 1556 1071 1565L1225 1542Q1255 1538 1255 1532Q1260 1526 1239 1503Q1196 1462 1200 1384Q1206 1069 1235 875Q1671 938 1907 1016L1933 881Q1731 856 1245 772Q1309 135 1665 -84Q1712 -116 1746 -116Q1796 -116 1817 -45Q1829 -10 1843 100Q1882 35 1987 25Q1950 -92 1921 -154Q1880 -271 1788 -271Q1720 -271 1622 -205Q1214 29 1128 754L815 696Q811 696 655 657ZM1348 1415 1454 1501Q1569 1376 1735 1165L1632 1073Q1475 1292 1348 1415Z" fill="black" stroke="black" stroke-width="2" transform="translate(11914.55078125,0) scale(0.5,-0.5)" /><path d="M283 1323V1454Q375 1442 446 1442H1638Q1726 1442 1798 1454V1323Q1716 1335 1638 1335H1436V752H1747Q1835 752 1939 764V633Q1841 645 1747 645H1436V-63Q1436 -143 1448 -254H1305Q1317 -152 1317 -63V645H766Q774 129 317 -272Q233 -213 160 -182Q637 102 645 645H307Q221 645 133 633V764Q225 752 307 752H655Q664 801 664 875V1335H446Q371 1335 283 1323ZM778 1335V752H1317V1335Z" fill="black" stroke="black" stroke-width="2" transform="translate(12914.55078125,0) scale(0.5,-0.5)" /><path d="M135 940 129 1069Q233 1055 276 1057L367 1061Q408 1335 420 1563L608 1505Q623 1501 621 1493Q616 1485 598 1477Q539 1464 528 1360L485 1061L678 1067Q752 1069 844 1081Q827 993 815 887Q766 453 647 207Q803 76 877 8Q834 -35 778 -96Q692 10 588 102Q426 -131 242 -287Q186 -221 102 -190Q377 -37 492 182Q381 301 199 406Q268 567 350 961L285 956Q217 952 135 940ZM350 449Q469 356 549 287Q670 524 707 965L467 961Q399 625 350 449ZM893 932Q969 950 1059 1090Q1247 1411 1305 1597L1470 1528Q1491 1520 1489 1511Q1485 1501 1458 1497Q1405 1491 1354 1393Q1149 1016 1067 922Q1210 926 1489 938Q1632 944 1712 948Q1626 1071 1526 1202L1628 1272Q1782 1079 1948 821L1833 743L1769 858Q1534 850 1243 823Q1016 805 946 782Q924 875 893 932ZM1790 -287H1651Q1659 -215 1663 -131H1118Q1122 -225 1130 -297H995Q1006 -205 1008 -129V401Q1006 481 995 588Q1124 576 1194 576H1585Q1653 576 1790 588Q1778 459 1778 403V-123Q1780 -184 1790 -287ZM1118 473V-33H1663V473Z" fill="black" stroke="black" stroke-width="2" transform="translate(13914.55078125,0) scale(0.5,-0.5)" /><path d="M1497 1325H438Q373 1327 264 1313V1444Q360 1430 434 1432H1595Q1681 1430 1780 1444Q1421 1030 1102 850V-4Q1108 -168 1034 -211Q971 -260 700 -276Q698 -213 635 -96Q770 -125 849 -125Q891 -125 915 -117Q987 -96 983 14V913Q1298 1083 1497 1325Z" fill="black" stroke="black" stroke-width="2" transform="translate(14914.55078125,0) scale(0.5,-0.5)" /></g><g transform="scale(0.016,0.016) translate(0, 9250.0)"><path d="M713 1047V1241H461Q395 1239 293 1229V1356Q397 1346 461 1344H713V1405Q711 1473 700 1591L854 1571Q879 1569 881.0 1559.5Q883 1550 860 1534Q823 1509 823 1403V1344H1249V1405Q1249 1477 1237 1591L1393 1571Q1417 1569 1419.0 1560.5Q1421 1552 1401 1536Q1360 1505 1360 1403V1344H1583Q1651 1346 1751 1356V1229Q1642 1241 1587 1241H1360V1047H1759Q1821 1047 1927 1059V932Q1817 944 1763 944H1083V776H1479Q1540 776 1673 788Q1663 692 1661 616V262Q1663 203 1673 96Q1546 109 1489 109H1331Q1534 8 1849 -178L1782 -293Q1536 -119 1233 16L1296 109H782L866 33Q895 8 891 -2Q889 -10 852 -12Q809 -12 741 -57Q489 -207 305 -307Q262 -244 195 -201Q545 -94 743 109H610Q555 109 426 96Q436 209 438 272V610Q438 676 426 788Q535 778 608 776H969V944H293Q238 944 129 932V1059Q233 1049 293 1047ZM549 397V211H969V397ZM549 674V500H969V674ZM1249 1241H823V1047H1249ZM1083 211H1546V397H1083ZM1083 674V500H1546V674Z" fill="black" stroke="black" stroke-width="2" transform="translate(914.55078125,0) scale(0.5,-0.5)" /><path d="M748 881 827 977Q870 911 983 844Q1087 924 1190 1051H807Q690 909 590 807Q532 862 459 897Q717 1030 827 1325L958 1282Q979 1276 979.0 1268.0Q979 1260 958 1249Q930 1237 868 1153H1231Q1309 1155 1421 1165Q1278 961 1083 784Q1339 633 1628 592Q1554 518 1526 455Q1268 551 999 705Q821 571 498 438Q444 514 387 555Q684 625 895 776Q817 827 748 881ZM739 231 793 338Q1073 223 1341 86L1278 -16Q1024 135 739 231ZM856 489 907 582Q1102 496 1272 403L1219 301Q1069 397 856 489ZM371 -303H231Q242 -197 244 -119V1278Q242 1362 231 1460Q340 1450 422 1448H1640Q1720 1450 1829 1460Q1819 1358 1817 1282V-80Q1819 -145 1829 -262H1690Q1700 -201 1702 -145H358Q360 -215 371 -303ZM358 -47H1702V1346H358Z" fill="black" stroke="black" stroke-width="2" transform="translate(1914.55078125,0) scale(0.5,-0.5)" /><path d="M342 1509 492 1489Q505 1484 505 1474Q505 1463 489 1446Q463 1427 465 1311V1010Q467 934 477 840H342Q352 932 354 1010V1323Q352 1399 342 1509ZM866 1018Q1075 1174 1198 1587L1346 1536Q1364 1530 1362.0 1518.5Q1360 1507 1339 1499Q1298 1485 1272 1419Q1251 1368 1231 1327H1741Q1817 1329 1896 1339V1217Q1808 1227 1741 1229H1192Q1104 1075 1014 948Q956 991 866 1018ZM1292 1049 1370 1151Q1597 1016 1765 899L1694 784Q1532 922 1292 1049ZM98 -160Q606 -119 750 51Q885 193 905 565L1061 535Q1085 530 1087 520Q1090 508 1067 492Q1034 469 1020 395Q969 -197 211 -301Q174 -217 98 -160ZM1061 371 1204 350Q1221 345 1221 335Q1221 325 1204 309Q1182 301 1184 180V-33Q1182 -88 1225 -104Q1268 -123 1417 -127Q1449 -128 1491 -128Q1678 -128 1724 -92Q1790 -59 1790 117Q1847 45 1935 31Q1874 -166 1796 -201Q1731 -246 1444 -246Q1200 -248 1137 -213Q1069 -184 1073 -63V188Q1071 266 1061 371ZM565 84H430Q440 174 442 250V563Q438 649 430 737Q532 727 610 725H1427Q1511 727 1602 737Q1591 645 1589 567V264Q1591 186 1602 94H1466Q1477 188 1479 264V627H553V250Q555 186 565 84ZM723 1575 877 1554Q889 1548 889 1539Q889 1527 872 1509Q844 1487 846 1378V985Q848 903 858 813H723Q733 909 735 985V1391Q733 1464 723 1575Z" fill="black" stroke="black" stroke-width="2" transform="translate(2914.55078125,0) scale(0.5,-0.5)" /><path d="M123 1280V1423Q215 1409 301 1407H1747Q1829 1409 1921 1423V1280Q1829 1292 1747 1296H918Q905 1079 891 895H1468Q1565 899 1657 911Q1642 813 1634 725L1599 209Q1585 -72 1497 -131Q1421 -207 1108 -203Q1100 -123 1044 -25Q1212 -60 1301 -60Q1363 -60 1389 -43Q1464 -16 1473 193L1516 784H881Q805 111 317 -244Q250 -182 158 -139Q809 145 784 1296H301Q219 1294 123 1280Z" fill="black" stroke="black" stroke-width="2" transform="translate(3914.55078125,0) scale(0.5,-0.5)" /><path d="M61 270Q440 395 690 709H262Q195 709 102 696V823Q193 811 262 811H750Q801 895 831 995H418Q350 995 254 983V1110Q350 1098 418 1098H858Q918 1323 915 1575L1079 1544Q1106 1540 1106 1532Q1108 1524 1083 1503Q1044 1470 1034 1395Q1010 1217 983 1098H1606Q1683 1098 1780 1110V983Q1677 997 1606 995H958Q928 897 885 811H1731Q1808 811 1905 823V696Q1804 711 1737 709H1378Q1552 430 1978 346Q1915 287 1880 211Q1612 317 1458 449Q1456 422 1450 352Q1442 254 1438 211Q1434 25 1065 20Q1059 90 1010 160Q1069 154 1125 154Q1317 154 1319 246Q1327 297 1333 387H702V-80Q700 -91 700 -97Q700 -187 909 -180H1333Q1468 -182 1516 -125Q1569 -72 1585 98Q1649 41 1731 25Q1659 -176 1589 -227Q1524 -287 1346 -283H852Q696 -283 643 -246Q586 -211 588 -106V289Q588 342 575 418Q416 289 180 152Q137 215 61 270ZM659 502Q733 489 795 489H1255Q1329 489 1397 502Q1313 592 1241 709H834Q760 604 659 502ZM397 1405 494 1489Q639 1352 752 1214L649 1124Q537 1276 397 1405ZM1204 1169Q1350 1339 1425 1509L1546 1440Q1573 1425 1573 1413Q1571 1403 1542 1395Q1503 1384 1473 1337Q1399 1227 1309 1108Z" fill="black" stroke="black" stroke-width="2" transform="translate(4914.55078125,0) scale(0.5,-0.5)" /><path d="M424 -37Q424 -126 410.0 -188.0Q396 -250 362 -312H272Q346 -192 346 -80H280V93H424Z" fill="black" stroke="black" stroke-width="2" transform="translate(5914.55078125,0) scale(0.5,-0.5)" /><path d="M78 129Q164 137 272 162V1233Q274 1348 260 1450Q485 1464 799 1602L901 1479Q919 1458 919 1450Q919 1449 917.5 1446.5Q916 1444 911 1444Q904 1444 881 1448Q866 1451 851 1451Q819 1451 768 1440Q614 1409 387 1368V1057H647Q705 1055 799 1069V942Q698 954 643 954H387V655H633Q690 653 799 668V541Q688 555 635 553H387V184Q713 256 881 324L866 184Q623 131 387 66V-100Q387 -182 399 -293H260Q272 -174 272 -92V25Q197 0 133 -27ZM1286 141Q1137 328 1034 578Q981 578 897 565V694Q997 680 1063 682H1602Q1675 680 1782 694Q1640 387 1448 141Q1688 -57 1968 -147Q1878 -217 1853 -276Q1542 -109 1372 61Q1135 -154 813 -287Q782 -215 707 -158Q1034 -100 1286 141ZM1583 580H1155Q1227 391 1364 223Q1499 379 1583 580ZM823 875Q1081 943 1081 1336Q1081 1422 1069 1522Q1165 1509 1225 1509H1501Q1554 1509 1647 1522Q1632 1446 1634 1378V1051Q1625 951 1749 951Q1818 951 1931 983Q1898 895 1890 834Q1819 828 1755 828Q1640 828 1593 852Q1518 885 1520 1012V1407H1200Q1196 1143 1145 1026Q1096 897 944 768Q903 829 823 875Z" fill="black" stroke="black" stroke-width="2" transform="translate(6914.55078125,0) scale(0.5,-0.5)" /><path d="M135 647V778Q207 766 287 766H967V858Q967 907 954 975Q1300 1200 1462 1387H506Q432 1387 340 1374V1505Q412 1493 500 1493H1534Q1618 1493 1747 1505Q1530 1255 1090 913V766H1761Q1845 766 1915 778V647Q1839 659 1763 659H1090V-49Q1094 -195 1026 -236Q965 -283 733 -295Q719 -211 664 -129Q772 -143 836 -143Q896 -143 918 -131Q971 -117 967 -6V659H285Q203 659 135 647Z" fill="black" stroke="black" stroke-width="2" transform="translate(7914.55078125,0) scale(0.5,-0.5)" /><path d="M449 1016V1139Q541 1126 606 1126H1436Q1503 1124 1597 1139V1016Q1495 1028 1436 1028H606Q545 1028 449 1016ZM893 1612Q1083 1505 1206 1411L1161 1356H1679Q1747 1354 1849 1368Q1837 1268 1837 1208V1178Q1837 1120 1849 1016H1710Q1722 1120 1722 1178V1253H336V1163Q336 1102 348 1001H209Q221 1104 221 1163V1202Q221 1253 209 1368Q309 1356 377 1356H1077Q987 1423 819 1511ZM326 467Q430 455 496 455H1550Q1610 455 1710 467Q1698 371 1698 301V-141Q1698 -201 1710 -305H1571Q1579 -244 1583 -182H449Q451 -246 461 -322H326Q340 -233 338 -160V295Q338 354 326 467ZM453 82V-84H967V82ZM453 356V180H967V356ZM1583 -84V82H1081V-84ZM1081 356V180H1583V356ZM498 559Q510 655 510 727V770Q510 836 498 932Q596 920 662 920H1382Q1448 918 1544 932Q1532 834 1532 770V727Q1530 664 1544 559Q1450 571 1382 571H662Q592 571 498 559ZM625 821V670H1417V821Z" fill="black" stroke="black" stroke-width="2" transform="translate(8914.55078125,0) scale(0.5,-0.5)" /><path d="M289 1384Q399 1377 507 1377Q1086 1377 1573 1581L1665 1456Q1681 1434 1677.0 1427.5Q1673 1421 1645 1423Q1597 1427 1522 1407Q1382 1370 1083 1315V731H1700Q1782 731 1901 748V612Q1784 629 1700 629H1083V-100Q1083 -168 1100 -291H948Q965 -178 965 -100V629H328Q246 629 147 612V748Q246 731 328 731H965V1294Q680 1251 369 1227Q346 1313 289 1384Z" fill="black" stroke="black" stroke-width="2" transform="translate(9914.55078125,0) scale(0.5,-0.5)" /><path d="M1028 227V584H641Q530 584 440 567L395 694Q402 691 409 691Q503 691 717 1157H338Q268 1157 178 1145V1272Q268 1260 338 1260H768Q844 1419 899 1606L1055 1548Q1083 1538 1083.0 1532.0Q1083 1526 1055 1513Q1022 1499 999 1454Q983 1421 948 1354Q913 1290 899 1260H1665Q1751 1260 1827 1272V1145Q1743 1157 1665 1157H848Q698 866 592 686H1028V815Q1028 903 1016 1026L1171 1001Q1198 997 1198.0 985.0Q1198 973 1174 954Q1155 942 1151 918Q1147 897 1147 815V686H1509Q1593 686 1679 698V571Q1593 584 1509 584H1147V227H1761Q1845 227 1921 240V113Q1847 125 1761 125H1147V-131Q1147 -219 1159 -319H1016Q1028 -229 1028 -131V125H295Q211 125 123 113V240Q213 227 295 227Z" fill="black" stroke="black" stroke-width="2" transform="translate(10914.55078125,0) scale(0.5,-0.5)" /><path d="M512 217Q346 195 323 29Q346 -132 512 -155Q680 -132 703 29Q680 195 512 217ZM512 281Q744 258 766 29Q742 -194 512 -219Q284 -194 260 29Q284 258 512 281Z" fill="black" stroke="black" stroke-width="2" transform="translate(11914.55078125,0) scale(0.5,-0.5)" /><path d="M1784 1204Q1772 1116 1772 1028V2Q1778 -178 1700 -225Q1634 -281 1352 -301Q1329 -209 1288 -121Q1402 -129 1469 -129Q1564 -129 1593 -115Q1655 -100 1649 10V1081H1085Q1075 954 1061 838Q1309 559 1526 279L1389 170Q1249 401 1022 682Q905 324 610 109Q551 164 469 223Q922 408 961 1081H401V-92Q401 -174 414 -279H270Q283 -192 283 -92V1030Q283 1116 270 1204Q369 1192 459 1192H963Q963 1354 961 1423Q956 1499 948 1569L1114 1554Q1153 1552 1153 1540Q1155 1530 1124 1501Q1085 1470 1087 1384Q1087 1284 1087 1192H1591Q1681 1192 1784 1204Z" fill="black" stroke="black" stroke-width="2" transform="translate(12914.55078125,0) scale(0.5,-0.5)" /><path d="M123 924 195 1022Q373 907 498 803L422 692Q289 817 123 924ZM158 -192Q330 156 444 557Q487 489 547 442Q375 4 301 -254ZM387 1540Q528 1434 688 1292L594 1190Q451 1348 297 1448ZM797 770V-51L1749 -8V797Q1747 881 1737 987L1896 967Q1905 962 1905 955Q1905 944 1890 930Q1862 913 1864 786V-102Q1866 -182 1876 -283H1737Q1747 -190 1749 -104L868 -147Q782 -154 670 -170Q680 -66 682 8V784Q680 870 670 973L825 952Q835 948 835 940Q835 929 817 911Q795 905 797 770ZM1321 1106V793Q1483 963 1595 1159L1718 1081Q1735 1071 1731 1059Q1726 1049 1706 1049Q1669 1042 1634 1001Q1532 877 1419 754Q1554 584 1720 358L1599 285Q1485 508 1321 705V260Q1323 133 1280 100Q1241 59 1077 45Q1063 111 1018 186Q1086 180 1127 180Q1168 180 1182 186Q1214 195 1210 256V588Q1038 430 918 287L825 418Q1024 553 1210 709V999Q1208 1075 1198 1167Q1341 1243 1507 1395H903Q829 1393 735 1382V1509Q829 1499 903 1497H1602Q1696 1499 1806 1509Q1585 1298 1321 1106ZM844 1053 928 1122Q1040 999 1171 846L1077 762Q971 922 844 1053Z" fill="black" stroke="black" stroke-width="2" transform="translate(13914.55078125,0) scale(0.5,-0.5)" /><path d="M295 850H874Q903 1036 913 1317H469Q418 1319 342 1305V1436Q406 1421 467 1423H1622Q1679 1421 1749 1436V1305Q1686 1319 1626 1317H1034Q1028 1049 999 850H1780Q1835 848 1907 862V731Q1833 745 1778 743H1202V18Q1198 -61 1243 -74Q1278 -92 1466 -90Q1663 -94 1706 -51Q1757 -18 1788 178Q1847 100 1921 92Q1858 -117 1778 -160Q1735 -188 1663 -199Q1597 -209 1454 -209Q1210 -211 1147 -178Q1077 -154 1083 -45V743H981Q874 127 258 -262Q217 -176 139 -133Q668 55 856 743H305Q248 745 172 731V862Q238 848 295 850Z" fill="black" stroke="black" stroke-width="2" transform="translate(14914.55078125,0) scale(0.5,-0.5)" /><path d="M195 -192Q799 -68 903 371H477Q414 371 317 358V485Q414 473 477 473H920Q926 551 926 632Q926 712 920 795L1092 780Q1112 778 1112 770Q1112 760 1094 745Q1063 725 1059 657Q1053 547 1044 473H1595Q1661 473 1763 485Q1751 397 1745 324Q1733 154 1716 -4Q1702 -172 1622 -227Q1546 -291 1331 -299Q1337 -207 1274 -127Q1371 -138 1427 -138Q1492 -138 1520 -125Q1579 -106 1589 0Q1608 154 1622 371H1032Q967 -72 309 -328Q285 -256 195 -192ZM168 655Q541 772 788 1090L920 995Q940 981 938.0 971.0Q936 961 909 958Q850 956 815 924Q592 715 281 541Q242 604 168 655ZM1165 956 1239 1063Q1597 889 1870 690L1788 582Q1524 797 1165 956ZM360 915H221Q233 1008 233 1063V1131Q233 1200 221 1292Q319 1280 391 1280H1098Q983 1399 840 1501L928 1589Q1073 1479 1202 1356L1124 1280H1700Q1772 1278 1878 1292Q1866 1206 1866 1143V1079Q1866 1022 1878 930H1739Q1751 1020 1751 1079V1178H348V1063Q348 999 360 915Z" fill="black" stroke="black" stroke-width="2" transform="translate(15914.55078125,0) scale(0.5,-0.5)" /><path d="M647 49 719 160Q1038 -18 1333 -201L1260 -319Q973 -109 647 49ZM788 426 854 532Q1116 399 1323 262L1253 152Q1047 297 788 426ZM51 170Q498 434 485 1053V1284Q485 1350 473 1470Q594 1458 662 1458H1483Q1550 1456 1665 1470Q1653 1366 1653 1286V1038Q1653 977 1665 875Q1559 887 1485 887H1229Q1448 393 1980 254Q1903 201 1866 117Q1268 403 1098 887H596Q567 416 195 82Q139 143 51 170ZM600 1356V989H1538V1356Z" fill="black" stroke="black" stroke-width="2" transform="translate(16914.55078125,0) scale(0.5,-0.5)" /><path d="M424 -37Q424 -126 410.0 -188.0Q396 -250 362 -312H272Q346 -192 346 -80H280V93H424Z" fill="black" stroke="black" stroke-width="2" transform="translate(17914.55078125,0) scale(0.5,-0.5)" /><path d="M104 905V1024Q190 1012 274 1012H715Q637 1135 549 1202L600 1245H471Q354 1245 254 1233V1352Q354 1339 467 1339H1059Q924 1432 784 1501L850 1597Q1004 1520 1157 1423L1096 1339H1544Q1659 1339 1739 1352V1233Q1667 1245 1546 1245H1391L1446 1212Q1458 1204 1456 1200Q1454 1194 1438 1192Q1384 1178 1346 1118Q1327 1088 1292 1038Q1280 1020 1274 1012H1729Q1802 1012 1903 1024V905Q1817 918 1724 918H270Q197 918 104 905ZM782 1012H1161Q1255 1149 1294 1245H662Q756 1157 834 1057ZM104 -201Q309 -68 385 219L498 158Q522 145 520 135Q518 127 492 123Q473 121 436 49Q428 35 424 27Q340 -129 229 -270Q178 -225 104 -201ZM1636 827Q1624 733 1624 645V451Q1624 367 1636 279Q1528 291 1432 291H993Q1096 203 1229 72L1153 -10Q1028 129 901 236L954 291H592Q512 291 410 279Q422 375 422 444V645Q422 725 410 827Q524 815 594 815H1436Q1513 815 1636 827ZM1509 596V725H537V596ZM1509 381V506H537V381ZM621 240 764 219Q793 215 797 205Q801 197 780 184Q752 158 748 92V-90Q745 -152 784 -166Q823 -184 958 -182Q1300 -184 1343 -149Q1413 -127 1440 55Q1495 -10 1561 -23Q1495 -217 1417 -244Q1354 -285 1024 -285Q786 -291 709 -250Q629 -215 633 -96V84Q633 166 621 240ZM1511 176 1591 252Q1792 66 1925 -92L1833 -174Q1677 27 1511 176Z" fill="black" stroke="black" stroke-width="2" transform="translate(18914.55078125,0) scale(0.5,-0.5)" /><path d="M150 911 223 1010Q395 899 532 778L455 682Q301 811 150 911ZM176 -123Q375 147 549 573Q580 500 639 459Q502 205 317 -213Q268 -170 176 -123ZM379 1470Q539 1360 686 1239L602 1137Q438 1280 299 1378ZM858 397H1249V682Q1174 678 1040 672Q891 664 817 659Q797 743 764 799Q873 789 998 789Q1155 789 1329 805Q1630 836 1743 895L1815 758Q1821 745 1821 739Q1821 734 1817 731Q1813 729 1807 729Q1796 729 1782 735Q1763 740 1735 740Q1707 740 1669 735Q1536 715 1364 694V397H1778Q1851 397 1929 410V279Q1860 293 1778 291H1364V-72H1708Q1780 -72 1860 -59V-186Q1800 -174 1708 -174H901Q840 -174 748 -186V-59Q831 -72 897 -72H1249V291H862Q770 291 709 279V410Q784 397 858 397ZM737 1153 836 1221Q981 1051 1057 930L948 864Q862 1018 737 1153ZM1702 1548 1798 1423Q1807 1411 1807 1404Q1807 1400 1804 1397Q1799 1394 1792 1394Q1784 1394 1767 1399Q1759 1404 1733 1404Q1674 1404 1522 1380Q1186 1329 795 1315Q766 1407 737 1458Q850 1448 977 1450Q1106 1450 1239 1462Q1530 1491 1702 1548ZM1108 1208 1212 1266Q1298 1153 1401 987L1286 922Q1229 1051 1108 1208ZM1427 899Q1593 1114 1659 1309L1806 1227Q1831 1212 1829 1202Q1825 1192 1798 1190Q1747 1180 1716 1131Q1657 1020 1552 852Q1491 883 1427 899Z" fill="black" stroke="black" stroke-width="2" transform="translate(19914.55078125,0) scale(0.5,-0.5)" /><path d="M104 555Q580 768 780 1221H307Q248 1221 145 1208V1335Q240 1323 307 1323H815Q864 1458 874 1616L1042 1583Q1067 1579 1069 1569Q1069 1559 1047 1544Q1006 1520 993 1468Q973 1389 952 1323H1724Q1800 1323 1903 1335V1208Q1804 1223 1724 1221H918Q864 1094 786 973H1389Q1491 971 1604 985Q1591 860 1591 772V-90Q1595 -211 1540 -242Q1497 -279 1278 -301Q1270 -211 1225 -131Q1317 -143 1373 -143Q1412 -143 1430 -137Q1475 -125 1473 -57V201H745V-96Q745 -170 758 -287H614Q627 -172 627 -96V760Q473 594 238 434Q188 496 104 555ZM745 870V639H1473V870ZM745 537V303H1473V537Z" fill="black" stroke="black" stroke-width="2" transform="translate(20914.55078125,0) scale(0.5,-0.5)" /><path d="M266 875Q418 877 537 883Q649 1092 678 1200L817 1124Q848 1108 846 1100Q844 1090 809 1075Q776 1061 743 1008Q514 612 350 381Q692 430 754 465L731 324Q215 248 193 221L145 365Q221 397 264 449Q367 578 475 776Q219 758 135 731L92 860Q162 885 201 967Q348 1276 418 1522L559 1446Q594 1427 594 1417Q594 1409 559 1393Q518 1368 487 1311Q365 1065 266 875ZM96 -80Q367 -59 829 86L817 -59Q440 -131 166 -240ZM754 887Q1012 1090 1165 1577L1325 1516Q1343 1509 1341.0 1503.0Q1339 1497 1315 1483Q1284 1466 1257 1411Q1227 1346 1204 1305H1559Q1645 1303 1735 1317Q1614 1006 1425 776Q1636 616 1968 576Q1888 500 1866 420Q1556 528 1335 688Q1141 496 883 377Q831 453 764 500Q1018 555 1247 774Q1184 840 1090 965L1188 1051Q1225 973 1329 856Q1483 1030 1546 1202H1159Q1055 1016 905 821Q838 858 754 887ZM1012 -20 1071 92Q1489 -63 1710 -168L1655 -299Q1341 -129 1012 -20ZM1122 322 1186 430Q1370 358 1616 254L1565 135Q1311 260 1122 322Z" fill="black" stroke="black" stroke-width="2" transform="translate(21914.55078125,0) scale(0.5,-0.5)" /><path d="M350 -137H215Q225 -29 227 47V1200Q225 1278 215 1393Q334 1380 410 1380H639Q711 1380 840 1393Q829 1292 827 1200V96Q829 23 840 -92H709Q717 2 717 45H338Q340 -14 350 -137ZM338 1278V793H717V1278ZM338 690V147H717V690ZM1638 1407V1061H1778Q1841 1063 1937 1073V946Q1829 958 1778 958H1638V-45Q1640 -170 1569 -213Q1503 -260 1286 -276Q1266 -192 1206 -98Q1334 -117 1402 -117Q1446 -117 1466 -109Q1528 -92 1524 6V958H1065Q1001 956 897 946V1073Q995 1063 1065 1061H1524V1407Q1524 1464 1511 1581L1669 1556Q1690 1554 1690 1546Q1692 1540 1675 1528Q1640 1501 1638 1407ZM1108 782Q1212 606 1331 395L1212 324Q1114 535 997 723Z" fill="black" stroke="black" stroke-width="2" transform="translate(22914.55078125,0) scale(0.5,-0.5)" /><path d="M512 217Q346 195 323 29Q346 -132 512 -155Q680 -132 703 29Q680 195 512 217ZM512 281Q744 258 766 29Q742 -194 512 -219Q284 -194 260 29Q284 258 512 281Z" fill="black" stroke="black" stroke-width="2" transform="translate(23914.55078125,0) scale(0.5,-0.5)" /></g></svg>