<?xml version="1.0" encoding="utf-8" ?>
<svg baseProfile="full" height="5600px" version="1.1" width="800px" xmlns="http://www.w3.org/2000/svg" xmlns:ev="http://www.w3.org/2001/xml-events" xmlns:xlink="http://www.w3.org/1999/xlink"><defs /><text fill="rgb(244,244,244)" font-size="66px" x="14.6328125" y="90.0">dog</text><text fill="rgb(244,244,244)" font-size="66px" x="14.6328125" y="187.0">dog</text><text fill="rgb(244,244,244)" font-size="66px" x="14.6328125" y="284.0">dog</text><text fill="rgb(244,244,244)" font-size="66px" x="14.6328125" y="381.0">dog</text><text fill="rgb(244,244,244)" font-size="66px" x="14.6328125" y="478.0">dog</text><text fill="rgb(244,244,244)" font-size="66px" x="14.6328125" y="575.0">dog</text><text fill="rgb(244,244,244)" font-size="66px" x="14.6328125" y="672.0">dog</text><text fill="rgb(244,244,244)" font-size="66px" x="14.6328125" y="769.0">dog</text><text fill="rgb(244,244,244)" font-size="66px" x="14.6328125" y="866.0">dog</text><text fill="rgb(244,244,244)" font-size="66px" x="14.6328125" y="963.0">dog</text><text fill="rgb(244,244,244)" font-size="66px" x="14.6328125" y="1060.0">dog</text><text fill="rgb(244,244,244)" font-size="66px" x="14.6328125" y="1157.0">dog</text><text fill="rgb(244,244,244)" font-size="66px" x="14.6328125" y="1254.0">dog</text><text fill="rgb(244,244,244)" font-size="66px" x="14.6328125" y="1351.0">dog</text><text fill="rgb(244,244,244)" font-size="66px" x="14.6328125" y="1448.0">dog</text><text fill="rgb(244,244,244)" font-size="66px" x="14.6328125" y="1545.0">dog</text><text fill="rgb(244,244,244)" font-size="66px" x="14.6328125" y="1642.0">dog</text><text fill="rgb(244,244,244)" font-size="66px" x="14.6328125" y="1739.0">dog</text><text fill="rgb(244,244,244)" font-size="66px" x="14.6328125" y="1836.0">dog</text><text fill="rgb(244,244,244)" font-size="66px" x="14.6328125" y="1933.0">dog</text><text fill="rgb(244,244,244)" font-size="66px" x="14.6328125" y="2030.0">dog</text><text fill="rgb(244,244,244)" font-size="66px" x="14.6328125" y="2127.0">dog</text><text fill="rgb(244,244,244)" font-size="66px" x="14.6328125" y="2224.0">dog</text><text fill="rgb(244,244,244)" font-size="66px" x="14.6328125" y="2321.0">dog</text><text fill="rgb(244,244,244)" font-size="66px" x="14.6328125" y="2418.0">dog</text><text fill="rgb(244,244,244)" font-size="66px" x="14.6328125" y="2515.0">dog</text><text fill="rgb(244,244,244)" font-size="66px" x="14.6328125" y="2612.0">dog</text><text fill="rgb(244,244,244)" font-size="66px" x="14.6328125" y="2709.0">dog</text><text fill="rgb(244,244,244)" font-size="66px" x="14.6328125" y="2806.0">dog</text><text fill="rgb(244,244,244)" font-size="66px" x="14.6328125" y="2903.0">dog</text><text fill="rgb(244,244,244)" font-size="66px" x="14.6328125" y="3000.0">dog</text><text fill="rgb(244,244,244)" font-size="66px" x="14.6328125" y="3097.0">dog</text><text fill="rgb(244,244,244)" font-size="66px" x="14.6328125" y="3194.0">dog</text><text fill="rgb(244,244,244)" font-size="66px" x="14.6328125" y="3291.0">dog</text><text fill="rgb(244,244,244)" font-size="66px" x="14.6328125" y="3388.0">dog</text><text fill="rgb(244,244,244)" font-size="66px" x="14.6328125" y="3485.0">dog</text><text fill="rgb(244,244,244)" font-size="66px" x="14.6328125" y="3582.0">dog</text><text fill="rgb(244,244,244)" font-size="66px" x="14.6328125" y="3679.0">dog</text><text fill="rgb(244,244,244)" font-size="66px" x="14.6328125" y="3776.0">dog</text><text fill="rgb(244,244,244)" font-size="66px" x="14.6328125" y="3873.0">dog</text><text fill="rgb(244,244,244)" font-size="66px" x="14.6328125" y="3970.0">dog</text><text fill="rgb(244,244,244)" font-size="66px" x="14.6328125" y="4067.0">dog</text><text fill="rgb(244,244,244)" font-size="66px" x="14.6328125" y="4164.0">dog</text><text fill="rgb(244,244,244)" font-size="66px" x="14.6328125" y="4261.0">dog</text><text fill="rgb(244,244,244)" font-size="66px" x="14.6328125" y="4358.0">dog</text><text fill="rgb(244,244,244)" font-size="66px" x="14.6328125" y="4455.0">dog</text><text fill="rgb(244,244,244)" font-size="66px" x="14.6328125" y="4552.0">dog</text><text fill="rgb(244,244,244)" font-size="66px" x="14.6328125" y="4649.0">dog</text><text fill="rgb(244,244,244)" font-size="66px" x="14.6328125" y="4746.0">dog</text><text fill="rgb(244,244,244)" font-size="66px" x="14.6328125" y="4843.0">dog</text><text fill="rgb(244,244,244)" font-size="66px" x="14.6328125" y="4940.0">dog</text><text fill="rgb(244,244,244)" font-size="66px" x="14.6328125" y="5037.0">dog</text><text fill="rgb(244,244,244)" font-size="66px" x="14.6328125" y="5134.0">dog</text><text fill="rgb(244,244,244)" font-size="66px" x="14.6328125" y="5231.0">dog</text><text fill="rgb(244,244,244)" font-size="66px" x="14.6328125" y="5328.0">dog</text><text fill="rgb(244,244,244)" font-size="66px" x="14.6328125" y="5425.0">dog</text><text fill="rgb(244,244,244)" font-size="66px" x="14.6328125" y="5522.0">dog</text><text fill="rgb(244,244,244)" font-size="66px" x="173.082421875" y="90.0">dog</text><text fill="rgb(244,244,244)" font-size="66px" x="173.082421875" y="187.0">dog</text><text fill="rgb(244,244,244)" font-size="66px" x="173.082421875" y="284.0">dog</text><text fill="rgb(244,244,244)" font-size="66px" x="173.082421875" y="381.0">dog</text><text fill="rgb(244,244,244)" font-size="66px" x="173.082421875" y="478.0">dog</text><text fill="rgb(244,244,244)" font-size="66px" x="173.082421875" y="575.0">dog</text><text fill="rgb(244,244,244)" font-size="66px" x="173.082421875" y="672.0">dog</text><text fill="rgb(244,244,244)" font-size="66px" x="173.082421875" y="769.0">dog</text><text fill="rgb(244,244,244)" font-size="66px" x="173.082421875" y="866.0">dog</text><text fill="rgb(244,244,244)" font-size="66px" x="173.082421875" y="963.0">dog</text><text fill="rgb(244,244,244)" font-size="66px" x="173.082421875" y="1060.0">dog</text><text fill="rgb(244,244,244)" font-size="66px" x="173.082421875" y="1157.0">dog</text><text fill="rgb(244,244,244)" font-size="66px" x="173.082421875" y="1254.0">dog</text><text fill="rgb(244,244,244)" font-size="66px" x="173.082421875" y="1351.0">dog</text><text fill="rgb(244,244,244)" font-size="66px" x="173.082421875" y="1448.0">dog</text><text fill="rgb(244,244,244)" font-size="66px" x="173.082421875" y="1545.0">dog</text><text fill="rgb(244,244,244)" font-size="66px" x="173.082421875" y="1642.0">dog</text><text fill="rgb(244,244,244)" font-size="66px" x="173.082421875" y="1739.0">dog</text><text fill="rgb(244,244,244)" font-size="66px" x="173.082421875" y="1836.0">dog</text><text fill="rgb(244,244,244)" font-size="66px" x="173.082421875" y="1933.0">dog</text><text fill="rgb(244,244,244)" font-size="66px" x="173.082421875" y="2030.0">dog</text><text fill="rgb(244,244,244)" font-size="66px" x="173.082421875" y="2127.0">dog</text><text fill="rgb(244,244,244)" font-size="66px" x="173.082421875" y="2224.0">dog</text><text fill="rgb(244,244,244)" font-size="66px" x="173.082421875" y="2321.0">dog</text><text fill="rgb(244,244,244)" font-size="66px" x="173.082421875" y="2418.0">dog</text><text fill="rgb(244,244,244)" font-size="66px" x="173.082421875" y="2515.0">dog</text><text fill="rgb(244,244,244)" font-size="66px" x="173.082421875" y="2612.0">dog</text><text fill="rgb(244,244,244)" font-size="66px" x="173.082421875" y="2709.0">dog</text><text fill="rgb(244,244,244)" font-size="66px" x="173.082421875" y="2806.0">dog</text><text fill="rgb(244,244,244)" font-size="66px" x="173.082421875" y="2903.0">dog</text><text fill="rgb(244,244,244)" font-size="66px" x="173.082421875" y="3000.0">dog</text><text fill="rgb(244,244,244)" font-size="66px" x="173.082421875" y="3097.0">dog</text><text fill="rgb(244,244,244)" font-size="66px" x="173.082421875" y="3194.0">dog</text><text fill="rgb(244,244,244)" font-size="66px" x="173.082421875" y="3291.0">dog</text><text fill="rgb(244,244,244)" font-size="66px" x="173.082421875" y="3388.0">dog</text><text fill="rgb(244,244,244)" font-size="66px" x="173.082421875" y="3485.0">dog</text><text fill="rgb(244,244,244)" font-size="66px" x="173.082421875" y="3582.0">dog</text><text fill="rgb(244,244,244)" font-size="66px" x="173.082421875" y="3679.0">dog</text><text fill="rgb(244,244,244)" font-size="66px" x="173.082421875" y="3776.0">dog</text><text fill="rgb(244,244,244)" font-size="66px" x="173.082421875" y="3873.0">dog</text><text fill="rgb(244,244,244)" font-size="66px" x="173.082421875" y="3970.0">dog</text><text fill="rgb(244,244,244)" font-size="66px" x="173.082421875" y="4067.0">dog</text><text fill="rgb(244,244,244)" font-size="66px" x="173.082421875" y="4164.0">dog</text><text fill="rgb(244,244,244)" font-size="66px" x="173.082421875" y="4261.0">dog</text><text fill="rgb(244,244,244)" font-size="66px" x="173.082421875" y="4358.0">dog</text><text fill="rgb(244,244,244)" font-size="66px" x="173.082421875" y="4455.0">dog</text><text fill="rgb(244,244,244)" font-size="66px" x="173.082421875" y="4552.0">dog</text><text fill="rgb(244,244,244)" font-size="66px" x="173.082421875" y="4649.0">dog</text><text fill="rgb(244,244,244)" font-size="66px" x="173.082421875" y="4746.0">dog</text><text fill="rgb(244,244,244)" font-size="66px" x="173.082421875" y="4843.0">dog</text><text fill="rgb(244,244,244)" font-size="66px" x="173.082421875" y="4940.0">dog</text><text fill="rgb(244,244,244)" font-size="66px" x="173.082421875" y="5037.0">dog</text><text fill="rgb(244,244,244)" font-size="66px" x="173.082421875" y="5134.0">dog</text><text fill="rgb(244,244,244)" font-size="66px" x="173.082421875" y="5231.0">dog</text><text fill="rgb(244,244,244)" font-size="66px" x="173.082421875" y="5328.0">dog</text><text fill="rgb(244,244,244)" font-size="66px" x="173.082421875" y="5425.0">dog</text><text fill="rgb(244,244,244)" font-size="66px" x="173.082421875" y="5522.0">dog</text><text fill="rgb(244,244,244)" font-size="66px" x="331.53203125" y="90.0">dog</text><text fill="rgb(244,244,244)" font-size="66px" x="331.53203125" y="187.0">dog</text><text fill="rgb(244,244,244)" font-size="66px" x="331.53203125" y="284.0">dog</text><text fill="rgb(244,244,244)" font-size="66px" x="331.53203125" y="381.0">dog</text><text fill="rgb(244,244,244)" font-size="66px" x="331.53203125" y="478.0">dog</text><text fill="rgb(244,244,244)" font-size="66px" x="331.53203125" y="575.0">dog</text><text fill="rgb(244,244,244)" font-size="66px" x="331.53203125" y="672.0">dog</text><text fill="rgb(244,244,244)" font-size="66px" x="331.53203125" y="769.0">dog</text><text fill="rgb(244,244,244)" font-size="66px" x="331.53203125" y="866.0">dog</text><text fill="rgb(244,244,244)" font-size="66px" x="331.53203125" y="963.0">dog</text><text fill="rgb(244,244,244)" font-size="66px" x="331.53203125" y="1060.0">dog</text><text fill="rgb(244,244,244)" font-size="66px" x="331.53203125" y="1157.0">dog</text><text fill="rgb(244,244,244)" font-size="66px" x="331.53203125" y="1254.0">dog</text><text fill="rgb(244,244,244)" font-size="66px" x="331.53203125" y="1351.0">dog</text><text fill="rgb(244,244,244)" font-size="66px" x="331.53203125" y="1448.0">dog</text><text fill="rgb(244,244,244)" font-size="66px" x="331.53203125" y="1545.0">dog</text><text fill="rgb(244,244,244)" font-size="66px" x="331.53203125" y="1642.0">dog</text><text fill="rgb(244,244,244)" font-size="66px" x="331.53203125" y="1739.0">dog</text><text fill="rgb(244,244,244)" font-size="66px" x="331.53203125" y="1836.0">dog</text><text fill="rgb(244,244,244)" font-size="66px" x="331.53203125" y="1933.0">dog</text><text fill="rgb(244,244,244)" font-size="66px" x="331.53203125" y="2030.0">dog</text><text fill="rgb(244,244,244)" font-size="66px" x="331.53203125" y="2127.0">dog</text><text fill="rgb(244,244,244)" font-size="66px" x="331.53203125" y="2224.0">dog</text><text fill="rgb(244,244,244)" font-size="66px" x="331.53203125" y="2321.0">dog</text><text fill="rgb(244,244,244)" font-size="66px" x="331.53203125" y="2418.0">dog</text><text fill="rgb(244,244,244)" font-size="66px" x="331.53203125" y="2515.0">dog</text><text fill="rgb(244,244,244)" font-size="66px" x="331.53203125" y="2612.0">dog</text><text fill="rgb(244,244,244)" font-size="66px" x="331.53203125" y="2709.0">dog</text><text fill="rgb(244,244,244)" font-size="66px" x="331.53203125" y="2806.0">dog</text><text fill="rgb(244,244,244)" font-size="66px" x="331.53203125" y="2903.0">dog</text><text fill="rgb(244,244,244)" font-size="66px" x="331.53203125" y="3000.0">dog</text><text fill="rgb(244,244,244)" font-size="66px" x="331.53203125" y="3097.0">dog</text><text fill="rgb(244,244,244)" font-size="66px" x="331.53203125" y="3194.0">dog</text><text fill="rgb(244,244,244)" font-size="66px" x="331.53203125" y="3291.0">dog</text><text fill="rgb(244,244,244)" font-size="66px" x="331.53203125" y="3388.0">dog</text><text fill="rgb(244,244,244)" font-size="66px" x="331.53203125" y="3485.0">dog</text><text fill="rgb(244,244,244)" font-size="66px" x="331.53203125" y="3582.0">dog</text><text fill="rgb(244,244,244)" font-size="66px" x="331.53203125" y="3679.0">dog</text><text fill="rgb(244,244,244)" font-size="66px" x="331.53203125" y="3776.0">dog</text><text fill="rgb(244,244,244)" font-size="66px" x="331.53203125" y="3873.0">dog</text><text fill="rgb(244,244,244)" font-size="66px" x="331.53203125" y="3970.0">dog</text><text fill="rgb(244,244,244)" font-size="66px" x="331.53203125" y="4067.0">dog</text><text fill="rgb(244,244,244)" font-size="66px" x="331.53203125" y="4164.0">dog</text><text fill="rgb(244,244,244)" font-size="66px" x="331.53203125" y="4261.0">dog</text><text fill="rgb(244,244,244)" font-size="66px" x="331.53203125" y="4358.0">dog</text><text fill="rgb(244,244,244)" font-size="66px" x="331.53203125" y="4455.0">dog</text><text fill="rgb(244,244,244)" font-size="66px" x="331.53203125" y="4552.0">dog</text><text fill="rgb(244,244,244)" font-size="66px" x="331.53203125" y="4649.0">dog</text><text fill="rgb(244,244,244)" font-size="66px" x="331.53203125" y="4746.0">dog</text><text fill="rgb(244,244,244)" font-size="66px" x="331.53203125" y="4843.0">dog</text><text fill="rgb(244,244,244)" font-size="66px" x="331.53203125" y="4940.0">dog</text><text fill="rgb(244,244,244)" font-size="66px" x="331.53203125" y="5037.0">dog</text><text fill="rgb(244,244,244)" font-size="66px" x="331.53203125" y="5134.0">dog</text><text fill="rgb(244,244,244)" font-size="66px" x="331.53203125" y="5231.0">dog</text><text fill="rgb(244,244,244)" font-size="66px" x="331.53203125" y="5328.0">dog</text><text fill="rgb(244,244,244)" font-size="66px" x="331.53203125" y="5425.0">dog</text><text fill="rgb(244,244,244)" font-size="66px" x="331.53203125" y="5522.0">dog</text><text fill="rgb(244,244,244)" font-size="66px" x="489.98164062499995" y="90.0">dog</text><text fill="rgb(244,244,244)" font-size="66px" x="489.98164062499995" y="187.0">dog</text><text fill="rgb(244,244,244)" font-size="66px" x="489.98164062499995" y="284.0">dog</text><text fill="rgb(244,244,244)" font-size="66px" x="489.98164062499995" y="381.0">dog</text><text fill="rgb(244,244,244)" font-size="66px" x="489.98164062499995" y="478.0">dog</text><text fill="rgb(244,244,244)" font-size="66px" x="489.98164062499995" y="575.0">dog</text><text fill="rgb(244,244,244)" font-size="66px" x="489.98164062499995" y="672.0">dog</text><text fill="rgb(244,244,244)" font-size="66px" x="489.98164062499995" y="769.0">dog</text><text fill="rgb(244,244,244)" font-size="66px" x="489.98164062499995" y="866.0">dog</text><text fill="rgb(244,244,244)" font-size="66px" x="489.98164062499995" y="963.0">dog</text><text fill="rgb(244,244,244)" font-size="66px" x="489.98164062499995" y="1060.0">dog</text><text fill="rgb(244,244,244)" font-size="66px" x="489.98164062499995" y="1157.0">dog</text><text fill="rgb(244,244,244)" font-size="66px" x="489.98164062499995" y="1254.0">dog</text><text fill="rgb(244,244,244)" font-size="66px" x="489.98164062499995" y="1351.0">dog</text><text fill="rgb(244,244,244)" font-size="66px" x="489.98164062499995" y="1448.0">dog</text><text fill="rgb(244,244,244)" font-size="66px" x="489.98164062499995" y="1545.0">dog</text><text fill="rgb(244,244,244)" font-size="66px" x="489.98164062499995" y="1642.0">dog</text><text fill="rgb(244,244,244)" font-size="66px" x="489.98164062499995" y="1739.0">dog</text><text fill="rgb(244,244,244)" font-size="66px" x="489.98164062499995" y="1836.0">dog</text><text fill="rgb(244,244,244)" font-size="66px" x="489.98164062499995" y="1933.0">dog</text><text fill="rgb(244,244,244)" font-size="66px" x="489.98164062499995" y="2030.0">dog</text><text fill="rgb(244,244,244)" font-size="66px" x="489.98164062499995" y="2127.0">dog</text><text fill="rgb(244,244,244)" font-size="66px" x="489.98164062499995" y="2224.0">dog</text><text fill="rgb(244,244,244)" font-size="66px" x="489.98164062499995" y="2321.0">dog</text><text fill="rgb(244,244,244)" font-size="66px" x="489.98164062499995" y="2418.0">dog</text><text fill="rgb(244,244,244)" font-size="66px" x="489.98164062499995" y="2515.0">dog</text><text fill="rgb(244,244,244)" font-size="66px" x="489.98164062499995" y="2612.0">dog</text><text fill="rgb(244,244,244)" font-size="66px" x="489.98164062499995" y="2709.0">dog</text><text fill="rgb(244,244,244)" font-size="66px" x="489.98164062499995" y="2806.0">dog</text><text fill="rgb(244,244,244)" font-size="66px" x="489.98164062499995" y="2903.0">dog</text><text fill="rgb(244,244,244)" font-size="66px" x="489.98164062499995" y="3000.0">dog</text><text fill="rgb(244,244,244)" font-size="66px" x="489.98164062499995" y="3097.0">dog</text><text fill="rgb(244,244,244)" font-size="66px" x="489.98164062499995" y="3194.0">dog</text><text fill="rgb(244,244,244)" font-size="66px" x="489.98164062499995" y="3291.0">dog</text><text fill="rgb(244,244,244)" font-size="66px" x="489.98164062499995" y="3388.0">dog</text><text fill="rgb(244,244,244)" font-size="66px" x="489.98164062499995" y="3485.0">dog</text><text fill="rgb(244,244,244)" font-size="66px" x="489.98164062499995" y="3582.0">dog</text><text fill="rgb(244,244,244)" font-size="66px" x="489.98164062499995" y="3679.0">dog</text><text fill="rgb(244,244,244)" font-size="66px" x="489.98164062499995" y="3776.0">dog</text><text fill="rgb(244,244,244)" font-size="66px" x="489.98164062499995" y="3873.0">dog</text><text fill="rgb(244,244,244)" font-size="66px" x="489.98164062499995" y="3970.0">dog</text><text fill="rgb(244,244,244)" font-size="66px" x="489.98164062499995" y="4067.0">dog</text><text fill="rgb(244,244,244)" font-size="66px" x="489.98164062499995" y="4164.0">dog</text><text fill="rgb(244,244,244)" font-size="66px" x="489.98164062499995" y="4261.0">dog</text><text fill="rgb(244,244,244)" font-size="66px" x="489.98164062499995" y="4358.0">dog</text><text fill="rgb(244,244,244)" font-size="66px" x="489.98164062499995" y="4455.0">dog</text><text fill="rgb(244,244,244)" font-size="66px" x="489.98164062499995" y="4552.0">dog</text><text fill="rgb(244,244,244)" font-size="66px" x="489.98164062499995" y="4649.0">dog</text><text fill="rgb(244,244,244)" font-size="66px" x="489.98164062499995" y="4746.0">dog</text><text fill="rgb(244,244,244)" font-size="66px" x="489.98164062499995" y="4843.0">dog</text><text fill="rgb(244,244,244)" font-size="66px" x="489.98164062499995" y="4940.0">dog</text><text fill="rgb(244,244,244)" font-size="66px" x="489.98164062499995" y="5037.0">dog</text><text fill="rgb(244,244,244)" font-size="66px" x="489.98164062499995" y="5134.0">dog</text><text fill="rgb(244,244,244)" font-size="66px" x="489.98164062499995" y="5231.0">dog</text><text fill="rgb(244,244,244)" font-size="66px" x="489.98164062499995" y="5328.0">dog</text><text fill="rgb(244,244,244)" font-size="66px" x="489.98164062499995" y="5425.0">dog</text><text fill="rgb(244,244,244)" font-size="66px" x="489.98164062499995" y="5522.0">dog</text><text fill="rgb(244,244,244)" font-size="66px" x="648.43125" y="90.0">dog</text><text fill="rgb(244,244,244)" font-size="66px" x="648.43125" y="187.0">dog</text><text fill="rgb(244,244,244)" font-size="66px" x="648.43125" y="284.0">dog</text><text fill="rgb(244,244,244)" font-size="66px" x="648.43125" y="381.0">dog</text><text fill="rgb(244,244,244)" font-size="66px" x="648.43125" y="478.0">dog</text><text fill="rgb(244,244,244)" font-size="66px" x="648.43125" y="575.0">dog</text><text fill="rgb(244,244,244)" font-size="66px" x="648.43125" y="672.0">dog</text><text fill="rgb(244,244,244)" font-size="66px" x="648.43125" y="769.0">dog</text><text fill="rgb(244,244,244)" font-size="66px" x="648.43125" y="866.0">dog</text><text fill="rgb(244,244,244)" font-size="66px" x="648.43125" y="963.0">dog</text><text fill="rgb(244,244,244)" font-size="66px" x="648.43125" y="1060.0">dog</text><text fill="rgb(244,244,244)" font-size="66px" x="648.43125" y="1157.0">dog</text><text fill="rgb(244,244,244)" font-size="66px" x="648.43125" y="1254.0">dog</text><text fill="rgb(244,244,244)" font-size="66px" x="648.43125" y="1351.0">dog</text><text fill="rgb(244,244,244)" font-size="66px" x="648.43125" y="1448.0">dog</text><text fill="rgb(244,244,244)" font-size="66px" x="648.43125" y="1545.0">dog</text><text fill="rgb(244,244,244)" font-size="66px" x="648.43125" y="1642.0">dog</text><text fill="rgb(244,244,244)" font-size="66px" x="648.43125" y="1739.0">dog</text><text fill="rgb(244,244,244)" font-size="66px" x="648.43125" y="1836.0">dog</text><text fill="rgb(244,244,244)" font-size="66px" x="648.43125" y="1933.0">dog</text><text fill="rgb(244,244,244)" font-size="66px" x="648.43125" y="2030.0">dog</text><text fill="rgb(244,244,244)" font-size="66px" x="648.43125" y="2127.0">dog</text><text fill="rgb(244,244,244)" font-size="66px" x="648.43125" y="2224.0">dog</text><text fill="rgb(244,244,244)" font-size="66px" x="648.43125" y="2321.0">dog</text><text fill="rgb(244,244,244)" font-size="66px" x="648.43125" y="2418.0">dog</text><text fill="rgb(244,244,244)" font-size="66px" x="648.43125" y="2515.0">dog</text><text fill="rgb(244,244,244)" font-size="66px" x="648.43125" y="2612.0">dog</text><text fill="rgb(244,244,244)" font-size="66px" x="648.43125" y="2709.0">dog</text><text fill="rgb(244,244,244)" font-size="66px" x="648.43125" y="2806.0">dog</text><text fill="rgb(244,244,244)" font-size="66px" x="648.43125" y="2903.0">dog</text><text fill="rgb(244,244,244)" font-size="66px" x="648.43125" y="3000.0">dog</text><text fill="rgb(244,244,244)" font-size="66px" x="648.43125" y="3097.0">dog</text><text fill="rgb(244,244,244)" font-size="66px" x="648.43125" y="3194.0">dog</text><text fill="rgb(244,244,244)" font-size="66px" x="648.43125" y="3291.0">dog</text><text fill="rgb(244,244,244)" font-size="66px" x="648.43125" y="3388.0">dog</text><text fill="rgb(244,244,244)" font-size="66px" x="648.43125" y="3485.0">dog</text><text fill="rgb(244,244,244)" font-size="66px" x="648.43125" y="3582.0">dog</text><text fill="rgb(244,244,244)" font-size="66px" x="648.43125" y="3679.0">dog</text><text fill="rgb(244,244,244)" font-size="66px" x="648.43125" y="3776.0">dog</text><text fill="rgb(244,244,244)" font-size="66px" x="648.43125" y="3873.0">dog</text><text fill="rgb(244,244,244)" font-size="66px" x="648.43125" y="3970.0">dog</text><text fill="rgb(244,244,244)" font-size="66px" x="648.43125" y="4067.0">dog</text><text fill="rgb(244,244,244)" font-size="66px" x="648.43125" y="4164.0">dog</text><text fill="rgb(244,244,244)" font-size="66px" x="648.43125" y="4261.0">dog</text><text fill="rgb(244,244,244)" font-size="66px" x="648.43125" y="4358.0">dog</text><text fill="rgb(244,244,244)" font-size="66px" x="648.43125" y="4455.0">dog</text><text fill="rgb(244,244,244)" font-size="66px" x="648.43125" y="4552.0">dog</text><text fill="rgb(244,244,244)" font-size="66px" x="648.43125" y="4649.0">dog</text><text fill="rgb(244,244,244)" font-size="66px" x="648.43125" y="4746.0">dog</text><text fill="rgb(244,244,244)" font-size="66px" x="648.43125" y="4843.0">dog</text><text fill="rgb(244,244,244)" font-size="66px" x="648.43125" y="4940.0">dog</text><text fill="rgb(244,244,244)" font-size="66px" x="648.43125" y="5037.0">dog</text><text fill="rgb(244,244,244)" font-size="66px" x="648.43125" y="5134.0">dog</text><text fill="rgb(244,244,244)" font-size="66px" x="648.43125" y="5231.0">dog</text><text fill="rgb(244,244,244)" font-size="66px" x="648.43125" y="5328.0">dog</text><text fill="rgb(244,244,244)" font-size="66px" x="648.43125" y="5425.0">dog</text><text fill="rgb(244,244,244)" font-size="66px" x="648.43125" y="5522.0">dog</text><g transform="scale(0.016,0.016) translate(0, 1250.0)"><path d="M121 201Q360 408 596 868H307Q233 866 147 856V983Q233 973 307 971H621V1344Q500 1323 264 1292Q248 1358 203 1432Q265 1430 295 1430Q698 1430 989 1550L1065 1421Q1070 1413 1070 1409Q1070 1406 1067 1403Q1063 1399 1044 1401Q1029 1404 1015 1404Q996 1404 967 1399Q936 1395 866 1382Q770 1368 735 1362V971H948Q1036 973 1116 983V856Q1032 866 950 868H735V774Q938 633 1085 498L997 385Q874 524 735 635V-117Q737 -186 748 -293H608Q618 -195 621 -117V670Q442 381 264 135Q219 174 121 201ZM1169 1317Q1278 1307 1348 1305H1690Q1769 1307 1866 1317Q1855 1227 1853 1147V96Q1855 20 1866 -78H1726Q1737 4 1739 72H1292Q1294 -2 1305 -88H1169Q1180 4 1182 82V1149Q1180 1223 1169 1317ZM1296 1202V174H1739V1202Z" fill="black" stroke="black" stroke-width="2" transform="translate(914.55078125,0) scale(0.5,-0.5)" /><path d="M1081 1362V885H1579Q1675 885 1774 897Q1761 797 1761 715V-66Q1765 -188 1710 -217Q1663 -254 1444 -274Q1427 -203 1382 -123Q1481 -133 1533 -133Q1582 -133 1602 -125Q1651 -115 1647 -41V782H422V-70Q422 -166 434 -276H295Q307 -160 307 -70V721Q307 797 295 897Q395 885 481 885H967V1362Q967 1464 954 1583L1120 1559Q1141 1556 1143 1546Q1143 1536 1122 1518Q1081 1481 1081 1362ZM428 1427Q608 1286 791 1122L692 1026Q545 1192 336 1331ZM698 41Q711 131 711 217V416Q711 494 698 588Q797 576 879 576H1184Q1264 576 1364 588Q1352 498 1352 418V215Q1352 133 1364 41Q1280 53 1188 53H885Q805 53 698 41ZM821 473V156H1241V473ZM1323 997Q1280 1042 1214 1085Q1458 1235 1595 1466L1716 1366Q1733 1354 1731 1348Q1729 1344 1706 1339Q1669 1331 1626 1290Q1509 1174 1323 997Z" fill="black" stroke="black" stroke-width="2" transform="translate(1914.55078125,0) scale(0.5,-0.5)" /><path d="M426 616V1065H254Q190 1065 88 1053V1180Q190 1167 254 1167H426V1395Q424 1456 414 1595L569 1575Q598 1571 600 1561Q604 1552 584 1534Q537 1499 541 1399V1167H645Q692 1167 813 1180V1053Q700 1065 645 1065H541V659Q735 741 872 817Q862 752 856 657Q838 651 805 637Q584 551 541 532V-88Q542 -96 542 -111Q542 -263 258 -279Q242 -195 195 -123Q260 -135 310 -135Q443 -135 435.5 -150.5Q428 -166 428 -60Q428 -50 426 -39V487Q274 416 152 348L61 496Q205 522 426 616ZM1473 -70V1251H1038Q963 1249 870 1239V1366Q965 1356 1038 1354H1804Q1872 1356 1970 1366V1239Q1858 1251 1804 1251H1591V-63Q1595 -197 1534 -233Q1483 -274 1264 -287Q1241 -186 1194 -125Q1308 -145 1369 -145Q1397 -145 1413 -141Q1475 -129 1473 -70Z" fill="black" stroke="black" stroke-width="2" transform="translate(2914.55078125,0) scale(0.5,-0.5)" /><path d="M274 510H946V555Q948 651 934 737L1090 717Q1114 715 1114.0 707.5Q1114 700 1087 684Q1061 666 1061 555V510H1743Q1827 508 1909 522V395Q1831 410 1745 408H1178Q1516 33 1923 -70Q1837 -125 1812 -197Q1350 16 1061 363V-137Q1059 -236 1073 -307H934Q948 -225 946 -137V342Q649 14 219 -190Q188 -115 106 -80Q512 43 840 408H274Q182 410 111 395V522Q152 508 274 510ZM901 1262H627Q580 881 256 629Q209 690 125 721Q444 856 506 1262H354Q287 1264 190 1249V1376Q270 1362 354 1364H518Q519 1394 519 1433Q519 1521 512 1604L666 1583Q686 1581 686.0 1575.0Q686 1569 668 1556Q647 1544 641 1511Q637 1483 635 1364H844Q913 1362 1026 1376Q1012 1257 1004 1088Q995 834 942 782Q901 719 690 707Q690 774 621 870Q715 840 769 840Q800 840 819 850Q872 870 883 993Q897 1120 901 1262ZM1802 756Q1702 770 1636 768H1358Q1300 768 1202 756Q1217 844 1214 907V1266Q1214 1335 1202 1423Q1296 1409 1358 1411H1636Q1724 1409 1802 1423Q1788 1341 1790 1266V905Q1788 836 1802 756ZM1329 1309V870H1675V1309Z" fill="black" stroke="black" stroke-width="2" transform="translate(3914.55078125,0) scale(0.5,-0.5)" /><path d="M424 -37Q424 -126 410.0 -188.0Q396 -250 362 -312H272Q346 -192 346 -80H280V93H424Z" fill="black" stroke="black" stroke-width="2" transform="translate(4914.55078125,0) scale(0.5,-0.5)" /><path d="M1104 1339H334Q254 1337 150 1323V1458Q240 1444 334 1442H1751Q1847 1444 1939 1458V1323Q1847 1337 1751 1339H1274Q1194 1188 1098 1038V-86Q1098 -158 1114 -283H967Q981 -170 983 -88V875Q705 485 233 227Q166 305 86 354Q705 543 1104 1339ZM1839 252Q1552 563 1237 821L1339 930Q1657 647 1944 363Z" fill="black" stroke="black" stroke-width="2" transform="translate(5914.55078125,0) scale(0.5,-0.5)" /><path d="M106 541V668Q215 655 276 655H1755Q1810 657 1915 668V541Q1812 551 1755 553H1083V305H1511Q1567 307 1669 317V190Q1569 203 1511 203H1083V-100Q1222 -111 1385 -111Q1440 -111 1524 -109Q1788 -100 1956 -78Q1911 -137 1903 -225Q1690 -234 1489 -234Q1361 -234 1268 -231Q791 -248 516 94Q387 -166 238 -313Q176 -250 102 -203Q348 -119 496 422L639 371Q664 363 666.0 354.5Q668 346 645 334Q588 309 565 211Q725 -18 969 -82V553H276Q209 551 106 541ZM1595 1501Q1585 1384 1583 1317V963Q1585 909 1595 788Q1466 801 1397 801H670Q590 801 453 788Q463 909 465 973V1315Q463 1395 453 1501Q571 1491 651 1489H1393Q1460 1489 1595 1501ZM580 1104V899H1468V1104ZM580 1391V1202H1468V1391Z" fill="black" stroke="black" stroke-width="2" transform="translate(6914.55078125,0) scale(0.5,-0.5)" /><path d="M190 -172Q842 129 1010 875L578 862Q432 858 313 840V987Q389 973 461 975L1028 985Q1051 1177 1051 1332Q1051 1440 1040 1528L1200 1507Q1225 1505 1227 1495Q1231 1487 1212 1464Q1186 1434 1184 1368Q1178 1196 1149 981L1638 995Q1712 995 1817 1010Q1790 891 1780 756Q1747 330 1712 4Q1696 -172 1608 -227Q1532 -285 1264 -297Q1266 -211 1214 -115Q1337 -136 1411 -136Q1470 -136 1503 -123Q1579 -100 1589 16Q1636 438 1665 889L1130 875Q991 158 319 -305Q276 -227 190 -172ZM633 1475Q735 1329 848 1147L735 1063Q655 1245 526 1405ZM1298 158Q1204 283 1049 449L1143 539Q1292 389 1403 252Z" fill="black" stroke="black" stroke-width="2" transform="translate(7914.55078125,0) scale(0.5,-0.5)" /><path d="M1497 1325H438Q373 1327 264 1313V1444Q360 1430 434 1432H1595Q1681 1430 1780 1444Q1421 1030 1102 850V-4Q1108 -168 1034 -211Q971 -260 700 -276Q698 -213 635 -96Q770 -125 849 -125Q891 -125 915 -117Q987 -96 983 14V913Q1298 1083 1497 1325Z" fill="black" stroke="black" stroke-width="2" transform="translate(8914.55078125,0) scale(0.5,-0.5)" /><path d="M1055 1067 1163 1120Q1204 1032 1260 961Q1425 1071 1518 1176L1612 1075Q1631 1056 1631 1047Q1631 1045 1630 1044Q1628 1036 1593 1036Q1544 1038 1489 997Q1466 981 1419 948Q1352 899 1315 875Q1358 823 1430 752Q1571 856 1667 961L1769 848Q1781 837 1781 829Q1781 825 1778 821Q1774 814 1760 814Q1753 814 1747 815Q1696 819 1638 782Q1620 770 1571 735Q1524 702 1503 688Q1722 506 1974 467Q1907 412 1853 338Q1571 463 1366 655V532Q1276 545 1182 545H1057Q1047 418 1032 332H1452Q1542 332 1634 344V217Q1538 229 1452 229H1006Q907 -111 385 -334Q350 -260 262 -207Q752 -92 874 229H598Q528 229 418 217V344Q524 332 598 332H911Q934 446 942 545H905Q825 545 725 532V659Q829 647 905 647H1182Q1274 647 1362 657Q1171 838 1055 1067ZM285 1387H688Q688 1475 676 1608L819 1587Q842 1585 844 1577Q846 1571 827 1554Q795 1528 795 1387H1231Q1231 1487 1219 1606L1364 1585Q1389 1583 1389 1575Q1393 1569 1372 1548Q1339 1524 1341 1387H1729Q1802 1387 1911 1399V1272Q1817 1284 1729 1284H1341Q1341 1210 1354 1135H1219Q1231 1212 1231 1284H795Q795 1208 807 1137H676Q688 1208 688 1284H285Q209 1284 104 1272V1399Q205 1387 285 1387ZM313 815 408 899Q502 799 584 696Q702 811 799 965H457Q383 965 274 952V1079Q377 1067 457 1067H795Q883 1067 989 1079Q745 569 195 264Q145 330 78 385Q248 416 504 621Q434 707 313 815ZM1077 33 1143 135Q1503 -23 1800 -225L1714 -336Q1430 -104 1077 33Z" fill="black" stroke="black" stroke-width="2" transform="translate(9914.55078125,0) scale(0.5,-0.5)" /><path d="M780 948 903 844Q926 823 922 817Q920 809 887 803Q825 793 762 725Q750 713 723 684Q672 631 651 608V-137Q653 -213 664 -311H524Q535 -211 537 -137V504Q436 406 223 229Q164 295 94 340Q516 557 780 948ZM764 190Q887 209 1110 358V731Q1110 803 1098 930L1243 909Q1274 905 1274 899Q1278 895 1257 875Q1225 844 1225 717V442Q1540 686 1667 870L1782 752Q1797 736 1797 727Q1797 724 1796 723Q1792 715 1755 715Q1710 713 1649 655Q1446 467 1225 285V0Q1223 -78 1253 -100Q1282 -127 1374 -133Q1376 -133 1382 -133Q1450 -137 1526 -137Q1677 -139 1718 -113Q1767 -92 1784 -6Q1793 27 1793 73Q1793 99 1790 131Q1853 88 1939 64Q1917 -23 1888 -96Q1847 -260 1556 -252Q1448 -252 1331 -244Q1102 -233 1110 -57V211Q991 129 887 66Q825 150 764 190ZM336 1278H653V1378Q653 1442 641 1577L803 1552Q813 1550 815 1544Q815 1538 807 1530Q762 1491 764 1364V1278H1237V1370Q1235 1444 1225 1569L1376 1546Q1397 1542 1397 1536Q1399 1528 1384 1513Q1348 1475 1348 1356V1278H1718Q1780 1278 1882 1290V1163Q1774 1176 1718 1176H1348V1139Q1348 1085 1360 963H1225Q1235 1063 1237 1139V1176H764V1135Q766 1075 776 961H641Q653 1088 653 1135V1176H336Q268 1174 170 1163V1290Q274 1278 336 1278Z" fill="black" stroke="black" stroke-width="2" transform="translate(10914.55078125,0) scale(0.5,-0.5)" /><path d="M1389 328Q1548 160 1632 41L1520 -35Q1448 100 1288 244ZM905 1552Q1067 1446 1188 1339L1118 1257H1702Q1802 1257 1872 1270Q1860 1202 1860 1108V1006Q1860 915 1872 844H1733Q1745 924 1745 1006V1155H330V985Q330 889 342 823H207Q219 893 219 985V1106Q217 1227 209 1268Q274 1257 375 1257H1079Q954 1368 825 1452ZM309 -113H965V365H639Q543 365 483 352V479Q530 467 639 467H965V811H604Q506 811 444 799V926Q504 913 604 913H1466Q1569 913 1628 926V799Q1554 811 1466 811H1079V467H1434Q1538 467 1595 479V352Q1534 365 1434 365H1079V-113H1757Q1853 -113 1929 -100V-227Q1849 -215 1757 -215H309Q195 -215 137 -227V-100Q184 -113 309 -113Z" fill="black" stroke="black" stroke-width="2" transform="translate(11914.55078125,0) scale(0.5,-0.5)" /><path d="M885 1368V1214H1167V1409Q1167 1479 1155 1581L1311 1561Q1331 1559 1333.0 1550.5Q1335 1542 1317 1528Q1282 1499 1282 1411V1214H1509Q1604 1214 1706 1227Q1694 1124 1694 1063V346H1796Q1858 344 1952 358V231Q1855 244 1796 244H246Q188 244 78 231V358Q188 344 246 346H373V1051Q373 1118 360 1227Q471 1214 541 1214H770V1401Q770 1477 758 1573L913 1552Q934 1550 934 1542Q936 1534 918 1513Q883 1481 885 1368ZM487 700V346H770V700ZM487 1112V803H770V1112ZM885 700V346H1167V700ZM885 803H1167V1112H885ZM1282 700V346H1579V700ZM1282 1112V803H1579V1112ZM776 209 897 121Q915 107 911 96Q907 88 883 84Q844 78 805 47Q532 -164 240 -328Q197 -264 123 -209Q520 -88 776 209ZM1157 107 1235 211Q1583 -2 1845 -215L1769 -328Q1528 -94 1157 107Z" fill="black" stroke="black" stroke-width="2" transform="translate(12914.55078125,0) scale(0.5,-0.5)" /><path d="M424 -37Q424 -126 410.0 -188.0Q396 -250 362 -312H272Q346 -192 346 -80H280V93H424Z" fill="black" stroke="black" stroke-width="2" transform="translate(13914.55078125,0) scale(0.5,-0.5)" /><path d="M86 -23Q258 131 305 363L424 317Q451 307 451 297Q451 289 424 272Q395 256 377 213Q305 43 211 -94Q168 -66 86 -23ZM885 1116H258Q197 1116 92 1104V1231Q184 1219 258 1219H885Q969 1219 1049 1231V1104Q944 1116 885 1116ZM248 967Q356 954 432 954H797Q877 952 967 967Q954 852 954 786V649Q954 569 967 465Q864 479 797 477H668V-82Q670 -184 612 -221Q559 -260 377 -276Q369 -215 328 -137Q399 -144 446 -144Q497 -144 516 -135Q555 -125 553 -61V477H432Q346 477 248 465Q260 571 260 643V791Q262 846 248 967ZM371 852V580H844V852ZM793 -199Q1296 55 1286 836H1188Q1130 836 1022 823V950Q1120 938 1188 938H1288Q1292 1089 1292 1199Q1292 1452 1274 1589L1432 1569Q1452 1565 1452 1559Q1454 1550 1438 1534Q1403 1497 1403 1391Q1403 1229 1403 1143Q1401 1042 1399 938H1743Q1812 938 1907 950V823Q1812 836 1743 836H1399Q1411 70 930 -299Q868 -242 793 -199ZM1552 512V-72Q1551 -79 1551 -89Q1551 -159 1546.0 -154.5Q1541 -150 1621 -150Q1633 -150 1642 -149Q1710 -149 1753 -137Q1845 -117 1837 66Q1913 18 1976 4Q1933 -154 1898 -192Q1868 -238 1776 -246Q1702 -254 1597 -258Q1442 -260 1438 -117V516Q1438 606 1425 711L1579 690Q1597 688 1599.5 680.0Q1602 672 1585 655Q1550 619 1552 512ZM1516 1339 1614 1417Q1741 1276 1839 1133L1735 1044Q1645 1198 1516 1339ZM467 1505 561 1581Q666 1466 756 1335L657 1255Q578 1384 467 1505ZM774 281 868 354Q983 215 1063 100L961 25Q885 156 774 281Z" fill="black" stroke="black" stroke-width="2" transform="translate(14914.55078125,0) scale(0.5,-0.5)" /><path d="M106 541V668Q215 655 276 655H1755Q1810 657 1915 668V541Q1812 551 1755 553H1083V305H1511Q1567 307 1669 317V190Q1569 203 1511 203H1083V-100Q1222 -111 1385 -111Q1440 -111 1524 -109Q1788 -100 1956 -78Q1911 -137 1903 -225Q1690 -234 1489 -234Q1361 -234 1268 -231Q791 -248 516 94Q387 -166 238 -313Q176 -250 102 -203Q348 -119 496 422L639 371Q664 363 666.0 354.5Q668 346 645 334Q588 309 565 211Q725 -18 969 -82V553H276Q209 551 106 541ZM1595 1501Q1585 1384 1583 1317V963Q1585 909 1595 788Q1466 801 1397 801H670Q590 801 453 788Q463 909 465 973V1315Q463 1395 453 1501Q571 1491 651 1489H1393Q1460 1489 1595 1501ZM580 1104V899H1468V1104ZM580 1391V1202H1468V1391Z" fill="black" stroke="black" stroke-width="2" transform="translate(15914.55078125,0) scale(0.5,-0.5)" /><path d="M190 -172Q842 129 1010 875L578 862Q432 858 313 840V987Q389 973 461 975L1028 985Q1051 1177 1051 1332Q1051 1440 1040 1528L1200 1507Q1225 1505 1227 1495Q1231 1487 1212 1464Q1186 1434 1184 1368Q1178 1196 1149 981L1638 995Q1712 995 1817 1010Q1790 891 1780 756Q1747 330 1712 4Q1696 -172 1608 -227Q1532 -285 1264 -297Q1266 -211 1214 -115Q1337 -136 1411 -136Q1470 -136 1503 -123Q1579 -100 1589 16Q1636 438 1665 889L1130 875Q991 158 319 -305Q276 -227 190 -172ZM633 1475Q735 1329 848 1147L735 1063Q655 1245 526 1405ZM1298 158Q1204 283 1049 449L1143 539Q1292 389 1403 252Z" fill="black" stroke="black" stroke-width="2" transform="translate(16914.55078125,0) scale(0.5,-0.5)" /><path d="M1497 1325H438Q373 1327 264 1313V1444Q360 1430 434 1432H1595Q1681 1430 1780 1444Q1421 1030 1102 850V-4Q1108 -168 1034 -211Q971 -260 700 -276Q698 -213 635 -96Q770 -125 849 -125Q891 -125 915 -117Q987 -96 983 14V913Q1298 1083 1497 1325Z" fill="black" stroke="black" stroke-width="2" transform="translate(17914.55078125,0) scale(0.5,-0.5)" /><path d="M938 1577 1126 1524Q1147 1518 1147.0 1507.5Q1147 1497 1126 1489Q1079 1464 1055 1405Q1016 1300 938 1110Q907 1034 895 1001H1755Q1843 1006 1946 1018V883Q1841 895 1755 899H1491Q1405 553 1217 299Q1663 78 1843 -55L1735 -172Q1530 6 1141 197Q872 -94 350 -291Q295 -188 227 -147Q760 -41 1022 264Q629 453 487 489Q602 655 713 899H328Q244 897 131 883V1018Q240 1004 328 1001H754Q885 1315 938 1577ZM690 557Q719 543 791 510Q1016 403 1102 363Q1290 590 1352 899H856Q778 727 690 557Z" fill="black" stroke="black" stroke-width="2" transform="translate(18914.55078125,0) scale(0.5,-0.5)" /><path d="M63 -92Q939 159 939 1303Q939 1407 932 1516L1110 1485Q1133 1481 1135 1470Q1139 1460 1120 1446Q1087 1413 1079 1360Q1078 1332 1078 1288Q1078 374 1939 -113Q1862 -137 1796 -225Q1217 119 1020 811Q887 104 193 -219Q133 -127 63 -92Z" fill="black" stroke="black" stroke-width="2" transform="translate(19914.55078125,0) scale(0.5,-0.5)" /><path d="M512 217Q346 195 323 29Q346 -132 512 -155Q680 -132 703 29Q680 195 512 217ZM512 281Q744 258 766 29Q742 -194 512 -219Q284 -194 260 29Q284 258 512 281Z" fill="black" stroke="black" stroke-width="2" transform="translate(20914.55078125,0) scale(0.5,-0.5)" /></g><g transform="scale(0.016,0.016) translate(0, 2500.0)"><path d="M1104 1339H334Q254 1337 150 1323V1458Q240 1444 334 1442H1751Q1847 1444 1939 1458V1323Q1847 1337 1751 1339H1274Q1194 1188 1098 1038V-86Q1098 -158 1114 -283H967Q981 -170 983 -88V875Q705 485 233 227Q166 305 86 354Q705 543 1104 1339ZM1839 252Q1552 563 1237 821L1339 930Q1657 647 1944 363Z" fill="black" stroke="black" stroke-width="2" transform="translate(914.55078125,0) scale(0.5,-0.5)" /><path d="M106 541V668Q215 655 276 655H1755Q1810 657 1915 668V541Q1812 551 1755 553H1083V305H1511Q1567 307 1669 317V190Q1569 203 1511 203H1083V-100Q1222 -111 1385 -111Q1440 -111 1524 -109Q1788 -100 1956 -78Q1911 -137 1903 -225Q1690 -234 1489 -234Q1361 -234 1268 -231Q791 -248 516 94Q387 -166 238 -313Q176 -250 102 -203Q348 -119 496 422L639 371Q664 363 666.0 354.5Q668 346 645 334Q588 309 565 211Q725 -18 969 -82V553H276Q209 551 106 541ZM1595 1501Q1585 1384 1583 1317V963Q1585 909 1595 788Q1466 801 1397 801H670Q590 801 453 788Q463 909 465 973V1315Q463 1395 453 1501Q571 1491 651 1489H1393Q1460 1489 1595 1501ZM580 1104V899H1468V1104ZM580 1391V1202H1468V1391Z" fill="black" stroke="black" stroke-width="2" transform="translate(1914.55078125,0) scale(0.5,-0.5)" /><path d="M445 430Q434 456 426.0 500.5Q418 545 418 589Q418 719 551 848L625 920Q719 1011 753.5 1079.0Q788 1147 788 1222Q788 1333 715.0 1401.0Q642 1469 519 1469Q333 1469 176 1335V1462Q331 1575 524 1575Q693 1575 798.0 1482.0Q903 1389 903 1234Q903 1170 882.5 1114.0Q862 1058 827.0 1007.5Q792 957 700 868Q580 755 549.5 705.5Q519 656 519 589Q519 511 547 430ZM492 -19Q454 -19 428.0 7.5Q402 34 402 73Q402 113 428.0 139.0Q454 165 492 165Q533 165 559.5 138.5Q586 112 586 73Q586 34 558.5 7.5Q531 -19 492 -19Z" fill="black" stroke="black" stroke-width="2" transform="translate(2914.55078125,0) scale(0.5,-0.5)" /><path d="M63 53Q322 223 453 592Q332 799 170 983L270 1051Q346 946 483 756Q496 739 502 731Q563 930 596 1237H266Q182 1237 84 1225V1352Q180 1339 266 1339H543Q639 1339 739 1352Q657 842 586 612Q707 432 807 242L707 162Q635 320 537 473Q436 193 209 -31Q147 23 63 53ZM664 832Q969 1143 1038 1604L1184 1544Q1223 1528 1221 1520Q1223 1509 1184 1491Q1149 1477 1126 1405Q1092 1300 1038 1182H1718Q1804 1182 1890 1194V1067Q1806 1079 1718 1079H1487V799H1632Q1720 799 1812 811V684Q1718 696 1632 696H1487V414H1638Q1718 414 1817 426V299Q1722 311 1638 311H1487V16H1765Q1866 16 1950 29V-94Q1858 -82 1765 -82H1073Q1073 -164 1085 -262L946 -264Q958 -166 958 -82V1016Q895 901 805 774Q741 815 664 832ZM1073 1079V799H1372V1079ZM1073 414H1372V696H1073ZM1073 311V16H1372V311ZM1288 1509 1384 1593Q1511 1460 1647 1286L1550 1202Q1442 1352 1288 1509Z" fill="black" stroke="black" stroke-width="2" transform="translate(3914.55078125,0) scale(0.5,-0.5)" /><path d="M111 756V879Q203 866 260 866H348Q420 864 514 879Q502 766 502 707V84Q631 55 819 -33Q948 -92 1075 -111Q1202 -133 1434 -133Q1735 -133 1942 -80Q1903 -160 1894 -244Q1862 -244 1800 -246Q1632 -252 1466 -252Q991 -256 795 -139Q563 -29 465 -35Q305 -45 197 -233L111 -88Q248 20 387 72V768H260Q203 768 111 756ZM555 1176 459 1079Q324 1245 162 1395L250 1483Q412 1333 555 1176ZM633 1122V1245Q748 1233 821 1233H1038Q942 1382 813 1493L907 1561Q1020 1454 1153 1300L1061 1233H1335Q1479 1448 1526 1587L1659 1513Q1681 1501 1679 1491Q1677 1479 1655 1475Q1608 1466 1579 1425Q1544 1372 1487 1284Q1466 1251 1454 1233H1690Q1767 1233 1888 1245V1122Q1772 1135 1690 1135H1284L1219 926H1509Q1579 924 1698 938Q1683 823 1686 754V227Q1683 152 1698 20Q1583 33 1495 33H979Q897 33 776 20Q788 135 788 217V760Q788 825 776 938Q883 926 956 926H1094L1159 1135H817Q739 1135 633 1122ZM903 317V131H1571V317ZM903 565V412H1571V565ZM903 827V659H1571V827Z" fill="black" stroke="black" stroke-width="2" transform="translate(4914.55078125,0) scale(0.5,-0.5)" /><path d="M106 541V668Q215 655 276 655H1755Q1810 657 1915 668V541Q1812 551 1755 553H1083V305H1511Q1567 307 1669 317V190Q1569 203 1511 203H1083V-100Q1222 -111 1385 -111Q1440 -111 1524 -109Q1788 -100 1956 -78Q1911 -137 1903 -225Q1690 -234 1489 -234Q1361 -234 1268 -231Q791 -248 516 94Q387 -166 238 -313Q176 -250 102 -203Q348 -119 496 422L639 371Q664 363 666.0 354.5Q668 346 645 334Q588 309 565 211Q725 -18 969 -82V553H276Q209 551 106 541ZM1595 1501Q1585 1384 1583 1317V963Q1585 909 1595 788Q1466 801 1397 801H670Q590 801 453 788Q463 909 465 973V1315Q463 1395 453 1501Q571 1491 651 1489H1393Q1460 1489 1595 1501ZM580 1104V899H1468V1104ZM580 1391V1202H1468V1391Z" fill="black" stroke="black" stroke-width="2" transform="translate(5914.55078125,0) scale(0.5,-0.5)" /><path d="M190 -172Q842 129 1010 875L578 862Q432 858 313 840V987Q389 973 461 975L1028 985Q1051 1177 1051 1332Q1051 1440 1040 1528L1200 1507Q1225 1505 1227 1495Q1231 1487 1212 1464Q1186 1434 1184 1368Q1178 1196 1149 981L1638 995Q1712 995 1817 1010Q1790 891 1780 756Q1747 330 1712 4Q1696 -172 1608 -227Q1532 -285 1264 -297Q1266 -211 1214 -115Q1337 -136 1411 -136Q1470 -136 1503 -123Q1579 -100 1589 16Q1636 438 1665 889L1130 875Q991 158 319 -305Q276 -227 190 -172ZM633 1475Q735 1329 848 1147L735 1063Q655 1245 526 1405ZM1298 158Q1204 283 1049 449L1143 539Q1292 389 1403 252Z" fill="black" stroke="black" stroke-width="2" transform="translate(6914.55078125,0) scale(0.5,-0.5)" /><path d="M1497 1325H438Q373 1327 264 1313V1444Q360 1430 434 1432H1595Q1681 1430 1780 1444Q1421 1030 1102 850V-4Q1108 -168 1034 -211Q971 -260 700 -276Q698 -213 635 -96Q770 -125 849 -125Q891 -125 915 -117Q987 -96 983 14V913Q1298 1083 1497 1325Z" fill="black" stroke="black" stroke-width="2" transform="translate(7914.55078125,0) scale(0.5,-0.5)" /><path d="M141 653Q453 856 567 1145L694 1077Q717 1065 717 1057Q717 1047 694 1040Q664 1030 643 1006Q641 1001 635 995Q612 967 596 946H1614Q1686 944 1792 958Q1784 856 1784 782Q1784 561 1776 18Q1778 -149 1702 -199Q1636 -256 1374 -285Q1362 -219 1317 -139Q1379 -142 1412 -142Q1540 -142 1593 -119Q1665 -90 1665 10Q1667 145 1669 844H532Q440 733 289 590Q238 627 141 653ZM227 -63Q586 64 854 371H502Q430 371 336 358V481Q432 469 502 469H915V606Q915 684 903 799L1051 778Q1073 776 1073 768Q1075 762 1059 741Q1024 707 1026 592V469H1386Q1456 467 1550 481V358Q1454 371 1386 371H1026V334Q1268 203 1473 64L1391 -49Q1243 90 1026 219V-76Q1026 -147 1038 -240H903Q915 -141 915 -76V268Q690 35 360 -170Q303 -100 227 -63ZM600 766Q713 668 797 576L709 485Q631 584 516 682ZM1372 799 1473 715Q1493 698 1489.0 688.0Q1485 678 1454 676Q1411 672 1380 641Q1335 596 1239 506Q1204 551 1159 582Q1288 682 1372 799ZM299 1364H674V1403Q676 1499 659 1595L811 1575Q831 1571 831 1565Q834 1556 819 1540Q784 1499 784 1407V1364H1219V1411Q1219 1493 1206 1604L1358 1583Q1378 1581 1380 1573Q1382 1567 1366 1552Q1329 1518 1329 1411V1364H1751Q1821 1362 1915 1376V1249Q1821 1262 1751 1262H1329Q1329 1182 1341 1100H1206Q1219 1188 1219 1262H784Q784 1190 797 1106H662Q674 1186 674 1262H299Q231 1262 133 1249V1376Q233 1364 299 1364Z" fill="black" stroke="black" stroke-width="2" transform="translate(8914.55078125,0) scale(0.5,-0.5)" /><path d="M780 948 903 844Q926 823 922 817Q920 809 887 803Q825 793 762 725Q750 713 723 684Q672 631 651 608V-137Q653 -213 664 -311H524Q535 -211 537 -137V504Q436 406 223 229Q164 295 94 340Q516 557 780 948ZM764 190Q887 209 1110 358V731Q1110 803 1098 930L1243 909Q1274 905 1274 899Q1278 895 1257 875Q1225 844 1225 717V442Q1540 686 1667 870L1782 752Q1797 736 1797 727Q1797 724 1796 723Q1792 715 1755 715Q1710 713 1649 655Q1446 467 1225 285V0Q1223 -78 1253 -100Q1282 -127 1374 -133Q1376 -133 1382 -133Q1450 -137 1526 -137Q1677 -139 1718 -113Q1767 -92 1784 -6Q1793 27 1793 73Q1793 99 1790 131Q1853 88 1939 64Q1917 -23 1888 -96Q1847 -260 1556 -252Q1448 -252 1331 -244Q1102 -233 1110 -57V211Q991 129 887 66Q825 150 764 190ZM336 1278H653V1378Q653 1442 641 1577L803 1552Q813 1550 815 1544Q815 1538 807 1530Q762 1491 764 1364V1278H1237V1370Q1235 1444 1225 1569L1376 1546Q1397 1542 1397 1536Q1399 1528 1384 1513Q1348 1475 1348 1356V1278H1718Q1780 1278 1882 1290V1163Q1774 1176 1718 1176H1348V1139Q1348 1085 1360 963H1225Q1235 1063 1237 1139V1176H764V1135Q766 1075 776 961H641Q653 1088 653 1135V1176H336Q268 1174 170 1163V1290Q274 1278 336 1278Z" fill="black" stroke="black" stroke-width="2" transform="translate(9914.55078125,0) scale(0.5,-0.5)" /><path d="M445 430Q434 456 426.0 500.5Q418 545 418 589Q418 719 551 848L625 920Q719 1011 753.5 1079.0Q788 1147 788 1222Q788 1333 715.0 1401.0Q642 1469 519 1469Q333 1469 176 1335V1462Q331 1575 524 1575Q693 1575 798.0 1482.0Q903 1389 903 1234Q903 1170 882.5 1114.0Q862 1058 827.0 1007.5Q792 957 700 868Q580 755 549.5 705.5Q519 656 519 589Q519 511 547 430ZM492 -19Q454 -19 428.0 7.5Q402 34 402 73Q402 113 428.0 139.0Q454 165 492 165Q533 165 559.5 138.5Q586 112 586 73Q586 34 558.5 7.5Q531 -19 492 -19Z" fill="black" stroke="black" stroke-width="2" transform="translate(10914.55078125,0) scale(0.5,-0.5)" /></g><g transform="scale(0.016,0.016) translate(0, 4750.0)"><path d="M713 1047V1241H461Q395 1239 293 1229V1356Q397 1346 461 1344H713V1405Q711 1473 700 1591L854 1571Q879 1569 881.0 1559.5Q883 1550 860 1534Q823 1509 823 1403V1344H1249V1405Q1249 1477 1237 1591L1393 1571Q1417 1569 1419.0 1560.5Q1421 1552 1401 1536Q1360 1505 1360 1403V1344H1583Q1651 1346 1751 1356V1229Q1642 1241 1587 1241H1360V1047H1759Q1821 1047 1927 1059V932Q1817 944 1763 944H1083V776H1479Q1540 776 1673 788Q1663 692 1661 616V262Q1663 203 1673 96Q1546 109 1489 109H1331Q1534 8 1849 -178L1782 -293Q1536 -119 1233 16L1296 109H782L866 33Q895 8 891 -2Q889 -10 852 -12Q809 -12 741 -57Q489 -207 305 -307Q262 -244 195 -201Q545 -94 743 109H610Q555 109 426 96Q436 209 438 272V610Q438 676 426 788Q535 778 608 776H969V944H293Q238 944 129 932V1059Q233 1049 293 1047ZM549 397V211H969V397ZM549 674V500H969V674ZM1249 1241H823V1047H1249ZM1083 211H1546V397H1083ZM1083 674V500H1546V674Z" fill="black" stroke="black" stroke-width="2" transform="translate(914.55078125,0) scale(0.5,-0.5)" /><path d="M748 881 827 977Q870 911 983 844Q1087 924 1190 1051H807Q690 909 590 807Q532 862 459 897Q717 1030 827 1325L958 1282Q979 1276 979.0 1268.0Q979 1260 958 1249Q930 1237 868 1153H1231Q1309 1155 1421 1165Q1278 961 1083 784Q1339 633 1628 592Q1554 518 1526 455Q1268 551 999 705Q821 571 498 438Q444 514 387 555Q684 625 895 776Q817 827 748 881ZM739 231 793 338Q1073 223 1341 86L1278 -16Q1024 135 739 231ZM856 489 907 582Q1102 496 1272 403L1219 301Q1069 397 856 489ZM371 -303H231Q242 -197 244 -119V1278Q242 1362 231 1460Q340 1450 422 1448H1640Q1720 1450 1829 1460Q1819 1358 1817 1282V-80Q1819 -145 1829 -262H1690Q1700 -201 1702 -145H358Q360 -215 371 -303ZM358 -47H1702V1346H358Z" fill="black" stroke="black" stroke-width="2" transform="translate(1914.55078125,0) scale(0.5,-0.5)" /><path d="M342 1509 492 1489Q505 1484 505 1474Q505 1463 489 1446Q463 1427 465 1311V1010Q467 934 477 840H342Q352 932 354 1010V1323Q352 1399 342 1509ZM866 1018Q1075 1174 1198 1587L1346 1536Q1364 1530 1362.0 1518.5Q1360 1507 1339 1499Q1298 1485 1272 1419Q1251 1368 1231 1327H1741Q1817 1329 1896 1339V1217Q1808 1227 1741 1229H1192Q1104 1075 1014 948Q956 991 866 1018ZM1292 1049 1370 1151Q1597 1016 1765 899L1694 784Q1532 922 1292 1049ZM98 -160Q606 -119 750 51Q885 193 905 565L1061 535Q1085 530 1087 520Q1090 508 1067 492Q1034 469 1020 395Q969 -197 211 -301Q174 -217 98 -160ZM1061 371 1204 350Q1221 345 1221 335Q1221 325 1204 309Q1182 301 1184 180V-33Q1182 -88 1225 -104Q1268 -123 1417 -127Q1449 -128 1491 -128Q1678 -128 1724 -92Q1790 -59 1790 117Q1847 45 1935 31Q1874 -166 1796 -201Q1731 -246 1444 -246Q1200 -248 1137 -213Q1069 -184 1073 -63V188Q1071 266 1061 371ZM565 84H430Q440 174 442 250V563Q438 649 430 737Q532 727 610 725H1427Q1511 727 1602 737Q1591 645 1589 567V264Q1591 186 1602 94H1466Q1477 188 1479 264V627H553V250Q555 186 565 84ZM723 1575 877 1554Q889 1548 889 1539Q889 1527 872 1509Q844 1487 846 1378V985Q848 903 858 813H723Q733 909 735 985V1391Q733 1464 723 1575Z" fill="black" stroke="black" stroke-width="2" transform="translate(2914.55078125,0) scale(0.5,-0.5)" /><path d="M123 1280V1423Q215 1409 301 1407H1747Q1829 1409 1921 1423V1280Q1829 1292 1747 1296H918Q905 1079 891 895H1468Q1565 899 1657 911Q1642 813 1634 725L1599 209Q1585 -72 1497 -131Q1421 -207 1108 -203Q1100 -123 1044 -25Q1212 -60 1301 -60Q1363 -60 1389 -43Q1464 -16 1473 193L1516 784H881Q805 111 317 -244Q250 -182 158 -139Q809 145 784 1296H301Q219 1294 123 1280Z" fill="black" stroke="black" stroke-width="2" transform="translate(3914.55078125,0) scale(0.5,-0.5)" /><path d="M61 270Q440 395 690 709H262Q195 709 102 696V823Q193 811 262 811H750Q801 895 831 995H418Q350 995 254 983V1110Q350 1098 418 1098H858Q918 1323 915 1575L1079 1544Q1106 1540 1106 1532Q1108 1524 1083 1503Q1044 1470 1034 1395Q1010 1217 983 1098H1606Q1683 1098 1780 1110V983Q1677 997 1606 995H958Q928 897 885 811H1731Q1808 811 1905 823V696Q1804 711 1737 709H1378Q1552 430 1978 346Q1915 287 1880 211Q1612 317 1458 449Q1456 422 1450 352Q1442 254 1438 211Q1434 25 1065 20Q1059 90 1010 160Q1069 154 1125 154Q1317 154 1319 246Q1327 297 1333 387H702V-80Q700 -91 700 -97Q700 -187 909 -180H1333Q1468 -182 1516 -125Q1569 -72 1585 98Q1649 41 1731 25Q1659 -176 1589 -227Q1524 -287 1346 -283H852Q696 -283 643 -246Q586 -211 588 -106V289Q588 342 575 418Q416 289 180 152Q137 215 61 270ZM659 502Q733 489 795 489H1255Q1329 489 1397 502Q1313 592 1241 709H834Q760 604 659 502ZM397 1405 494 1489Q639 1352 752 1214L649 1124Q537 1276 397 1405ZM1204 1169Q1350 1339 1425 1509L1546 1440Q1573 1425 1573 1413Q1571 1403 1542 1395Q1503 1384 1473 1337Q1399 1227 1309 1108Z" fill="black" stroke="black" stroke-width="2" transform="translate(4914.55078125,0) scale(0.5,-0.5)" /><path d="M424 -37Q424 -126 410.0 -188.0Q396 -250 362 -312H272Q346 -192 346 -80H280V93H424Z" fill="black" stroke="black" stroke-width="2" transform="translate(5914.55078125,0) scale(0.5,-0.5)" /><path d="M78 129Q164 137 272 162V1233Q274 1348 260 1450Q485 1464 799 1602L901 1479Q919 1458 919 1450Q919 1449 917.5 1446.5Q916 1444 911 1444Q904 1444 881 1448Q866 1451 851 1451Q819 1451 768 1440Q614 1409 387 1368V1057H647Q705 1055 799 1069V942Q698 954 643 954H387V655H633Q690 653 799 668V541Q688 555 635 553H387V184Q713 256 881 324L866 184Q623 131 387 66V-100Q387 -182 399 -293H260Q272 -174 272 -92V25Q197 0 133 -27ZM1286 141Q1137 328 1034 578Q981 578 897 565V694Q997 680 1063 682H1602Q1675 680 1782 694Q1640 387 1448 141Q1688 -57 1968 -147Q1878 -217 1853 -276Q1542 -109 1372 61Q1135 -154 813 -287Q782 -215 707 -158Q1034 -100 1286 141ZM1583 580H1155Q1227 391 1364 223Q1499 379 1583 580ZM823 875Q1081 943 1081 1336Q1081 1422 1069 1522Q1165 1509 1225 1509H1501Q1554 1509 1647 1522Q1632 1446 1634 1378V1051Q1625 951 1749 951Q1818 951 1931 983Q1898 895 1890 834Q1819 828 1755 828Q1640 828 1593 852Q1518 885 1520 1012V1407H1200Q1196 1143 1145 1026Q1096 897 944 768Q903 829 823 875Z" fill="black" stroke="black" stroke-width="2" transform="translate(6914.55078125,0) scale(0.5,-0.5)" /><path d="M135 647V778Q207 766 287 766H967V858Q967 907 954 975Q1300 1200 1462 1387H506Q432 1387 340 1374V1505Q412 1493 500 1493H1534Q1618 1493 1747 1505Q1530 1255 1090 913V766H1761Q1845 766 1915 778V647Q1839 659 1763 659H1090V-49Q1094 -195 1026 -236Q965 -283 733 -295Q719 -211 664 -129Q772 -143 836 -143Q896 -143 918 -131Q971 -117 967 -6V659H285Q203 659 135 647Z" fill="black" stroke="black" stroke-width="2" transform="translate(7914.55078125,0) scale(0.5,-0.5)" /><path d="M449 1016V1139Q541 1126 606 1126H1436Q1503 1124 1597 1139V1016Q1495 1028 1436 1028H606Q545 1028 449 1016ZM893 1612Q1083 1505 1206 1411L1161 1356H1679Q1747 1354 1849 1368Q1837 1268 1837 1208V1178Q1837 1120 1849 1016H1710Q1722 1120 1722 1178V1253H336V1163Q336 1102 348 1001H209Q221 1104 221 1163V1202Q221 1253 209 1368Q309 1356 377 1356H1077Q987 1423 819 1511ZM326 467Q430 455 496 455H1550Q1610 455 1710 467Q1698 371 1698 301V-141Q1698 -201 1710 -305H1571Q1579 -244 1583 -182H449Q451 -246 461 -322H326Q340 -233 338 -160V295Q338 354 326 467ZM453 82V-84H967V82ZM453 356V180H967V356ZM1583 -84V82H1081V-84ZM1081 356V180H1583V356ZM498 559Q510 655 510 727V770Q510 836 498 932Q596 920 662 920H1382Q1448 918 1544 932Q1532 834 1532 770V727Q1530 664 1544 559Q1450 571 1382 571H662Q592 571 498 559ZM625 821V670H1417V821Z" fill="black" stroke="black" stroke-width="2" transform="translate(8914.55078125,0) scale(0.5,-0.5)" /><path d="M289 1384Q399 1377 507 1377Q1086 1377 1573 1581L1665 1456Q1681 1434 1677.0 1427.5Q1673 1421 1645 1423Q1597 1427 1522 1407Q1382 1370 1083 1315V731H1700Q1782 731 1901 748V612Q1784 629 1700 629H1083V-100Q1083 -168 1100 -291H948Q965 -178 965 -100V629H328Q246 629 147 612V748Q246 731 328 731H965V1294Q680 1251 369 1227Q346 1313 289 1384Z" fill="black" stroke="black" stroke-width="2" transform="translate(9914.55078125,0) scale(0.5,-0.5)" /><path d="M1028 227V584H641Q530 584 440 567L395 694Q402 691 409 691Q503 691 717 1157H338Q268 1157 178 1145V1272Q268 1260 338 1260H768Q844 1419 899 1606L1055 1548Q1083 1538 1083.0 1532.0Q1083 1526 1055 1513Q1022 1499 999 1454Q983 1421 948 1354Q913 1290 899 1260H1665Q1751 1260 1827 1272V1145Q1743 1157 1665 1157H848Q698 866 592 686H1028V815Q1028 903 1016 1026L1171 1001Q1198 997 1198.0 985.0Q1198 973 1174 954Q1155 942 1151 918Q1147 897 1147 815V686H1509Q1593 686 1679 698V571Q1593 584 1509 584H1147V227H1761Q1845 227 1921 240V113Q1847 125 1761 125H1147V-131Q1147 -219 1159 -319H1016Q1028 -229 1028 -131V125H295Q211 125 123 113V240Q213 227 295 227Z" fill="black" stroke="black" stroke-width="2" transform="translate(10914.55078125,0) scale(0.5,-0.5)" /><path d="M512 217Q346 195 323 29Q346 -132 512 -155Q680 -132 703 29Q680 195 512 217ZM512 281Q744 258 766 29Q742 -194 512 -219Q284 -194 260 29Q284 258 512 281Z" fill="black" stroke="black" stroke-width="2" transform="translate(11914.55078125,0) scale(0.5,-0.5)" /><path d="M1784 1204Q1772 1116 1772 1028V2Q1778 -178 1700 -225Q1634 -281 1352 -301Q1329 -209 1288 -121Q1402 -129 1469 -129Q1564 -129 1593 -115Q1655 -100 1649 10V1081H1085Q1075 954 1061 838Q1309 559 1526 279L1389 170Q1249 401 1022 682Q905 324 610 109Q551 164 469 223Q922 408 961 1081H401V-92Q401 -174 414 -279H270Q283 -192 283 -92V1030Q283 1116 270 1204Q369 1192 459 1192H963Q963 1354 961 1423Q956 1499 948 1569L1114 1554Q1153 1552 1153 1540Q1155 1530 1124 1501Q1085 1470 1087 1384Q1087 1284 1087 1192H1591Q1681 1192 1784 1204Z" fill="black" stroke="black" stroke-width="2" transform="translate(12914.55078125,0) scale(0.5,-0.5)" /><path d="M123 924 195 1022Q373 907 498 803L422 692Q289 817 123 924ZM158 -192Q330 156 444 557Q487 489 547 442Q375 4 301 -254ZM387 1540Q528 1434 688 1292L594 1190Q451 1348 297 1448ZM797 770V-51L1749 -8V797Q1747 881 1737 987L1896 967Q1905 962 1905 955Q1905 944 1890 930Q1862 913 1864 786V-102Q1866 -182 1876 -283H1737Q1747 -190 1749 -104L868 -147Q782 -154 670 -170Q680 -66 682 8V784Q680 870 670 973L825 952Q835 948 835 940Q835 929 817 911Q795 905 797 770ZM1321 1106V793Q1483 963 1595 1159L1718 1081Q1735 1071 1731 1059Q1726 1049 1706 1049Q1669 1042 1634 1001Q1532 877 1419 754Q1554 584 1720 358L1599 285Q1485 508 1321 705V260Q1323 133 1280 100Q1241 59 1077 45Q1063 111 1018 186Q1086 180 1127 180Q1168 180 1182 186Q1214 195 1210 256V588Q1038 430 918 287L825 418Q1024 553 1210 709V999Q1208 1075 1198 1167Q1341 1243 1507 1395H903Q829 1393 735 1382V1509Q829 1499 903 1497H1602Q1696 1499 1806 1509Q1585 1298 1321 1106ZM844 1053 928 1122Q1040 999 1171 846L1077 762Q971 922 844 1053Z" fill="black" stroke="black" stroke-width="2" transform="translate(13914.55078125,0) scale(0.5,-0.5)" /><path d="M295 850H874Q903 1036 913 1317H469Q418 1319 342 1305V1436Q406 1421 467 1423H1622Q1679 1421 1749 1436V1305Q1686 1319 1626 1317H1034Q1028 1049 999 850H1780Q1835 848 1907 862V731Q1833 745 1778 743H1202V18Q1198 -61 1243 -74Q1278 -92 1466 -90Q1663 -94 1706 -51Q1757 -18 1788 178Q1847 100 1921 92Q1858 -117 1778 -160Q1735 -188 1663 -199Q1597 -209 1454 -209Q1210 -211 1147 -178Q1077 -154 1083 -45V743H981Q874 127 258 -262Q217 -176 139 -133Q668 55 856 743H305Q248 745 172 731V862Q238 848 295 850Z" fill="black" stroke="black" stroke-width="2" transform="translate(14914.55078125,0) scale(0.5,-0.5)" /><path d="M195 -192Q799 -68 903 371H477Q414 371 317 358V485Q414 473 477 473H920Q926 551 926 632Q926 712 920 795L1092 780Q1112 778 1112 770Q1112 760 1094 745Q1063 725 1059 657Q1053 547 1044 473H1595Q1661 473 1763 485Q1751 397 1745 324Q1733 154 1716 -4Q1702 -172 1622 -227Q1546 -291 1331 -299Q1337 -207 1274 -127Q1371 -138 1427 -138Q1492 -138 1520 -125Q1579 -106 1589 0Q1608 154 1622 371H1032Q967 -72 309 -328Q285 -256 195 -192ZM168 655Q541 772 788 1090L920 995Q940 981 938.0 971.0Q936 961 909 958Q850 956 815 924Q592 715 281 541Q242 604 168 655ZM1165 956 1239 1063Q1597 889 1870 690L1788 582Q1524 797 1165 956ZM360 915H221Q233 1008 233 1063V1131Q233 1200 221 1292Q319 1280 391 1280H1098Q983 1399 840 1501L928 1589Q1073 1479 1202 1356L1124 1280H1700Q1772 1278 1878 1292Q1866 1206 1866 1143V1079Q1866 1022 1878 930H1739Q1751 1020 1751 1079V1178H348V1063Q348 999 360 915Z" fill="black" stroke="black" stroke-width="2" transform="translate(15914.55078125,0) scale(0.5,-0.5)" /><path d="M647 49 719 160Q1038 -18 1333 -201L1260 -319Q973 -109 647 49ZM788 426 854 532Q1116 399 1323 262L1253 152Q1047 297 788 426ZM51 170Q498 434 485 1053V1284Q485 1350 473 1470Q594 1458 662 1458H1483Q1550 1456 1665 1470Q1653 1366 1653 1286V1038Q1653 977 1665 875Q1559 887 1485 887H1229Q1448 393 1980 254Q1903 201 1866 117Q1268 403 1098 887H596Q567 416 195 82Q139 143 51 170ZM600 1356V989H1538V1356Z" fill="black" stroke="black" stroke-width="2" transform="translate(16914.55078125,0) scale(0.5,-0.5)" /><path d="M424 -37Q424 -126 410.0 -188.0Q396 -250 362 -312H272Q346 -192 346 -80H280V93H424Z" fill="black" stroke="black" stroke-width="2" transform="translate(17914.55078125,0) scale(0.5,-0.5)" /><path d="M104 905V1024Q190 1012 274 1012H715Q637 1135 549 1202L600 1245H471Q354 1245 254 1233V1352Q354 1339 467 1339H1059Q924 1432 784 1501L850 1597Q1004 1520 1157 1423L1096 1339H1544Q1659 1339 1739 1352V1233Q1667 1245 1546 1245H1391L1446 1212Q1458 1204 1456 1200Q1454 1194 1438 1192Q1384 1178 1346 1118Q1327 1088 1292 1038Q1280 1020 1274 1012H1729Q1802 1012 1903 1024V905Q1817 918 1724 918H270Q197 918 104 905ZM782 1012H1161Q1255 1149 1294 1245H662Q756 1157 834 1057ZM104 -201Q309 -68 385 219L498 158Q522 145 520 135Q518 127 492 123Q473 121 436 49Q428 35 424 27Q340 -129 229 -270Q178 -225 104 -201ZM1636 827Q1624 733 1624 645V451Q1624 367 1636 279Q1528 291 1432 291H993Q1096 203 1229 72L1153 -10Q1028 129 901 236L954 291H592Q512 291 410 279Q422 375 422 444V645Q422 725 410 827Q524 815 594 815H1436Q1513 815 1636 827ZM1509 596V725H537V596ZM1509 381V506H537V381ZM621 240 764 219Q793 215 797 205Q801 197 780 184Q752 158 748 92V-90Q745 -152 784 -166Q823 -184 958 -182Q1300 -184 1343 -149Q1413 -127 1440 55Q1495 -10 1561 -23Q1495 -217 1417 -244Q1354 -285 1024 -285Q786 -291 709 -250Q629 -215 633 -96V84Q633 166 621 240ZM1511 176 1591 252Q1792 66 1925 -92L1833 -174Q1677 27 1511 176Z" fill="black" stroke="black" stroke-width="2" transform="translate(18914.55078125,0) scale(0.5,-0.5)" /><path d="M150 911 223 1010Q395 899 532 778L455 682Q301 811 150 911ZM176 -123Q375 147 549 573Q580 500 639 459Q502 205 317 -213Q268 -170 176 -123ZM379 1470Q539 1360 686 1239L602 1137Q438 1280 299 1378ZM858 397H1249V682Q1174 678 1040 672Q891 664 817 659Q797 743 764 799Q873 789 998 789Q1155 789 1329 805Q1630 836 1743 895L1815 758Q1821 745 1821 739Q1821 734 1817 731Q1813 729 1807 729Q1796 729 1782 735Q1763 740 1735 740Q1707 740 1669 735Q1536 715 1364 694V397H1778Q1851 397 1929 410V279Q1860 293 1778 291H1364V-72H1708Q1780 -72 1860 -59V-186Q1800 -174 1708 -174H901Q840 -174 748 -186V-59Q831 -72 897 -72H1249V291H862Q770 291 709 279V410Q784 397 858 397ZM737 1153 836 1221Q981 1051 1057 930L948 864Q862 1018 737 1153ZM1702 1548 1798 1423Q1807 1411 1807 1404Q1807 1400 1804 1397Q1799 1394 1792 1394Q1784 1394 1767 1399Q1759 1404 1733 1404Q1674 1404 1522 1380Q1186 1329 795 1315Q766 1407 737 1458Q850 1448 977 1450Q1106 1450 1239 1462Q1530 1491 1702 1548ZM1108 1208 1212 1266Q1298 1153 1401 987L1286 922Q1229 1051 1108 1208ZM1427 899Q1593 1114 1659 1309L1806 1227Q1831 1212 1829 1202Q1825 1192 1798 1190Q1747 1180 1716 1131Q1657 1020 1552 852Q1491 883 1427 899Z" fill="black" stroke="black" stroke-width="2" transform="translate(19914.55078125,0) scale(0.5,-0.5)" /><path d="M104 555Q580 768 780 1221H307Q248 1221 145 1208V1335Q240 1323 307 1323H815Q864 1458 874 1616L1042 1583Q1067 1579 1069 1569Q1069 1559 1047 1544Q1006 1520 993 1468Q973 1389 952 1323H1724Q1800 1323 1903 1335V1208Q1804 1223 1724 1221H918Q864 1094 786 973H1389Q1491 971 1604 985Q1591 860 1591 772V-90Q1595 -211 1540 -242Q1497 -279 1278 -301Q1270 -211 1225 -131Q1317 -143 1373 -143Q1412 -143 1430 -137Q1475 -125 1473 -57V201H745V-96Q745 -170 758 -287H614Q627 -172 627 -96V760Q473 594 238 434Q188 496 104 555ZM745 870V639H1473V870ZM745 537V303H1473V537Z" fill="black" stroke="black" stroke-width="2" transform="translate(20914.55078125,0) scale(0.5,-0.5)" /><path d="M266 875Q418 877 537 883Q649 1092 678 1200L817 1124Q848 1108 846 1100Q844 1090 809 1075Q776 1061 743 1008Q514 612 350 381Q692 430 754 465L731 324Q215 248 193 221L145 365Q221 397 264 449Q367 578 475 776Q219 758 135 731L92 860Q162 885 201 967Q348 1276 418 1522L559 1446Q594 1427 594 1417Q594 1409 559 1393Q518 1368 487 1311Q365 1065 266 875ZM96 -80Q367 -59 829 86L817 -59Q440 -131 166 -240ZM754 887Q1012 1090 1165 1577L1325 1516Q1343 1509 1341.0 1503.0Q1339 1497 1315 1483Q1284 1466 1257 1411Q1227 1346 1204 1305H1559Q1645 1303 1735 1317Q1614 1006 1425 776Q1636 616 1968 576Q1888 500 1866 420Q1556 528 1335 688Q1141 496 883 377Q831 453 764 500Q1018 555 1247 774Q1184 840 1090 965L1188 1051Q1225 973 1329 856Q1483 1030 1546 1202H1159Q1055 1016 905 821Q838 858 754 887ZM1012 -20 1071 92Q1489 -63 1710 -168L1655 -299Q1341 -129 1012 -20ZM1122 322 1186 430Q1370 358 1616 254L1565 135Q1311 260 1122 322Z" fill="black" stroke="black" stroke-width="2" transform="translate(21914.55078125,0) scale(0.5,-0.5)" /><path d="M350 -137H215Q225 -29 227 47V1200Q225 1278 215 1393Q334 1380 410 1380H639Q711 1380 840 1393Q829 1292 827 1200V96Q829 23 840 -92H709Q717 2 717 45H338Q340 -14 350 -137ZM338 1278V793H717V1278ZM338 690V147H717V690ZM1638 1407V1061H1778Q1841 1063 1937 1073V946Q1829 958 1778 958H1638V-45Q1640 -170 1569 -213Q1503 -260 1286 -276Q1266 -192 1206 -98Q1334 -117 1402 -117Q1446 -117 1466 -109Q1528 -92 1524 6V958H1065Q1001 956 897 946V1073Q995 1063 1065 1061H1524V1407Q1524 1464 1511 1581L1669 1556Q1690 1554 1690 1546Q1692 1540 1675 1528Q1640 1501 1638 1407ZM1108 782Q1212 606 1331 395L1212 324Q1114 535 997 723Z" fill="black" stroke="black" stroke-width="2" transform="translate(22914.55078125,0) scale(0.5,-0.5)" /><path d="M512 217Q346 195 323 29Q346 -132 512 -155Q680 -132 703 29Q680 195 512 217ZM512 281Q744 258 766 29Q742 -194 512 -219Q284 -194 260 29Q284 258 512 281Z" fill="black" stroke="black" stroke-width="2" transform="translate(23914.55078125,0) scale(0.5,-0.5)" /></g></svg>